<svg width="32" height="37" viewBox="0 0 32 37" fill="none" xmlns="http://www.w3.org/2000/svg">
<path d="M30.5156 26.2344C29.7656 25.5312 29.2266 24.8984 28.8984 24.3359C28.3359 23.4453 27.8906 22.3438 27.5625 21.0312C27.1875 19.4375 27 17.4688 27 15.125C27 13.2969 26.5781 11.5859 25.7344 9.99219C24.9375 8.39844 23.8125 7.08594 22.3594 6.05469C20.9531 4.97656 19.3594 4.29688 17.5781 4.01562C17.8594 3.64063 18 3.21875 18 2.75C18 2.14062 17.7656 1.625 17.2969 1.20312C16.875 0.734375 16.3594 0.5 15.75 0.5C15.1406 0.5 14.6016 0.734375 14.1328 1.20312C13.7109 1.625 13.5 2.14062 13.5 2.75C13.5 3.21875 13.6406 3.64063 13.9219 4.01562C12.1406 4.29688 10.5234 4.97656 9.07031 6.05469C7.66406 7.08594 6.53906 8.39844 5.69531 9.99219C4.89844 11.5859 4.5 13.2969 4.5 15.125C4.5 17.4688 4.3125 19.4375 3.9375 21.0312C3.60938 22.3438 3.16406 23.4453 2.60156 24.3359C2.27344 24.8984 1.75781 25.5312 1.05469 26.2344C0.351562 26.9375 0 27.7578 0 28.6953C0 29.5859 0.304687 30.3594 0.914062 31.0156C1.57031 31.6719 2.39062 32 3.375 32H11.25C11.25 33.2656 11.6719 34.3203 12.5156 35.1641C13.4062 36.0547 14.4844 36.5 15.75 36.5C17.0156 36.5 18.0703 36.0547 18.9141 35.1641C19.8047 34.3203 20.25 33.2656 20.25 32H28.125C29.1094 32 29.9062 31.6719 30.5156 31.0156C31.1719 30.3594 31.5 29.5859 31.5 28.6953C31.5 27.7578 31.1719 26.9375 30.5156 26.2344ZM15.75 33.6875C15.8906 33.6875 16.0078 33.7344 16.1016 33.8281C16.2422 33.9688 16.3125 34.1094 16.3125 34.25C16.3125 34.3906 16.2422 34.5078 16.1016 34.6016C16.0078 34.7422 15.8906 34.8125 15.75 34.8125C14.9531 34.8125 14.2734 34.5312 13.7109 33.9688C13.1953 33.4531 12.9375 32.7969 12.9375 32H14.0625C14.0625 32.4688 14.2266 32.8672 14.5547 33.1953C14.8828 33.5234 15.2812 33.6875 15.75 33.6875Z" fill="black"/>
</svg>
