<svg width="101" height="45" viewBox="0 0 101 45" fill="none" xmlns="http://www.w3.org/2000/svg">
<rect width="101" height="45" fill="#EB5757"/>
<path d="M39.86 16.04H35.84C35.34 16.04 34.94 16.46 34.94 16.96V29.1C34.94 29.6 35.34 30 35.84 30H39.86C44.64 30 46.92 26.38 46.92 23.02C46.92 19.64 44.64 16.04 39.86 16.04ZM39.64 28.3H36.76V17.74H39.64C42.98 17.74 45.12 19.9 45.12 23.02C45.12 26.14 42.98 28.3 39.64 28.3ZM57.2628 27.8C57.1228 27.8 57.0228 27.82 56.9028 27.88C56.1628 28.26 55.4028 28.5 54.2028 28.5C52.0428 28.5 50.9028 27.34 50.7028 25.54H57.4828C58.0428 25.54 58.4028 25.14 58.4028 24.64C58.4028 21.98 56.7228 19.6 53.6428 19.6C50.3228 19.6 48.8628 22.2 48.8628 24.9C48.8628 28.26 50.7828 30.2 54.0428 30.2C55.7828 30.2 56.6628 29.82 57.5428 29.32C57.8228 29.16 58.0628 28.9 58.0628 28.58C58.0628 28.12 57.6828 27.8 57.2628 27.8ZM53.6428 21.14C54.9228 21.14 56.4828 21.98 56.6028 24.06H50.7028C50.8228 21.98 52.3628 21.14 53.6428 21.14ZM61.9291 15.3C61.4291 15.3 61.0291 15.7 61.0291 16.22V29.2C61.0291 29.7 61.4291 30.1 61.9291 30.1C62.4491 30.1 62.8491 29.7 62.8491 29.2V16.22C62.8491 15.7 62.4491 15.3 61.9291 15.3ZM73.962 27.8C73.822 27.8 73.722 27.82 73.602 27.88C72.862 28.26 72.102 28.5 70.902 28.5C68.742 28.5 67.602 27.34 67.402 25.54H74.182C74.742 25.54 75.102 25.14 75.102 24.64C75.102 21.98 73.422 19.6 70.342 19.6C67.022 19.6 65.562 22.2 65.562 24.9C65.562 28.26 67.482 30.2 70.742 30.2C72.482 30.2 73.362 29.82 74.242 29.32C74.522 29.16 74.762 28.9 74.762 28.58C74.762 28.12 74.382 27.8 73.962 27.8ZM70.342 21.14C71.622 21.14 73.182 21.98 73.302 24.06H67.402C67.522 21.98 69.062 21.14 70.342 21.14ZM82.5483 28.42C82.2083 28.42 81.9883 28.6 81.3483 28.6C80.8483 28.6 80.0483 28.58 80.0483 27.4V21.36H82.3083C82.7483 21.36 83.0883 21.02 83.0883 20.58C83.0883 20.14 82.7483 19.8 82.3083 19.8H80.0483V18.2C80.0483 17.98 79.8883 17.8 79.6683 17.8C79.5083 17.8 79.3883 17.92 79.3283 17.98L76.6083 20.64C76.4883 20.74 76.4283 20.86 76.4283 20.98C76.4283 21.2 76.5883 21.36 76.8083 21.36H78.2283V27.56C78.2283 30.04 80.2083 30.2 81.1483 30.2C81.7883 30.2 82.3283 30.06 82.8083 29.84C83.0883 29.7 83.2683 29.48 83.2683 29.14C83.2683 28.72 82.9083 28.42 82.5483 28.42ZM93.0441 27.8C92.9041 27.8 92.8041 27.82 92.6841 27.88C91.9441 28.26 91.1841 28.5 89.9841 28.5C87.8241 28.5 86.6841 27.34 86.4841 25.54H93.2641C93.8241 25.54 94.1841 25.14 94.1841 24.64C94.1841 21.98 92.5041 19.6 89.4241 19.6C86.1041 19.6 84.6441 22.2 84.6441 24.9C84.6441 28.26 86.5641 30.2 89.8241 30.2C91.5641 30.2 92.4441 29.82 93.3241 29.32C93.6041 29.16 93.8441 28.9 93.8441 28.58C93.8441 28.12 93.4641 27.8 93.0441 27.8ZM89.4241 21.14C90.7041 21.14 92.2641 21.98 92.3841 24.06H86.4841C86.6041 21.98 88.1441 21.14 89.4241 21.14Z" fill="white"/>
<path d="M12 15.7812V14.6875C12 14.4271 12.0911 14.2057 12.2734 14.0234C12.4557 13.8411 12.6771 13.75 12.9375 13.75H17.3125L17.6641 13.0078C17.7422 12.8516 17.8594 12.7344 18.0156 12.6562C18.1719 12.5521 18.3411 12.5 18.5234 12.5H22.9766C23.1589 12.5 23.3281 12.5521 23.4844 12.6562C23.6406 12.7344 23.7578 12.8516 23.8359 13.0078L24.1875 13.75H28.5625C28.8229 13.75 29.0443 13.8411 29.2266 14.0234C29.4089 14.2057 29.5 14.4271 29.5 14.6875V15.7812C29.5 15.9115 29.4479 16.0286 29.3438 16.1328C29.2656 16.2109 29.1615 16.25 29.0312 16.25H12.4688C12.3385 16.25 12.2214 16.2109 12.1172 16.1328C12.0391 16.0286 12 15.9115 12 15.7812ZM28.25 17.9688V30.625C28.25 31.1458 28.0677 31.5885 27.7031 31.9531C27.3385 32.3177 26.8958 32.5 26.375 32.5H15.125C14.6042 32.5 14.1615 32.3177 13.7969 31.9531C13.4323 31.5885 13.25 31.1458 13.25 30.625V17.9688C13.25 17.8385 13.2891 17.7344 13.3672 17.6562C13.4714 17.5521 13.5885 17.5 13.7188 17.5H27.7812C27.9115 17.5 28.0156 17.5521 28.0938 17.6562C28.1979 17.7344 28.25 17.8385 28.25 17.9688ZM17.625 20.625C17.625 20.4427 17.5599 20.2995 17.4297 20.1953C17.3255 20.0651 17.1823 20 17 20C16.8177 20 16.6615 20.0651 16.5312 20.1953C16.4271 20.2995 16.375 20.4427 16.375 20.625V29.375C16.375 29.5573 16.4271 29.7135 16.5312 29.8438C16.6615 29.9479 16.8177 30 17 30C17.1823 30 17.3255 29.9479 17.4297 29.8438C17.5599 29.7135 17.625 29.5573 17.625 29.375V20.625ZM21.375 20.625C21.375 20.4427 21.3099 20.2995 21.1797 20.1953C21.0755 20.0651 20.9323 20 20.75 20C20.5677 20 20.4115 20.0651 20.2812 20.1953C20.1771 20.2995 20.125 20.4427 20.125 20.625V29.375C20.125 29.5573 20.1771 29.7135 20.2812 29.8438C20.4115 29.9479 20.5677 30 20.75 30C20.9323 30 21.0755 29.9479 21.1797 29.8438C21.3099 29.7135 21.375 29.5573 21.375 29.375V20.625ZM25.125 20.625C25.125 20.4427 25.0599 20.2995 24.9297 20.1953C24.8255 20.0651 24.6823 20 24.5 20C24.3177 20 24.1615 20.0651 24.0312 20.1953C23.9271 20.2995 23.875 20.4427 23.875 20.625V29.375C23.875 29.5573 23.9271 29.7135 24.0312 29.8438C24.1615 29.9479 24.3177 30 24.5 30C24.6823 30 24.8255 29.9479 24.9297 29.8438C25.0599 29.7135 25.125 29.5573 25.125 29.375V20.625Z" fill="white"/>
</svg>
