<svg width="177" height="41" viewBox="0 0 177 41" fill="none" xmlns="http://www.w3.org/2000/svg">
<rect width="177" height="41" fill="#010101"/>
<path d="M65.9531 13.5781L62.6719 10.2969C62.3073 9.93229 61.8646 9.75 61.3438 9.75H50.875C50.3542 9.75 49.9115 9.93229 49.5469 10.2969C49.1823 10.6615 49 11.1042 49 11.625V25.375C49 25.8958 49.1823 26.3385 49.5469 26.7031C49.9115 27.0677 50.3542 27.25 50.875 27.25H64.625C65.1458 27.25 65.5885 27.0677 65.9531 26.7031C66.3177 26.3385 66.5 25.8958 66.5 25.375V14.9062C66.5 14.3854 66.3177 13.9427 65.9531 13.5781ZM57.75 24.75C57.0469 24.75 56.4479 24.5156 55.9531 24.0469C55.4844 23.5521 55.25 22.9531 55.25 22.25C55.25 21.5469 55.4844 20.9609 55.9531 20.4922C56.4479 19.9974 57.0469 19.75 57.75 19.75C58.4531 19.75 59.0391 19.9974 59.5078 20.4922C60.0026 20.9609 60.25 21.5469 60.25 22.25C60.25 22.9531 60.0026 23.5521 59.5078 24.0469C59.0391 24.5156 58.4531 24.75 57.75 24.75ZM61.5 12.8359V16.7812C61.5 16.9115 61.4479 17.0286 61.3438 17.1328C61.2656 17.2109 61.1615 17.25 61.0312 17.25H51.9688C51.8385 17.25 51.7214 17.2109 51.6172 17.1328C51.5391 17.0286 51.5 16.9115 51.5 16.7812V12.7188C51.5 12.5885 51.5391 12.4844 51.6172 12.4062C51.7214 12.3021 51.8385 12.25 51.9688 12.25H60.9141C61.0182 12.25 61.1224 12.3021 61.2266 12.4062L61.3438 12.5234C61.4479 12.6276 61.5 12.7318 61.5 12.8359Z" fill="#F2F2F2"/>
<path d="M79.34 26.2C77.6467 26.2 76.06 25.88 74.58 25.24C74.42 25.1733 74.2867 25.0667 74.18 24.92C74.0733 24.76 74.02 24.5933 74.02 24.42C74.02 24.1933 74.0933 24 74.24 23.84C74.4 23.6667 74.6 23.58 74.84 23.58C74.9733 23.58 75.1 23.6067 75.22 23.66C76.4467 24.2067 77.76 24.48 79.16 24.48C81.4933 24.48 82.66 23.7133 82.66 22.18C82.66 21.78 82.5067 21.4467 82.2 21.18C81.9067 20.9133 81.54 20.7067 81.1 20.56C80.66 20.4 80.0333 20.2133 79.22 20C78.14 19.72 77.2667 19.4533 76.6 19.2C75.9333 18.9333 75.36 18.54 74.88 18.02C74.4 17.5 74.16 16.8067 74.16 15.94C74.16 15.18 74.36 14.4933 74.76 13.88C75.16 13.2533 75.7467 12.76 76.52 12.4C77.3067 12.0267 78.2467 11.84 79.34 11.84C80.8067 11.84 82.1333 12.06 83.32 12.5C83.6933 12.6333 83.88 12.9 83.88 13.3C83.88 13.5133 83.8067 13.7067 83.66 13.88C83.5133 14.0533 83.32 14.14 83.08 14.14C83 14.14 82.8933 14.1133 82.76 14.06C81.72 13.7 80.6467 13.52 79.54 13.52C78.4867 13.52 77.6267 13.72 76.96 14.12C76.3067 14.52 75.98 15.08 75.98 15.8C75.98 16.28 76.1333 16.6733 76.44 16.98C76.76 17.2733 77.1533 17.5067 77.62 17.68C78.1 17.84 78.7467 18.0133 79.56 18.2C80.6133 18.4533 81.46 18.7067 82.1 18.96C82.7533 19.2133 83.3067 19.6067 83.76 20.14C84.2267 20.6733 84.46 21.3933 84.46 22.3C84.46 23.0467 84.2467 23.72 83.82 24.32C83.3933 24.9067 82.7933 25.3667 82.02 25.7C81.2467 26.0333 80.3533 26.2 79.34 26.2ZM89.5042 26.2C88.9176 26.2 88.3709 26.08 87.8642 25.84C87.3709 25.6 86.9776 25.2533 86.6842 24.8C86.3909 24.3333 86.2442 23.8 86.2442 23.2C86.2442 22.2133 86.6309 21.4267 87.4042 20.84C88.1909 20.2533 89.3376 19.96 90.8442 19.96H93.2642V19.8C93.2642 18.92 93.0442 18.2867 92.6042 17.9C92.1776 17.5133 91.5042 17.32 90.5842 17.32C90.0776 17.32 89.6242 17.36 89.2242 17.44C88.8376 17.52 88.4042 17.64 87.9242 17.8C87.8176 17.8267 87.7309 17.84 87.6642 17.84C87.4642 17.84 87.2909 17.7667 87.1442 17.62C86.9976 17.4733 86.9242 17.2933 86.9242 17.08C86.9242 16.72 87.0976 16.4667 87.4442 16.32C88.5776 15.84 89.7309 15.6 90.9042 15.6C91.8242 15.6 92.5976 15.7867 93.2242 16.16C93.8642 16.5333 94.3309 17.02 94.6242 17.62C94.9309 18.2067 95.0842 18.8467 95.0842 19.54V25.2C95.0842 25.4533 94.9909 25.6667 94.8042 25.84C94.6309 26.0133 94.4176 26.1 94.1642 26.1C93.9109 26.1 93.6976 26.0133 93.5242 25.84C93.3509 25.6667 93.2642 25.4533 93.2642 25.2V24.68C92.2776 25.6933 91.0242 26.2 89.5042 26.2ZM90.1842 24.6C90.7709 24.6 91.3376 24.46 91.8842 24.18C92.4309 23.8867 92.8909 23.5267 93.2642 23.1V21.42H91.0842C89.0709 21.42 88.0642 21.9467 88.0642 23C88.0642 23.48 88.2242 23.8667 88.5442 24.16C88.8776 24.4533 89.4242 24.6 90.1842 24.6ZM101.579 26.1C101.339 26.1 101.119 26.0333 100.919 25.9C100.719 25.7533 100.572 25.5733 100.479 25.36L96.9989 17.04C96.9322 16.88 96.8989 16.74 96.8989 16.62C96.8989 16.3667 96.9856 16.1533 97.1589 15.98C97.3322 15.7933 97.5456 15.7 97.7989 15.7C97.9722 15.7 98.1322 15.7533 98.2789 15.86C98.4389 15.9533 98.5522 16.0733 98.6189 16.22L101.679 23.98L104.739 16.22C104.806 16.0733 104.912 15.9533 105.059 15.86C105.219 15.7533 105.386 15.7 105.559 15.7C105.812 15.7 106.026 15.7933 106.199 15.98C106.372 16.1533 106.459 16.3667 106.459 16.62C106.459 16.74 106.426 16.88 106.359 17.04L102.879 25.36C102.786 25.5733 102.639 25.7533 102.439 25.9C102.239 26.0333 102.019 26.1 101.779 26.1H101.579ZM112.988 26.2C111.361 26.2 110.088 25.74 109.168 24.82C108.261 23.8867 107.808 22.58 107.808 20.9C107.808 19.9533 107.981 19.08 108.328 18.28C108.674 17.48 109.208 16.8333 109.928 16.34C110.648 15.8467 111.534 15.6 112.588 15.6C113.574 15.6 114.428 15.8333 115.148 16.3C115.868 16.7533 116.414 17.3667 116.788 18.14C117.161 18.9 117.348 19.7333 117.348 20.64C117.348 20.8933 117.261 21.1067 117.088 21.28C116.928 21.4533 116.708 21.54 116.428 21.54H109.648C109.754 22.4733 110.101 23.2 110.688 23.72C111.274 24.24 112.094 24.5 113.148 24.5C113.708 24.5 114.194 24.4467 114.608 24.34C115.034 24.2333 115.448 24.08 115.848 23.88C115.954 23.8267 116.074 23.8 116.208 23.8C116.421 23.8 116.608 23.8733 116.768 24.02C116.928 24.1667 117.008 24.3533 117.008 24.58C117.008 24.8733 116.834 25.12 116.488 25.32C115.968 25.6133 115.454 25.8333 114.948 25.98C114.441 26.1267 113.788 26.2 112.988 26.2ZM115.548 20.06C115.508 19.4067 115.334 18.86 115.028 18.42C114.734 17.98 114.368 17.66 113.928 17.46C113.488 17.2467 113.041 17.14 112.588 17.14C112.134 17.14 111.688 17.2467 111.248 17.46C110.808 17.66 110.441 17.98 110.148 18.42C109.854 18.86 109.688 19.4067 109.648 20.06H115.548Z" fill="#F2F2F2"/>
</svg>
