<svg width="177" height="41" viewBox="0 0 177 41" fill="none" xmlns="http://www.w3.org/2000/svg">
<rect width="177" height="41" fill="#EB5757"/>
<path d="M58.6172 27.7266L60.7266 25.6172C60.9089 25.4349 61 25.2135 61 24.9531C61 24.6927 60.9089 24.4714 60.7266 24.2891L56.9375 20.5L60.7266 16.7109C60.9089 16.5286 61 16.3073 61 16.0469C61 15.7865 60.9089 15.5651 60.7266 15.3828L58.6172 13.2734C58.4349 13.0911 58.2135 13 57.9531 13C57.6927 13 57.4714 13.0911 57.2891 13.2734L53.5 17.0625L49.7109 13.2734C49.5286 13.0911 49.3073 13 49.0469 13C48.7865 13 48.5651 13.0911 48.3828 13.2734L46.2734 15.3828C46.0911 15.5651 46 15.7865 46 16.0469C46 16.3073 46.0911 16.5286 46.2734 16.7109L50.0625 20.5L46.2734 24.2891C46.0911 24.4714 46 24.6927 46 24.9531C46 25.2135 46.0911 25.4349 46.2734 25.6172L48.3828 27.7266C48.5651 27.9089 48.7865 28 49.0469 28C49.3073 28 49.5286 27.9089 49.7109 27.7266L53.5 23.9375L57.2891 27.7266C57.4714 27.9089 57.6927 28 57.9531 28C58.2135 28 58.4349 27.9089 58.6172 27.7266Z" fill="#F2F2F2"/>
<path d="M76.1 26.2C74.7667 26.2 73.5667 25.9133 72.5 25.34C71.4467 24.7533 70.6133 23.92 70 22.84C69.4 21.7467 69.1 20.4733 69.1 19.02C69.1 17.5667 69.4 16.3 70 15.22C70.6133 14.1267 71.4467 13.2933 72.5 12.72C73.5667 12.1333 74.7667 11.84 76.1 11.84C77.0067 11.84 77.8133 11.9467 78.52 12.16C79.24 12.3733 79.9533 12.68 80.66 13.08C80.9533 13.24 81.1 13.4933 81.1 13.84C81.1 14.04 81.0267 14.22 80.88 14.38C80.7333 14.5267 80.54 14.6 80.3 14.6C80.1667 14.6 80.0467 14.5733 79.94 14.52C79.3533 14.2133 78.78 13.98 78.22 13.82C77.66 13.66 77.0133 13.58 76.28 13.58C75.1333 13.58 74.1533 13.82 73.34 14.3C72.54 14.7667 71.9333 15.4133 71.52 16.24C71.12 17.0533 70.92 17.98 70.92 19.02C70.92 20.06 71.12 20.9933 71.52 21.82C71.9333 22.6333 72.54 23.28 73.34 23.76C74.1533 24.2267 75.1333 24.46 76.28 24.46C77.0133 24.46 77.66 24.38 78.22 24.22C78.78 24.06 79.3533 23.8267 79.94 23.52C80.0467 23.4667 80.1667 23.44 80.3 23.44C80.54 23.44 80.7333 23.5133 80.88 23.66C81.0267 23.8067 81.1 23.9867 81.1 24.2C81.1 24.5467 80.9533 24.8 80.66 24.96C79.9533 25.36 79.24 25.6667 78.52 25.88C77.8133 26.0933 77.0067 26.2 76.1 26.2ZM86.0863 26.2C85.4996 26.2 84.9529 26.08 84.4463 25.84C83.9529 25.6 83.5596 25.2533 83.2663 24.8C82.9729 24.3333 82.8263 23.8 82.8263 23.2C82.8263 22.2133 83.2129 21.4267 83.9863 20.84C84.7729 20.2533 85.9196 19.96 87.4262 19.96H89.8463V19.8C89.8463 18.92 89.6263 18.2867 89.1862 17.9C88.7596 17.5133 88.0862 17.32 87.1663 17.32C86.6596 17.32 86.2062 17.36 85.8062 17.44C85.4196 17.52 84.9862 17.64 84.5062 17.8C84.3996 17.8267 84.3129 17.84 84.2462 17.84C84.0462 17.84 83.8729 17.7667 83.7262 17.62C83.5796 17.4733 83.5062 17.2933 83.5062 17.08C83.5062 16.72 83.6796 16.4667 84.0262 16.32C85.1596 15.84 86.3129 15.6 87.4863 15.6C88.4062 15.6 89.1796 15.7867 89.8063 16.16C90.4462 16.5333 90.9129 17.02 91.2063 17.62C91.5129 18.2067 91.6663 18.8467 91.6663 19.54V25.2C91.6663 25.4533 91.5729 25.6667 91.3863 25.84C91.2129 26.0133 90.9996 26.1 90.7463 26.1C90.4929 26.1 90.2796 26.0133 90.1062 25.84C89.9329 25.6667 89.8463 25.4533 89.8463 25.2V24.68C88.8596 25.6933 87.6063 26.2 86.0863 26.2ZM86.7663 24.6C87.3529 24.6 87.9196 24.46 88.4663 24.18C89.0129 23.8867 89.4729 23.5267 89.8463 23.1V21.42H87.6662C85.6529 21.42 84.6462 21.9467 84.6462 23C84.6462 23.48 84.8062 23.8667 85.1262 24.16C85.4596 24.4533 86.0063 24.6 86.7663 24.6ZM95.6167 26.1C95.3634 26.1 95.1501 26.0133 94.9767 25.84C94.8034 25.6667 94.7167 25.4533 94.7167 25.2V16.62C94.7167 16.3667 94.8034 16.1533 94.9767 15.98C95.1501 15.7933 95.3634 15.7 95.6167 15.7C95.8701 15.7 96.0834 15.7933 96.2567 15.98C96.4434 16.1533 96.5367 16.3667 96.5367 16.62V17.44C97.0434 16.88 97.5901 16.4333 98.1767 16.1C98.7634 15.7667 99.4567 15.6 100.257 15.6C100.99 15.6 101.623 15.7733 102.157 16.12C102.703 16.4667 103.117 16.94 103.397 17.54C103.69 18.14 103.837 18.8 103.837 19.52V25.2C103.837 25.4533 103.743 25.6667 103.557 25.84C103.383 26.0133 103.17 26.1 102.917 26.1C102.663 26.1 102.45 26.0133 102.277 25.84C102.103 25.6667 102.017 25.4533 102.017 25.2V19.72C102.017 18.0933 101.283 17.28 99.8167 17.28C99.1501 17.28 98.5501 17.4533 98.0167 17.8C97.4967 18.1467 97.0034 18.6133 96.5367 19.2V25.2C96.5367 25.4533 96.4434 25.6667 96.2567 25.84C96.0834 26.0133 95.8701 26.1 95.6167 26.1ZM111.624 26.2C110.664 26.2 109.778 25.9867 108.964 25.56C108.151 25.1333 107.498 24.52 107.004 23.72C106.524 22.92 106.284 21.98 106.284 20.9C106.284 19.82 106.524 18.88 107.004 18.08C107.498 17.28 108.151 16.6667 108.964 16.24C109.778 15.8133 110.664 15.6 111.624 15.6C112.331 15.6 112.938 15.6933 113.444 15.88C113.964 16.0533 114.444 16.28 114.884 16.56C115.151 16.7333 115.284 16.9667 115.284 17.26C115.284 17.46 115.204 17.6467 115.044 17.82C114.898 17.98 114.724 18.06 114.524 18.06C114.378 18.06 114.231 18.02 114.084 17.94C113.644 17.7133 113.264 17.5533 112.944 17.46C112.638 17.3533 112.251 17.3 111.784 17.3C110.638 17.3 109.738 17.6333 109.084 18.3C108.431 18.9533 108.104 19.82 108.104 20.9C108.104 21.98 108.431 22.8533 109.084 23.52C109.738 24.1733 110.638 24.5 111.784 24.5C112.251 24.5 112.638 24.4533 112.944 24.36C113.264 24.2533 113.644 24.0867 114.084 23.86C114.231 23.78 114.378 23.74 114.524 23.74C114.724 23.74 114.898 23.8267 115.044 24C115.204 24.16 115.284 24.34 115.284 24.54C115.284 24.8333 115.151 25.0667 114.884 25.24C114.444 25.52 113.964 25.7533 113.444 25.94C112.938 26.1133 112.331 26.2 111.624 26.2ZM122.05 26.2C120.423 26.2 119.15 25.74 118.23 24.82C117.323 23.8867 116.87 22.58 116.87 20.9C116.87 19.9533 117.043 19.08 117.39 18.28C117.737 17.48 118.27 16.8333 118.99 16.34C119.71 15.8467 120.597 15.6 121.65 15.6C122.637 15.6 123.49 15.8333 124.21 16.3C124.93 16.7533 125.477 17.3667 125.85 18.14C126.223 18.9 126.41 19.7333 126.41 20.64C126.41 20.8933 126.323 21.1067 126.15 21.28C125.99 21.4533 125.77 21.54 125.49 21.54H118.71C118.817 22.4733 119.163 23.2 119.75 23.72C120.337 24.24 121.157 24.5 122.21 24.5C122.77 24.5 123.257 24.4467 123.67 24.34C124.097 24.2333 124.51 24.08 124.91 23.88C125.017 23.8267 125.137 23.8 125.27 23.8C125.483 23.8 125.67 23.8733 125.83 24.02C125.99 24.1667 126.07 24.3533 126.07 24.58C126.07 24.8733 125.897 25.12 125.55 25.32C125.03 25.6133 124.517 25.8333 124.01 25.98C123.503 26.1267 122.85 26.2 122.05 26.2ZM124.61 20.06C124.57 19.4067 124.397 18.86 124.09 18.42C123.797 17.98 123.43 17.66 122.99 17.46C122.55 17.2467 122.103 17.14 121.65 17.14C121.197 17.14 120.75 17.2467 120.31 17.46C119.87 17.66 119.503 17.98 119.21 18.42C118.917 18.86 118.75 19.4067 118.71 20.06H124.61ZM129.718 26.1C129.465 26.1 129.252 26.0133 129.078 25.84C128.905 25.6667 128.818 25.4533 128.818 25.2V12.22C128.818 11.9667 128.905 11.7533 129.078 11.58C129.252 11.3933 129.465 11.3 129.718 11.3C129.985 11.3 130.205 11.3867 130.378 11.56C130.552 11.7333 130.638 11.9533 130.638 12.22V25.2C130.638 25.4533 130.545 25.6667 130.358 25.84C130.185 26.0133 129.972 26.1 129.718 26.1Z" fill="#F2F2F2"/>
</svg>
