<svg width="64" height="56" viewBox="0 0 64 56" fill="none" xmlns="http://www.w3.org/2000/svg">
<path d="M64 14V50C64 51.6667 63.4167 53.0833 62.25 54.25C61.0833 55.4167 59.6667 56 58 56H6C4.33333 56 2.91667 55.4167 1.75 54.25C0.583333 53.0833 0 51.6667 0 50V14C0 12.3333 0.583333 10.9167 1.75 9.75C2.91667 8.58333 4.33333 8 6 8H17L18.5 3.875C19 2.70833 19.75 1.79167 20.75 1.125C21.75 0.375 22.875 0 24.125 0H39.875C41.125 0 42.25 0.375 43.25 1.125C44.25 1.79167 45 2.70833 45.5 3.875L47 8H58C59.6667 8 61.0833 8.58333 62.25 9.75C63.4167 10.9167 64 12.3333 64 14ZM47 32C47 29.25 46.3333 26.75 45 24.5C43.6667 22.1667 41.8333 20.3333 39.5 19C37.25 17.6667 34.75 17 32 17C29.25 17 26.7083 17.6667 24.375 19C22.125 20.3333 20.3333 22.1667 19 24.5C17.6667 26.75 17 29.25 17 32C17 34.75 17.6667 37.2917 19 39.625C20.3333 41.875 22.125 43.6667 24.375 45C26.7083 46.3333 29.25 47 32 47C34.75 47 37.25 46.3333 39.5 45C41.8333 43.6667 43.6667 41.875 45 39.625C46.3333 37.2917 47 34.75 47 32ZM43 32C43 35 41.9167 37.5833 39.75 39.75C37.5833 41.9167 35 43 32 43C29 43 26.4167 41.9167 24.25 39.75C22.0833 37.5833 21 35 21 32C21 29 22.0833 26.4167 24.25 24.25C26.4167 22.0833 29 21 32 21C35 21 37.5833 22.0833 39.75 24.25C41.9167 26.4167 43 29 43 32Z" fill="black"/>
</svg>
