<svg width="272" height="77" viewBox="0 0 272 77" fill="none" xmlns="http://www.w3.org/2000/svg">
<rect width="272" height="77" rx="15" fill="#030303"/>
<path d="M22.58 50.36C20.18 50.36 18.02 49.844 16.1 48.812C14.204 47.756 12.704 46.256 11.6 44.312C10.52 42.344 9.98 40.052 9.98 37.436C9.98 34.82 10.52 32.54 11.6 30.596C12.704 28.628 14.204 27.128 16.1 26.096C18.02 25.04 20.18 24.512 22.58 24.512C24.212 24.512 25.664 24.704 26.936 25.088C28.232 25.472 29.516 26.024 30.788 26.744C31.316 27.032 31.58 27.488 31.58 28.112C31.58 28.472 31.448 28.796 31.184 29.084C30.92 29.348 30.572 29.48 30.14 29.48C29.9 29.48 29.684 29.432 29.492 29.336C28.436 28.784 27.404 28.364 26.396 28.076C25.388 27.788 24.224 27.644 22.904 27.644C20.84 27.644 19.076 28.076 17.612 28.94C16.172 29.78 15.08 30.944 14.336 32.432C13.616 33.896 13.256 35.564 13.256 37.436C13.256 39.308 13.616 40.988 14.336 42.476C15.08 43.94 16.172 45.104 17.612 45.968C19.076 46.808 20.84 47.228 22.904 47.228C24.224 47.228 25.388 47.084 26.396 46.796C27.404 46.508 28.436 46.088 29.492 45.536C29.684 45.44 29.9 45.392 30.14 45.392C30.572 45.392 30.92 45.524 31.184 45.788C31.448 46.052 31.58 46.376 31.58 46.76C31.58 47.384 31.316 47.84 30.788 48.128C29.516 48.848 28.232 49.4 26.936 49.784C25.664 50.168 24.212 50.36 22.58 50.36ZM37.4952 50.18C37.0392 50.18 36.6552 50.024 36.3433 49.712C36.0313 49.4 35.8753 49.016 35.8753 48.56V25.196C35.8753 24.74 36.0313 24.356 36.3433 24.044C36.6552 23.708 37.0392 23.54 37.4952 23.54C37.9513 23.54 38.3353 23.708 38.6473 24.044C38.9833 24.356 39.1513 24.74 39.1513 25.196V34.592C40.0633 33.584 41.0473 32.78 42.1033 32.18C43.1593 31.58 44.4073 31.28 45.8473 31.28C47.1673 31.28 48.3073 31.592 49.2673 32.216C50.2513 32.84 50.9953 33.692 51.4993 34.772C52.0273 35.852 52.2913 37.04 52.2913 38.336V48.56C52.2913 49.016 52.1233 49.4 51.7873 49.712C51.4753 50.024 51.0913 50.18 50.6352 50.18C50.1792 50.18 49.7952 50.024 49.4832 49.712C49.1712 49.4 49.0153 49.016 49.0153 48.56V38.696C49.0153 35.768 47.6953 34.304 45.0552 34.304C43.8553 34.304 42.7753 34.616 41.8153 35.24C40.8792 35.864 39.9912 36.704 39.1513 37.76V48.56C39.1513 49.016 38.9833 49.4 38.6473 49.712C38.3353 50.024 37.9513 50.18 37.4952 50.18ZM66.0208 50.36C63.0928 50.36 60.8008 49.532 59.1447 47.876C57.5127 46.196 56.6968 43.844 56.6968 40.82C56.6968 39.116 57.0088 37.544 57.6328 36.104C58.2568 34.664 59.2168 33.5 60.5127 32.612C61.8088 31.724 63.4048 31.28 65.3008 31.28C67.0768 31.28 68.6127 31.7 69.9087 32.54C71.2048 33.356 72.1888 34.46 72.8608 35.852C73.5327 37.22 73.8687 38.72 73.8687 40.352C73.8687 40.808 73.7127 41.192 73.4008 41.504C73.1128 41.816 72.7168 41.972 72.2128 41.972H60.0088C60.2008 43.652 60.8248 44.96 61.8808 45.896C62.9368 46.832 64.4128 47.3 66.3087 47.3C67.3167 47.3 68.1927 47.204 68.9368 47.012C69.7047 46.82 70.4487 46.544 71.1687 46.184C71.3607 46.088 71.5768 46.04 71.8167 46.04C72.2007 46.04 72.5367 46.172 72.8247 46.436C73.1128 46.7 73.2568 47.036 73.2568 47.444C73.2568 47.972 72.9448 48.416 72.3207 48.776C71.3847 49.304 70.4607 49.7 69.5488 49.964C68.6368 50.228 67.4608 50.36 66.0208 50.36ZM70.6288 39.308C70.5568 38.132 70.2448 37.148 69.6928 36.356C69.1647 35.564 68.5047 34.988 67.7128 34.628C66.9208 34.244 66.1168 34.052 65.3008 34.052C64.4847 34.052 63.6807 34.244 62.8887 34.628C62.0968 34.988 61.4368 35.564 60.9088 36.356C60.3808 37.148 60.0808 38.132 60.0088 39.308H70.6288ZM86.6994 50.36C84.9714 50.36 83.3754 49.976 81.9114 49.208C80.4474 48.44 79.2714 47.336 78.3834 45.896C77.5194 44.456 77.0874 42.764 77.0874 40.82C77.0874 38.876 77.5194 37.184 78.3834 35.744C79.2714 34.304 80.4474 33.2 81.9114 32.432C83.3754 31.664 84.9714 31.28 86.6994 31.28C87.9714 31.28 89.0634 31.448 89.9754 31.784C90.9114 32.096 91.7754 32.504 92.5674 33.008C93.0474 33.32 93.2874 33.74 93.2874 34.268C93.2874 34.628 93.1434 34.964 92.8554 35.276C92.5914 35.564 92.2794 35.708 91.9194 35.708C91.6554 35.708 91.3914 35.636 91.1274 35.492C90.3354 35.084 89.6514 34.796 89.0754 34.628C88.5234 34.436 87.8274 34.34 86.9874 34.34C84.9234 34.34 83.3034 34.94 82.1274 36.14C80.9514 37.316 80.3634 38.876 80.3634 40.82C80.3634 42.764 80.9514 44.336 82.1274 45.536C83.3034 46.712 84.9234 47.3 86.9874 47.3C87.8274 47.3 88.5234 47.216 89.0754 47.048C89.6514 46.856 90.3354 46.556 91.1274 46.148C91.3914 46.004 91.6554 45.932 91.9194 45.932C92.2794 45.932 92.5914 46.088 92.8554 46.4C93.1434 46.688 93.2874 47.012 93.2874 47.372C93.2874 47.9 93.0474 48.32 92.5674 48.632C91.7754 49.136 90.9114 49.556 89.9754 49.892C89.0634 50.204 87.9714 50.36 86.6994 50.36ZM99.0187 50.18C98.5627 50.18 98.1787 50.024 97.8667 49.712C97.5547 49.4 97.3987 49.016 97.3987 48.56V25.196C97.3987 24.74 97.5547 24.356 97.8667 24.044C98.1787 23.708 98.5627 23.54 99.0187 23.54C99.4747 23.54 99.8587 23.708 100.171 24.044C100.507 24.356 100.675 24.74 100.675 25.196V39.92L109.243 32C109.603 31.688 109.963 31.532 110.323 31.532C110.875 31.532 111.271 31.688 111.511 32C111.775 32.312 111.907 32.684 111.907 33.116C111.907 33.524 111.703 33.932 111.295 34.34L106.111 38.984L112.627 47.624C112.867 47.936 112.987 48.26 112.987 48.596C112.987 49.076 112.831 49.46 112.519 49.748C112.207 50.036 111.811 50.18 111.331 50.18C111.091 50.18 110.851 50.12 110.611 50C110.371 49.88 110.167 49.712 109.999 49.496L103.807 41.072L100.675 43.916V48.56C100.675 49.016 100.507 49.4 100.171 49.712C99.8587 50.024 99.4747 50.18 99.0187 50.18ZM131.047 50.36C129.991 50.36 129.007 50.144 128.095 49.712C127.207 49.28 126.499 48.656 125.971 47.84C125.443 47 125.179 46.04 125.179 44.96C125.179 43.184 125.875 41.768 127.267 40.712C128.683 39.656 130.747 39.128 133.459 39.128H137.815V38.84C137.815 37.256 137.419 36.116 136.627 35.42C135.859 34.724 134.647 34.376 132.991 34.376C132.079 34.376 131.263 34.448 130.543 34.592C129.847 34.736 129.067 34.952 128.203 35.24C128.011 35.288 127.855 35.312 127.735 35.312C127.375 35.312 127.063 35.18 126.799 34.916C126.535 34.652 126.403 34.328 126.403 33.944C126.403 33.296 126.715 32.84 127.339 32.576C129.379 31.712 131.455 31.28 133.567 31.28C135.223 31.28 136.615 31.616 137.743 32.288C138.895 32.96 139.735 33.836 140.263 34.916C140.815 35.972 141.091 37.124 141.091 38.372V48.56C141.091 49.016 140.923 49.4 140.587 49.712C140.275 50.024 139.891 50.18 139.435 50.18C138.979 50.18 138.595 50.024 138.283 49.712C137.971 49.4 137.815 49.016 137.815 48.56V47.624C136.039 49.448 133.783 50.36 131.047 50.36ZM132.271 47.48C133.327 47.48 134.347 47.228 135.331 46.724C136.315 46.196 137.143 45.548 137.815 44.78V41.756H133.891C130.267 41.756 128.455 42.704 128.455 44.6C128.455 45.464 128.743 46.16 129.319 46.688C129.919 47.216 130.903 47.48 132.271 47.48ZM148.202 50.18C147.746 50.18 147.362 50.024 147.05 49.712C146.738 49.4 146.582 49.016 146.582 48.56V33.116C146.582 32.66 146.738 32.276 147.05 31.964C147.362 31.628 147.746 31.46 148.202 31.46C148.658 31.46 149.042 31.628 149.354 31.964C149.69 32.276 149.858 32.66 149.858 33.116V34.592C150.77 33.584 151.754 32.78 152.81 32.18C153.866 31.58 155.114 31.28 156.554 31.28C157.874 31.28 159.014 31.592 159.974 32.216C160.958 32.84 161.702 33.692 162.206 34.772C162.734 35.852 162.998 37.04 162.998 38.336V48.56C162.998 49.016 162.83 49.4 162.494 49.712C162.182 50.024 161.798 50.18 161.342 50.18C160.886 50.18 160.502 50.024 160.19 49.712C159.878 49.4 159.722 49.016 159.722 48.56V38.696C159.722 35.768 158.402 34.304 155.762 34.304C154.562 34.304 153.482 34.616 152.522 35.24C151.586 35.864 150.698 36.704 149.858 37.76V48.56C149.858 49.016 149.69 49.4 149.354 49.712C149.042 50.024 148.658 50.18 148.202 50.18ZM174.46 50.36C172.06 50.36 169.876 49.82 167.908 48.74C167.5 48.452 167.296 48.056 167.296 47.552C167.296 47.168 167.428 46.832 167.692 46.544C167.956 46.256 168.292 46.112 168.7 46.112C168.916 46.112 169.132 46.16 169.348 46.256C170.116 46.592 170.884 46.856 171.652 47.048C172.42 47.24 173.284 47.336 174.244 47.336C176.908 47.336 178.24 46.484 178.24 44.78C178.24 44.228 177.928 43.808 177.304 43.52C176.704 43.232 175.708 42.908 174.316 42.548C172.9 42.212 171.724 41.864 170.788 41.504C169.876 41.144 169.084 40.604 168.412 39.884C167.764 39.14 167.44 38.168 167.44 36.968C167.44 35.288 168.04 33.92 169.24 32.864C170.464 31.808 172.204 31.28 174.46 31.28C176.308 31.28 178.048 31.58 179.68 32.18C180.016 32.276 180.268 32.456 180.436 32.72C180.628 32.984 180.724 33.26 180.724 33.548C180.724 33.932 180.58 34.268 180.292 34.556C180.028 34.844 179.692 34.988 179.284 34.988C179.164 34.988 179.008 34.964 178.816 34.916C177.424 34.484 176.056 34.268 174.712 34.268C173.416 34.268 172.396 34.508 171.652 34.988C170.932 35.444 170.572 36.044 170.572 36.788C170.572 37.508 170.908 38.036 171.58 38.372C172.252 38.708 173.296 39.032 174.712 39.344C176.128 39.704 177.28 40.064 178.168 40.424C179.056 40.76 179.812 41.3 180.436 42.044C181.084 42.788 181.408 43.784 181.408 45.032C181.408 46.568 180.796 47.84 179.572 48.848C178.372 49.856 176.668 50.36 174.46 50.36ZM191.148 50.18C190.668 50.18 190.236 50.036 189.852 49.748C189.468 49.46 189.204 49.1 189.06 48.668L183.948 33.692C183.876 33.476 183.84 33.272 183.84 33.08C183.84 32.624 183.996 32.24 184.308 31.928C184.62 31.616 185.004 31.46 185.46 31.46C185.796 31.46 186.096 31.556 186.36 31.748C186.648 31.916 186.84 32.144 186.936 32.432L191.148 46.292L195.324 32.756C195.444 32.372 195.66 32.06 195.972 31.82C196.308 31.58 196.68 31.46 197.088 31.46C197.496 31.46 197.856 31.58 198.168 31.82C198.504 32.06 198.732 32.372 198.852 32.756L203.028 46.292L207.24 32.432C207.336 32.144 207.516 31.916 207.78 31.748C208.068 31.556 208.38 31.46 208.716 31.46C209.172 31.46 209.556 31.616 209.868 31.928C210.18 32.24 210.336 32.624 210.336 33.08C210.336 33.272 210.3 33.476 210.228 33.692L205.116 48.668C204.972 49.1 204.708 49.46 204.324 49.748C203.94 50.036 203.508 50.18 203.028 50.18C202.548 50.18 202.116 50.036 201.732 49.748C201.348 49.46 201.072 49.088 200.904 48.632L197.088 36.716L193.272 48.632C193.104 49.088 192.828 49.46 192.444 49.748C192.06 50.036 191.628 50.18 191.148 50.18ZM222.15 50.36C219.222 50.36 216.93 49.532 215.274 47.876C213.642 46.196 212.826 43.844 212.826 40.82C212.826 39.116 213.138 37.544 213.762 36.104C214.386 34.664 215.346 33.5 216.642 32.612C217.938 31.724 219.534 31.28 221.43 31.28C223.206 31.28 224.742 31.7 226.038 32.54C227.334 33.356 228.318 34.46 228.99 35.852C229.662 37.22 229.998 38.72 229.998 40.352C229.998 40.808 229.842 41.192 229.53 41.504C229.242 41.816 228.846 41.972 228.342 41.972H216.138C216.33 43.652 216.954 44.96 218.01 45.896C219.066 46.832 220.542 47.3 222.438 47.3C223.446 47.3 224.322 47.204 225.066 47.012C225.834 46.82 226.578 46.544 227.298 46.184C227.49 46.088 227.706 46.04 227.946 46.04C228.33 46.04 228.666 46.172 228.954 46.436C229.242 46.7 229.386 47.036 229.386 47.444C229.386 47.972 229.074 48.416 228.45 48.776C227.514 49.304 226.59 49.7 225.678 49.964C224.766 50.228 223.59 50.36 222.15 50.36ZM226.758 39.308C226.686 38.132 226.374 37.148 225.822 36.356C225.294 35.564 224.634 34.988 223.842 34.628C223.05 34.244 222.246 34.052 221.43 34.052C220.614 34.052 219.81 34.244 219.018 34.628C218.226 34.988 217.566 35.564 217.038 36.356C216.51 37.148 216.21 38.132 216.138 39.308H226.758ZM235.952 50.18C235.496 50.18 235.112 50.024 234.8 49.712C234.488 49.4 234.332 49.016 234.332 48.56V33.116C234.332 32.66 234.488 32.276 234.8 31.964C235.112 31.628 235.496 31.46 235.952 31.46C236.408 31.46 236.792 31.628 237.104 31.964C237.44 32.276 237.608 32.66 237.608 33.116V34.664C239.288 32.408 241.172 31.28 243.26 31.28H243.44C243.896 31.28 244.268 31.436 244.556 31.748C244.868 32.06 245.024 32.444 245.024 32.9C245.024 33.356 244.868 33.728 244.556 34.016C244.244 34.304 243.848 34.448 243.368 34.448H243.188C242.036 34.448 240.98 34.736 240.02 35.312C239.06 35.864 238.256 36.632 237.608 37.616V48.56C237.608 49.016 237.44 49.4 237.104 49.712C236.792 50.024 236.408 50.18 235.952 50.18ZM254.054 50.36C251.654 50.36 249.47 49.82 247.502 48.74C247.094 48.452 246.89 48.056 246.89 47.552C246.89 47.168 247.022 46.832 247.286 46.544C247.55 46.256 247.886 46.112 248.294 46.112C248.51 46.112 248.726 46.16 248.942 46.256C249.71 46.592 250.478 46.856 251.246 47.048C252.014 47.24 252.878 47.336 253.838 47.336C256.502 47.336 257.834 46.484 257.834 44.78C257.834 44.228 257.522 43.808 256.898 43.52C256.298 43.232 255.302 42.908 253.91 42.548C252.494 42.212 251.318 41.864 250.382 41.504C249.47 41.144 248.678 40.604 248.006 39.884C247.358 39.14 247.034 38.168 247.034 36.968C247.034 35.288 247.634 33.92 248.834 32.864C250.058 31.808 251.798 31.28 254.054 31.28C255.902 31.28 257.642 31.58 259.274 32.18C259.61 32.276 259.862 32.456 260.03 32.72C260.222 32.984 260.318 33.26 260.318 33.548C260.318 33.932 260.174 34.268 259.886 34.556C259.622 34.844 259.286 34.988 258.878 34.988C258.758 34.988 258.602 34.964 258.41 34.916C257.018 34.484 255.65 34.268 254.306 34.268C253.01 34.268 251.99 34.508 251.246 34.988C250.526 35.444 250.166 36.044 250.166 36.788C250.166 37.508 250.502 38.036 251.174 38.372C251.846 38.708 252.89 39.032 254.306 39.344C255.722 39.704 256.874 40.064 257.762 40.424C258.65 40.76 259.406 41.3 260.03 42.044C260.678 42.788 261.002 43.784 261.002 45.032C261.002 46.568 260.39 47.84 259.166 48.848C257.966 49.856 256.262 50.36 254.054 50.36Z" fill="white"/>
</svg>
