<svg width="140" height="140" viewBox="0 0 140 140" fill="none" xmlns="http://www.w3.org/2000/svg">
<path d="M139.75 70C139.75 82.5625 136.562 94.1875 130.188 104.875C124 115.562 115.562 124 104.875 130.188C94.1875 136.562 82.5625 139.75 70 139.75C57.4375 139.75 45.8125 136.562 35.125 130.188C24.4375 124 15.9062 115.562 9.53125 104.875C3.34375 94.1875 0.25 82.5625 0.25 70C0.25 57.4375 3.34375 45.8125 9.53125 35.125C15.9062 24.4375 24.4375 16 35.125 9.8125C45.8125 3.4375 57.4375 0.25 70 0.25C82.5625 0.25 94.1875 3.4375 104.875 9.8125C115.562 16 124 24.4375 130.188 35.125C136.562 45.8125 139.75 57.4375 139.75 70ZM61.8438 106.844L113.594 55.0938C114.531 54.3438 115 53.3125 115 52C115 50.6875 114.531 49.6563 113.594 48.9062L107.406 42.4375C106.469 41.5 105.344 41.0312 104.031 41.0312C102.906 41.0312 101.875 41.5 100.938 42.4375L58.75 84.625L39.0625 64.9375C38.125 64 37 63.5312 35.6875 63.5312C34.5625 63.5312 33.5312 64 32.5938 64.9375L26.4062 71.4062C25.4688 72.1562 25 73.1875 25 74.5C25 75.8125 25.4688 76.8438 26.4062 77.5938L55.6562 106.844C56.4062 107.781 57.4375 108.25 58.75 108.25C60.0625 108.25 61.0938 107.781 61.8438 106.844Z" fill="#6FCF97"/>
</svg>
