<svg width="227" height="227" viewBox="0 0 227 227" fill="none" xmlns="http://www.w3.org/2000/svg">
<g filter="url(#filter0_d)">
<rect x="7" y="7" width="213" height="213" rx="15" fill="#C4C4C4"/>
</g>
<path d="M146 97V133C146 134.667 145.417 136.083 144.25 137.25C143.083 138.417 141.667 139 140 139H88C86.3333 139 84.9167 138.417 83.75 137.25C82.5833 136.083 82 134.667 82 133V97C82 95.3333 82.5833 93.9167 83.75 92.75C84.9167 91.5833 86.3333 91 88 91H99L100.5 86.875C101 85.7083 101.75 84.7917 102.75 84.125C103.75 83.375 104.875 83 106.125 83H121.875C123.125 83 124.25 83.375 125.25 84.125C126.25 84.7917 127 85.7083 127.5 86.875L129 91H140C141.667 91 143.083 91.5833 144.25 92.75C145.417 93.9167 146 95.3333 146 97ZM129 115C129 112.25 128.333 109.75 127 107.5C125.667 105.167 123.833 103.333 121.5 102C119.25 100.667 116.75 100 114 100C111.25 100 108.708 100.667 106.375 102C104.125 103.333 102.333 105.167 101 107.5C99.6667 109.75 99 112.25 99 115C99 117.75 99.6667 120.292 101 122.625C102.333 124.875 104.125 126.667 106.375 128C108.708 129.333 111.25 130 114 130C116.75 130 119.25 129.333 121.5 128C123.833 126.667 125.667 124.875 127 122.625C128.333 120.292 129 117.75 129 115ZM125 115C125 118 123.917 120.583 121.75 122.75C119.583 124.917 117 126 114 126C111 126 108.417 124.917 106.25 122.75C104.083 120.583 103 118 103 115C103 112 104.083 109.417 106.25 107.25C108.417 105.083 111 104 114 104C117 104 119.583 105.083 121.75 107.25C123.917 109.417 125 112 125 115Z" fill="black"/>
<path d="M62.776 165.592C62.721 165.592 62.644 165.603 62.578 165.636C61.995 165.944 61.423 166.153 60.565 166.153C58.618 166.153 57.617 164.855 57.617 163.161C57.617 161.467 58.618 160.169 60.565 160.169C61.423 160.169 61.995 160.378 62.578 160.686C62.644 160.719 62.721 160.73 62.776 160.73C63.051 160.73 63.227 160.521 63.216 160.29C63.205 160.081 63.117 159.971 62.974 159.894C62.292 159.509 61.544 159.212 60.466 159.212C58.277 159.212 56.616 160.708 56.616 163.161C56.616 165.614 58.277 167.11 60.466 167.11C61.544 167.11 62.292 166.813 62.974 166.428C63.117 166.351 63.205 166.241 63.216 166.032C63.227 165.801 63.051 165.592 62.776 165.592ZM65.1327 158.915C64.8577 158.915 64.6377 159.135 64.6377 159.421V166.56C64.6377 166.835 64.8577 167.055 65.1327 167.055C65.4187 167.055 65.6387 166.835 65.6387 166.56V159.421C65.6387 159.135 65.4187 158.915 65.1327 158.915ZM67.9998 161.335C67.7248 161.335 67.5048 161.555 67.5048 161.841V166.56C67.5048 166.835 67.7248 167.055 67.9998 167.055C68.2858 167.055 68.5058 166.835 68.5058 166.56V161.841C68.5058 161.555 68.2858 161.335 67.9998 161.335ZM68.6048 159.641C68.6048 159.333 68.3518 159.08 68.0438 159.08C68.0218 159.08 67.9998 159.08 67.9778 159.08C67.6698 159.08 67.4168 159.333 67.4168 159.641C67.4168 159.674 67.4168 159.674 67.4168 159.685C67.4168 159.993 67.6698 160.246 67.9778 160.246C68.0218 160.246 68.0328 160.246 68.0438 160.246C68.3518 160.246 68.6048 159.993 68.6048 159.685C68.6048 159.674 68.6048 159.652 68.6048 159.641ZM74.455 165.757C74.367 165.757 74.312 165.768 74.213 165.823C73.828 166.021 73.52 166.175 72.948 166.175C71.672 166.175 70.924 165.372 70.924 164.195C70.924 163.018 71.672 162.215 72.948 162.215C73.52 162.215 73.828 162.369 74.213 162.567C74.312 162.622 74.367 162.633 74.455 162.633C74.686 162.633 74.873 162.402 74.873 162.193C74.873 162.028 74.785 161.896 74.653 161.808C74.279 161.566 73.729 161.28 72.86 161.28C71.298 161.28 69.923 162.358 69.923 164.195C69.923 166.032 71.298 167.11 72.86 167.11C73.729 167.11 74.279 166.824 74.653 166.582C74.785 166.494 74.873 166.362 74.873 166.197C74.873 165.988 74.686 165.757 74.455 165.757ZM80.8365 166.274L78.8455 163.634L80.4295 162.215C80.5835 162.061 80.6165 161.929 80.6165 161.841C80.6165 161.621 80.5065 161.357 80.1325 161.357C80.0005 161.357 79.8905 161.423 79.8025 161.5L77.1845 163.92V159.421C77.1845 159.146 76.9535 158.915 76.6785 158.915C76.4035 158.915 76.1835 159.146 76.1835 159.421V166.56C76.1835 166.835 76.4035 167.055 76.6785 167.055C76.9535 167.055 77.1845 166.835 77.1845 166.56V165.141L78.1415 164.272L80.0335 166.846C80.1325 166.967 80.2865 167.055 80.4405 167.055C80.7375 167.055 80.9465 166.868 80.9465 166.571C80.9465 166.461 80.9025 166.362 80.8365 166.274ZM87.7848 166.131C87.5978 166.131 87.4768 166.23 87.1248 166.23C86.8498 166.23 86.4098 166.219 86.4098 165.57V162.248H87.6528C87.8948 162.248 88.0818 162.061 88.0818 161.819C88.0818 161.577 87.8948 161.39 87.6528 161.39H86.4098V160.51C86.4098 160.389 86.3218 160.29 86.2008 160.29C86.1128 160.29 86.0468 160.356 86.0138 160.389L84.5178 161.852C84.4518 161.907 84.4188 161.973 84.4188 162.039C84.4188 162.16 84.5068 162.248 84.6278 162.248H85.4088V165.658C85.4088 167.022 86.4978 167.11 87.0148 167.11C87.3668 167.11 87.6638 167.033 87.9278 166.912C88.0818 166.835 88.1808 166.714 88.1808 166.527C88.1808 166.296 87.9828 166.131 87.7848 166.131ZM91.7424 161.28C90.0374 161.28 88.9264 162.457 88.9264 164.195C88.9264 165.933 90.0374 167.11 91.7424 167.11C93.4364 167.11 94.5584 165.933 94.5584 164.195C94.5584 162.457 93.4364 161.28 91.7424 161.28ZM91.7424 166.197C90.8954 166.197 89.9274 165.647 89.9274 164.184C89.9274 162.732 90.8954 162.193 91.7424 162.193C92.5784 162.193 93.5574 162.732 93.5574 164.184C93.5574 165.647 92.5784 166.197 91.7424 166.197ZM101.292 161.28C99.5872 161.28 98.4762 162.457 98.4762 164.195C98.4762 165.933 99.5872 167.11 101.292 167.11C102.986 167.11 104.108 165.933 104.108 164.195C104.108 162.457 102.986 161.28 101.292 161.28ZM101.292 166.197C100.445 166.197 99.4772 165.647 99.4772 164.184C99.4772 162.732 100.445 162.193 101.292 162.193C102.128 162.193 103.107 162.732 103.107 164.184C103.107 165.647 102.128 166.197 101.292 166.197ZM108.392 167.11C109.723 167.11 111.054 166.065 111.054 164.195C111.054 162.325 109.723 161.28 108.392 161.28C107.622 161.28 107.017 161.588 106.511 162.116V161.83C106.511 161.555 106.291 161.335 106.005 161.335C105.73 161.335 105.51 161.555 105.51 161.83V169.079C105.51 169.365 105.73 169.585 106.005 169.585C106.291 169.585 106.511 169.365 106.511 169.079V166.274C107.017 166.802 107.622 167.11 108.392 167.11ZM108.249 162.215C109.294 162.215 110.053 162.897 110.053 164.195C110.053 165.493 109.294 166.175 108.249 166.175C107.534 166.175 106.94 165.823 106.511 165.35V163.04C106.94 162.567 107.534 162.215 108.249 162.215ZM116.739 165.79C116.662 165.79 116.607 165.801 116.541 165.834C116.134 166.043 115.716 166.175 115.056 166.175C113.868 166.175 113.241 165.537 113.131 164.547H116.86C117.168 164.547 117.366 164.327 117.366 164.052C117.366 162.589 116.442 161.28 114.748 161.28C112.922 161.28 112.119 162.71 112.119 164.195C112.119 166.043 113.175 167.11 114.968 167.11C115.925 167.11 116.409 166.901 116.893 166.626C117.047 166.538 117.179 166.395 117.179 166.219C117.179 165.966 116.97 165.79 116.739 165.79ZM114.748 162.127C115.452 162.127 116.31 162.589 116.376 163.733H113.131C113.197 162.589 114.044 162.127 114.748 162.127ZM121.77 161.28C120.791 161.28 120.186 161.786 119.724 162.292V161.841C119.724 161.555 119.493 161.335 119.218 161.335C118.943 161.335 118.723 161.555 118.723 161.841V166.56C118.723 166.835 118.943 167.055 119.218 167.055C119.493 167.055 119.724 166.835 119.724 166.56V163.26C120.164 162.71 120.736 162.204 121.528 162.204C122.386 162.204 122.738 162.71 122.738 163.546V166.56C122.738 166.835 122.958 167.055 123.233 167.055C123.508 167.055 123.739 166.835 123.739 166.56V163.436C123.739 162.259 123.024 161.28 121.77 161.28ZM132.452 165.757C132.364 165.757 132.309 165.768 132.21 165.823C131.825 166.021 131.517 166.175 130.945 166.175C129.669 166.175 128.921 165.372 128.921 164.195C128.921 163.018 129.669 162.215 130.945 162.215C131.517 162.215 131.825 162.369 132.21 162.567C132.309 162.622 132.364 162.633 132.452 162.633C132.683 162.633 132.87 162.402 132.87 162.193C132.87 162.028 132.782 161.896 132.65 161.808C132.276 161.566 131.726 161.28 130.857 161.28C129.295 161.28 127.92 162.358 127.92 164.195C127.92 166.032 129.295 167.11 130.857 167.11C131.726 167.11 132.276 166.824 132.65 166.582C132.782 166.494 132.87 166.362 132.87 166.197C132.87 165.988 132.683 165.757 132.452 165.757ZM136.293 161.28C135.512 161.28 134.907 161.456 134.39 161.676C134.203 161.753 134.104 161.907 134.104 162.094C134.104 162.336 134.291 162.512 134.511 162.512C134.555 162.512 134.61 162.501 134.654 162.49C135.061 162.358 135.501 162.226 136.117 162.226C137.107 162.226 137.591 162.611 137.591 163.59V163.678H136.26C134.544 163.678 133.73 164.426 133.73 165.46C133.73 166.494 134.566 167.11 135.523 167.11C136.557 167.11 137.195 166.681 137.591 166.274V166.56C137.591 166.835 137.811 167.055 138.086 167.055C138.361 167.055 138.592 166.835 138.592 166.56V163.447C138.592 162.369 137.899 161.28 136.293 161.28ZM135.897 166.23C135.006 166.23 134.731 165.823 134.731 165.35C134.731 164.723 135.358 164.481 136.392 164.481H137.591V165.405C137.217 165.834 136.579 166.23 135.897 166.23ZM146.86 161.28C145.65 161.28 145.089 161.995 144.836 162.413C144.605 161.841 144.033 161.28 143.153 161.28C142.108 161.28 141.591 161.863 141.283 162.292V161.841C141.283 161.566 141.052 161.335 140.777 161.335C140.502 161.335 140.282 161.566 140.282 161.841V166.56C140.282 166.835 140.502 167.055 140.777 167.055C141.052 167.055 141.283 166.835 141.283 166.56V163.26C141.58 162.765 142.031 162.204 142.867 162.204C143.703 162.204 143.989 162.666 143.989 163.59V166.56C143.989 166.835 144.209 167.055 144.484 167.055C144.759 167.055 144.99 166.835 144.99 166.56V163.26C145.287 162.765 145.738 162.204 146.574 162.204C147.41 162.204 147.696 162.666 147.696 163.59V166.56C147.696 166.835 147.916 167.055 148.191 167.055C148.466 167.055 148.697 166.835 148.697 166.56V163.392C148.697 162.413 148.158 161.28 146.86 161.28ZM154.68 165.79C154.603 165.79 154.548 165.801 154.482 165.834C154.075 166.043 153.657 166.175 152.997 166.175C151.809 166.175 151.182 165.537 151.072 164.547H154.801C155.109 164.547 155.307 164.327 155.307 164.052C155.307 162.589 154.383 161.28 152.689 161.28C150.863 161.28 150.06 162.71 150.06 164.195C150.06 166.043 151.116 167.11 152.909 167.11C153.866 167.11 154.35 166.901 154.834 166.626C154.988 166.538 155.12 166.395 155.12 166.219C155.12 165.966 154.911 165.79 154.68 165.79ZM152.689 162.127C153.393 162.127 154.251 162.589 154.317 163.733H151.072C151.138 162.589 151.985 162.127 152.689 162.127ZM159.447 161.28H159.392C158.633 161.28 158.061 161.786 157.665 162.314V161.841C157.665 161.566 157.434 161.335 157.159 161.335C156.884 161.335 156.664 161.566 156.664 161.841V166.56C156.664 166.835 156.884 167.055 157.159 167.055C157.434 167.055 157.665 166.835 157.665 166.56V163.216C158.05 162.644 158.644 162.248 159.37 162.248H159.425C159.711 162.248 159.931 162.061 159.931 161.775C159.931 161.5 159.722 161.28 159.447 161.28ZM163.03 161.28C162.249 161.28 161.644 161.456 161.127 161.676C160.94 161.753 160.841 161.907 160.841 162.094C160.841 162.336 161.028 162.512 161.248 162.512C161.292 162.512 161.347 162.501 161.391 162.49C161.798 162.358 162.238 162.226 162.854 162.226C163.844 162.226 164.328 162.611 164.328 163.59V163.678H162.997C161.281 163.678 160.467 164.426 160.467 165.46C160.467 166.494 161.303 167.11 162.26 167.11C163.294 167.11 163.932 166.681 164.328 166.274V166.56C164.328 166.835 164.548 167.055 164.823 167.055C165.098 167.055 165.329 166.835 165.329 166.56V163.447C165.329 162.369 164.636 161.28 163.03 161.28ZM162.634 166.23C161.743 166.23 161.468 165.823 161.468 165.35C161.468 164.723 162.095 164.481 163.129 164.481H164.328V165.405C163.954 165.834 163.316 166.23 162.634 166.23Z" fill="black"/>
<defs>
<filter id="filter0_d" x="0" y="0" width="227" height="227" filterUnits="userSpaceOnUse" color-interpolation-filters="sRGB">
<feFlood flood-opacity="0" result="BackgroundImageFix"/>
<feColorMatrix in="SourceAlpha" type="matrix" values="0 0 0 0 0 0 0 0 0 0 0 0 0 0 0 0 0 0 127 0"/>
<feOffset/>
<feGaussianBlur stdDeviation="3.5"/>
<feColorMatrix type="matrix" values="0 0 0 0 0 0 0 0 0 0 0 0 0 0 0 0 0 0 0.25 0"/>
<feBlend mode="normal" in2="BackgroundImageFix" result="effect1_dropShadow"/>
<feBlend mode="normal" in="SourceGraphic" in2="effect1_dropShadow" result="shape"/>
</filter>
</defs>
</svg>
