<svg width="227" height="227" viewBox="0 0 227 227" fill="none" xmlns="http://www.w3.org/2000/svg">
<g filter="url(#filter0_d)">
<rect x="7" y="7" width="213" height="213" rx="15" fill="#C4C4C4"/>
</g>
<path d="M120 95V78H95C94.1667 78 93.4583 78.2917 92.875 78.875C92.2917 79.4583 92 80.1667 92 81V139C92 139.833 92.2917 140.542 92.875 141.125C93.4583 141.708 94.1667 142 95 142H137C137.833 142 138.542 141.708 139.125 141.125C139.708 140.542 140 139.833 140 139V98H123C122.167 98 121.458 97.7083 120.875 97.125C120.292 96.5417 120 95.8333 120 95ZM140 93.25V94H124V78H124.75C125.583 78 126.292 78.2917 126.875 78.875L139.125 91.125C139.708 91.7083 140 92.4167 140 93.25Z" fill="black"/>
<path d="M57.776 165.592C57.721 165.592 57.644 165.603 57.578 165.636C56.995 165.944 56.423 166.153 55.565 166.153C53.618 166.153 52.617 164.855 52.617 163.161C52.617 161.467 53.618 160.169 55.565 160.169C56.423 160.169 56.995 160.378 57.578 160.686C57.644 160.719 57.721 160.73 57.776 160.73C58.051 160.73 58.227 160.521 58.216 160.29C58.205 160.081 58.117 159.971 57.974 159.894C57.292 159.509 56.544 159.212 55.466 159.212C53.277 159.212 51.616 160.708 51.616 163.161C51.616 165.614 53.277 167.11 55.466 167.11C56.544 167.11 57.292 166.813 57.974 166.428C58.117 166.351 58.205 166.241 58.216 166.032C58.227 165.801 58.051 165.592 57.776 165.592ZM60.1327 158.915C59.8577 158.915 59.6377 159.135 59.6377 159.421V166.56C59.6377 166.835 59.8577 167.055 60.1327 167.055C60.4187 167.055 60.6387 166.835 60.6387 166.56V159.421C60.6387 159.135 60.4187 158.915 60.1327 158.915ZM62.9998 161.335C62.7248 161.335 62.5048 161.555 62.5048 161.841V166.56C62.5048 166.835 62.7248 167.055 62.9998 167.055C63.2858 167.055 63.5058 166.835 63.5058 166.56V161.841C63.5058 161.555 63.2858 161.335 62.9998 161.335ZM63.6048 159.641C63.6048 159.333 63.3518 159.08 63.0438 159.08C63.0218 159.08 62.9998 159.08 62.9778 159.08C62.6698 159.08 62.4168 159.333 62.4168 159.641C62.4168 159.674 62.4168 159.674 62.4168 159.685C62.4168 159.993 62.6698 160.246 62.9778 160.246C63.0218 160.246 63.0328 160.246 63.0438 160.246C63.3518 160.246 63.6048 159.993 63.6048 159.685C63.6048 159.674 63.6048 159.652 63.6048 159.641ZM69.455 165.757C69.367 165.757 69.312 165.768 69.213 165.823C68.828 166.021 68.52 166.175 67.948 166.175C66.672 166.175 65.924 165.372 65.924 164.195C65.924 163.018 66.672 162.215 67.948 162.215C68.52 162.215 68.828 162.369 69.213 162.567C69.312 162.622 69.367 162.633 69.455 162.633C69.686 162.633 69.873 162.402 69.873 162.193C69.873 162.028 69.785 161.896 69.653 161.808C69.279 161.566 68.729 161.28 67.86 161.28C66.298 161.28 64.923 162.358 64.923 164.195C64.923 166.032 66.298 167.11 67.86 167.11C68.729 167.11 69.279 166.824 69.653 166.582C69.785 166.494 69.873 166.362 69.873 166.197C69.873 165.988 69.686 165.757 69.455 165.757ZM75.8365 166.274L73.8455 163.634L75.4295 162.215C75.5835 162.061 75.6165 161.929 75.6165 161.841C75.6165 161.621 75.5065 161.357 75.1325 161.357C75.0005 161.357 74.8905 161.423 74.8025 161.5L72.1845 163.92V159.421C72.1845 159.146 71.9535 158.915 71.6785 158.915C71.4035 158.915 71.1835 159.146 71.1835 159.421V166.56C71.1835 166.835 71.4035 167.055 71.6785 167.055C71.9535 167.055 72.1845 166.835 72.1845 166.56V165.141L73.1415 164.272L75.0335 166.846C75.1325 166.967 75.2865 167.055 75.4405 167.055C75.7375 167.055 75.9465 166.868 75.9465 166.571C75.9465 166.461 75.9025 166.362 75.8365 166.274ZM82.7848 166.131C82.5978 166.131 82.4768 166.23 82.1248 166.23C81.8498 166.23 81.4098 166.219 81.4098 165.57V162.248H82.6528C82.8948 162.248 83.0818 162.061 83.0818 161.819C83.0818 161.577 82.8948 161.39 82.6528 161.39H81.4098V160.51C81.4098 160.389 81.3218 160.29 81.2008 160.29C81.1128 160.29 81.0468 160.356 81.0138 160.389L79.5178 161.852C79.4518 161.907 79.4188 161.973 79.4188 162.039C79.4188 162.16 79.5068 162.248 79.6278 162.248H80.4088V165.658C80.4088 167.022 81.4978 167.11 82.0148 167.11C82.3668 167.11 82.6638 167.033 82.9278 166.912C83.0818 166.835 83.1808 166.714 83.1808 166.527C83.1808 166.296 82.9828 166.131 82.7848 166.131ZM86.7424 161.28C85.0374 161.28 83.9264 162.457 83.9264 164.195C83.9264 165.933 85.0374 167.11 86.7424 167.11C88.4364 167.11 89.5584 165.933 89.5584 164.195C89.5584 162.457 88.4364 161.28 86.7424 161.28ZM86.7424 166.197C85.8954 166.197 84.9274 165.647 84.9274 164.184C84.9274 162.732 85.8954 162.193 86.7424 162.193C87.5784 162.193 88.5574 162.732 88.5574 164.184C88.5574 165.647 87.5784 166.197 86.7424 166.197ZM96.2922 161.28C94.5872 161.28 93.4762 162.457 93.4762 164.195C93.4762 165.933 94.5872 167.11 96.2922 167.11C97.9862 167.11 99.1082 165.933 99.1082 164.195C99.1082 162.457 97.9862 161.28 96.2922 161.28ZM96.2922 166.197C95.4452 166.197 94.4772 165.647 94.4772 164.184C94.4772 162.732 95.4452 162.193 96.2922 162.193C97.1282 162.193 98.1072 162.732 98.1072 164.184C98.1072 165.647 97.1282 166.197 96.2922 166.197ZM103.392 167.11C104.723 167.11 106.054 166.065 106.054 164.195C106.054 162.325 104.723 161.28 103.392 161.28C102.622 161.28 102.017 161.588 101.511 162.116V161.83C101.511 161.555 101.291 161.335 101.005 161.335C100.73 161.335 100.51 161.555 100.51 161.83V169.079C100.51 169.365 100.73 169.585 101.005 169.585C101.291 169.585 101.511 169.365 101.511 169.079V166.274C102.017 166.802 102.622 167.11 103.392 167.11ZM103.249 162.215C104.294 162.215 105.053 162.897 105.053 164.195C105.053 165.493 104.294 166.175 103.249 166.175C102.534 166.175 101.94 165.823 101.511 165.35V163.04C101.94 162.567 102.534 162.215 103.249 162.215ZM111.739 165.79C111.662 165.79 111.607 165.801 111.541 165.834C111.134 166.043 110.716 166.175 110.056 166.175C108.868 166.175 108.241 165.537 108.131 164.547H111.86C112.168 164.547 112.366 164.327 112.366 164.052C112.366 162.589 111.442 161.28 109.748 161.28C107.922 161.28 107.119 162.71 107.119 164.195C107.119 166.043 108.175 167.11 109.968 167.11C110.925 167.11 111.409 166.901 111.893 166.626C112.047 166.538 112.179 166.395 112.179 166.219C112.179 165.966 111.97 165.79 111.739 165.79ZM109.748 162.127C110.452 162.127 111.31 162.589 111.376 163.733H108.131C108.197 162.589 109.044 162.127 109.748 162.127ZM116.77 161.28C115.791 161.28 115.186 161.786 114.724 162.292V161.841C114.724 161.555 114.493 161.335 114.218 161.335C113.943 161.335 113.723 161.555 113.723 161.841V166.56C113.723 166.835 113.943 167.055 114.218 167.055C114.493 167.055 114.724 166.835 114.724 166.56V163.26C115.164 162.71 115.736 162.204 116.528 162.204C117.386 162.204 117.738 162.71 117.738 163.546V166.56C117.738 166.835 117.958 167.055 118.233 167.055C118.508 167.055 118.739 166.835 118.739 166.56V163.436C118.739 162.259 118.024 161.28 116.77 161.28ZM124.702 161.39V160.785C124.702 160.004 125.054 159.817 125.604 159.817C125.813 159.817 125.978 159.883 126.154 159.883C126.385 159.883 126.561 159.674 126.561 159.465C126.561 159.289 126.44 159.146 126.308 159.08C126.044 158.948 125.714 158.86 125.351 158.86C124.57 158.86 123.701 159.366 123.701 160.752V161.39H123.052C122.81 161.39 122.623 161.577 122.623 161.819C122.623 162.061 122.81 162.248 123.052 162.248H123.701V166.56C123.701 166.835 123.921 167.055 124.196 167.055C124.482 167.055 124.702 166.835 124.702 166.56V162.248H127.551V166.56C127.551 166.835 127.771 167.055 128.046 167.055C128.332 167.055 128.552 166.835 128.552 166.56V161.896C128.552 161.621 128.354 161.412 128.079 161.39H124.702ZM128.651 159.641C128.651 159.333 128.398 159.08 128.09 159.08H128.024C127.716 159.08 127.463 159.333 127.463 159.641V159.685C127.463 159.993 127.716 160.246 128.024 160.246H128.09C128.398 160.246 128.651 159.993 128.651 159.685V159.641ZM130.913 158.915C130.638 158.915 130.418 159.135 130.418 159.421V166.56C130.418 166.835 130.638 167.055 130.913 167.055C131.199 167.055 131.419 166.835 131.419 166.56V159.421C131.419 159.135 131.199 158.915 130.913 158.915ZM137.531 165.79C137.454 165.79 137.399 165.801 137.333 165.834C136.926 166.043 136.508 166.175 135.848 166.175C134.66 166.175 134.033 165.537 133.923 164.547H137.652C137.96 164.547 138.158 164.327 138.158 164.052C138.158 162.589 137.234 161.28 135.54 161.28C133.714 161.28 132.911 162.71 132.911 164.195C132.911 166.043 133.967 167.11 135.76 167.11C136.717 167.11 137.201 166.901 137.685 166.626C137.839 166.538 137.971 166.395 137.971 166.219C137.971 165.966 137.762 165.79 137.531 165.79ZM135.54 162.127C136.244 162.127 137.102 162.589 137.168 163.733H133.923C133.989 162.589 134.836 162.127 135.54 162.127ZM145.254 161.28C144.484 161.28 143.879 161.588 143.373 162.116V159.421C143.373 159.135 143.153 158.915 142.867 158.915C142.592 158.915 142.372 159.135 142.372 159.421V166.56C142.372 166.835 142.592 167.055 142.867 167.055C143.153 167.055 143.373 166.835 143.373 166.56V166.274C143.879 166.802 144.484 167.11 145.254 167.11C146.585 167.11 147.916 166.065 147.916 164.195C147.916 162.325 146.585 161.28 145.254 161.28ZM145.111 166.175C144.396 166.175 143.802 165.823 143.373 165.35V163.04C143.802 162.567 144.396 162.215 145.111 162.215C146.156 162.215 146.915 162.897 146.915 164.195C146.915 165.493 146.156 166.175 145.111 166.175ZM152.094 161.28H152.039C151.28 161.28 150.708 161.786 150.312 162.314V161.841C150.312 161.566 150.081 161.335 149.806 161.335C149.531 161.335 149.311 161.566 149.311 161.841V166.56C149.311 166.835 149.531 167.055 149.806 167.055C150.081 167.055 150.312 166.835 150.312 166.56V163.216C150.697 162.644 151.291 162.248 152.017 162.248H152.072C152.358 162.248 152.578 162.061 152.578 161.775C152.578 161.5 152.369 161.28 152.094 161.28ZM156.04 161.28C154.335 161.28 153.224 162.457 153.224 164.195C153.224 165.933 154.335 167.11 156.04 167.11C157.734 167.11 158.856 165.933 158.856 164.195C158.856 162.457 157.734 161.28 156.04 161.28ZM156.04 166.197C155.193 166.197 154.225 165.647 154.225 164.184C154.225 162.732 155.193 162.193 156.04 162.193C156.876 162.193 157.855 162.732 157.855 164.184C157.855 165.647 156.876 166.197 156.04 166.197ZM167.265 161.335C167.067 161.335 166.869 161.445 166.814 161.632L165.527 165.867L164.251 161.731C164.185 161.5 163.965 161.335 163.712 161.335C163.459 161.335 163.239 161.5 163.173 161.731L161.897 165.867L160.61 161.632C160.555 161.445 160.357 161.335 160.159 161.335C159.884 161.335 159.664 161.555 159.664 161.83C159.664 161.896 159.675 161.951 159.697 162.017L161.259 166.593C161.347 166.846 161.6 167.055 161.897 167.055C162.194 167.055 162.447 166.846 162.546 166.582L163.712 162.941L164.878 166.582C164.977 166.846 165.23 167.055 165.527 167.055C165.824 167.055 166.077 166.846 166.165 166.593L167.727 162.017C167.749 161.951 167.76 161.896 167.76 161.83C167.76 161.555 167.54 161.335 167.265 161.335ZM169.554 162.963C169.554 162.523 170.005 162.193 170.819 162.193C171.303 162.193 171.721 162.281 172.073 162.391C172.117 162.402 172.161 162.413 172.216 162.413C172.469 162.413 172.656 162.204 172.656 161.973C172.656 161.808 172.546 161.621 172.337 161.555C171.886 161.39 171.347 161.28 170.742 161.28C169.312 161.28 168.597 162.028 168.597 163.018C168.597 165.02 171.897 164.459 171.897 165.405C171.897 165.9 171.523 166.186 170.676 166.186C170.027 166.186 169.576 166.032 169.18 165.856C169.103 165.823 169.048 165.812 168.982 165.812C168.729 165.812 168.553 166.032 168.553 166.252C168.553 166.406 168.63 166.538 168.74 166.615C169.301 166.923 169.939 167.11 170.742 167.11C172.15 167.11 172.865 166.373 172.865 165.482C172.865 163.326 169.554 164.107 169.554 162.963ZM178.47 165.79C178.393 165.79 178.338 165.801 178.272 165.834C177.865 166.043 177.447 166.175 176.787 166.175C175.599 166.175 174.972 165.537 174.862 164.547H178.591C178.899 164.547 179.097 164.327 179.097 164.052C179.097 162.589 178.173 161.28 176.479 161.28C174.653 161.28 173.85 162.71 173.85 164.195C173.85 166.043 174.906 167.11 176.699 167.11C177.656 167.11 178.14 166.901 178.624 166.626C178.778 166.538 178.91 166.395 178.91 166.219C178.91 165.966 178.701 165.79 178.47 165.79ZM176.479 162.127C177.183 162.127 178.041 162.589 178.107 163.733H174.862C174.928 162.589 175.775 162.127 176.479 162.127ZM183.236 161.28H183.181C182.422 161.28 181.85 161.786 181.454 162.314V161.841C181.454 161.566 181.223 161.335 180.948 161.335C180.673 161.335 180.453 161.566 180.453 161.841V166.56C180.453 166.835 180.673 167.055 180.948 167.055C181.223 167.055 181.454 166.835 181.454 166.56V163.216C181.839 162.644 182.433 162.248 183.159 162.248H183.214C183.5 162.248 183.72 162.061 183.72 161.775C183.72 161.5 183.511 161.28 183.236 161.28Z" fill="black"/>
<defs>
<filter id="filter0_d" x="0" y="0" width="227" height="227" filterUnits="userSpaceOnUse" color-interpolation-filters="sRGB">
<feFlood flood-opacity="0" result="BackgroundImageFix"/>
<feColorMatrix in="SourceAlpha" type="matrix" values="0 0 0 0 0 0 0 0 0 0 0 0 0 0 0 0 0 0 127 0"/>
<feOffset/>
<feGaussianBlur stdDeviation="3.5"/>
<feColorMatrix type="matrix" values="0 0 0 0 0 0 0 0 0 0 0 0 0 0 0 0 0 0 0.25 0"/>
<feBlend mode="normal" in2="BackgroundImageFix" result="effect1_dropShadow"/>
<feBlend mode="normal" in="SourceGraphic" in2="effect1_dropShadow" result="shape"/>
</filter>
</defs>
</svg>
