<svg width="27" height="27" viewBox="0 0 27 27" fill="none" xmlns="http://www.w3.org/2000/svg">
<path d="M22.7109 31.5078L26.5078 27.7109C26.8359 27.3828 27 26.9844 27 26.5156C27 26.0469 26.8359 25.6484 26.5078 25.3203L19.6875 18.5L26.5078 11.6797C26.8359 11.3516 27 10.9531 27 10.4844C27 10.0156 26.8359 9.61719 26.5078 9.28906L22.7109 5.49219C22.3828 5.16406 21.9844 5 21.5156 5C21.0469 5 20.6484 5.16406 20.3203 5.49219L13.5 12.3125L6.67969 5.49219C6.35156 5.16406 5.95312 5 5.48438 5C5.01562 5 4.61719 5.16406 4.28906 5.49219L0.492188 9.28906C0.164063 9.61719 0 10.0156 0 10.4844C0 10.9531 0.164063 11.3516 0.492188 11.6797L7.3125 18.5L0.492188 25.3203C0.164063 25.6484 0 26.0469 0 26.5156C0 26.9844 0.164063 27.3828 0.492188 27.7109L4.28906 31.5078C4.61719 31.8359 5.01562 32 5.48438 32C5.95312 32 6.35156 31.8359 6.67969 31.5078L13.5 24.6875L20.3203 31.5078C20.6484 31.8359 21.0469 32 21.5156 32C21.9844 32 22.3828 31.8359 22.7109 31.5078Z" transform="translate(0 -5)" fill="black"/>
</svg>
