<svg width="35" height="35" viewBox="0 0 35 35" fill="none" xmlns="http://www.w3.org/2000/svg">
<path d="M17.4375 1.0625C14.2969 1.0625 11.3906 1.85937 8.71875 3.45312C6.04688 5 3.91406 7.10938 2.32031 9.78125C0.773438 12.4531 0 15.3594 0 18.5C0 21.6406 0.773438 24.5469 2.32031 27.2188C3.91406 29.8906 6.04688 32 8.71875 33.5469C11.3906 35.1406 14.2969 35.9375 17.4375 35.9375C20.5781 35.9375 23.4844 35.1406 26.1562 33.5469C28.8281 32 30.9375 29.8906 32.4844 27.2188C34.0781 24.5469 34.875 21.6406 34.875 18.5C34.875 15.3594 34.0781 12.4531 32.4844 9.78125C30.9375 7.10938 28.8281 5 26.1562 3.45312C23.4844 1.85937 20.5781 1.0625 17.4375 1.0625ZM28.6875 16.1797V16.6719C28.6875 17.1406 28.4766 17.4688 28.0547 17.6562L27 18.2188C26.625 18.4062 26.2734 18.3828 25.9453 18.1484L24.6094 17.3047C24.3281 17.1172 24.0234 17.0703 23.6953 17.1641L23.4844 17.2344C23.1562 17.3281 22.9219 17.5625 22.7812 17.9375C22.6875 18.2656 22.7344 18.5703 22.9219 18.8516L23.8359 20.2578C24.0703 20.5859 24.375 20.75 24.75 20.75H25.3828C25.6641 20.75 25.8984 20.8672 26.0859 21.1016C26.3203 21.2891 26.4375 21.5469 26.4375 21.875V22.6484C26.4375 22.8828 26.3672 23.0938 26.2266 23.2812L24.8906 25.0391C24.7969 25.1797 24.7266 25.3438 24.6797 25.5312L24.3984 27.0781C24.3516 27.3125 24.2344 27.5234 24.0469 27.7109C23.3906 28.3203 22.8047 29 22.2891 29.75L21.375 31.1562C21 31.7188 20.4609 32 19.7578 32C19.3828 32 19.0312 31.9062 18.7031 31.7188C18.4219 31.5312 18.1875 31.2734 18 30.9453C17.625 30.1484 17.4375 29.3047 17.4375 28.4141V26.3047C17.4375 26.0234 17.3203 25.7891 17.0859 25.6016C16.8984 25.3672 16.6641 25.25 16.3828 25.25H14.5547C13.4766 25.25 12.5625 24.875 11.8125 24.125C11.0625 23.375 10.6875 22.4609 10.6875 21.3828V20.3984C10.6875 19.7891 10.8281 19.2266 11.1094 18.7109C11.3906 18.1484 11.7656 17.7031 12.2344 17.375L14.1328 15.8984C14.8359 15.3828 15.6094 15.125 16.4531 15.125H16.5234C17.1328 15.125 17.7188 15.2656 18.2812 15.5469L19.2656 16.0391C19.5469 16.1797 19.8281 16.2031 20.1094 16.1094L23.4141 14.9844C23.6484 14.9375 23.8359 14.8203 23.9766 14.6328C24.1172 14.3984 24.1875 14.1641 24.1875 13.9297C24.1875 13.6484 24.0703 13.4141 23.8359 13.2266C23.6484 12.9922 23.3906 12.875 23.0625 12.875H22.3594C22.0781 12.875 21.8203 12.7578 21.5859 12.5234L21.1641 12.1016C20.9297 11.8672 20.6719 11.75 20.3906 11.75H14.0625C13.7344 11.75 13.4531 11.6563 13.2188 11.4688C13.0312 11.2344 12.9375 10.9531 12.9375 10.625V10.3438C12.9375 10.1094 13.0078 9.89844 13.1484 9.71094C13.3359 9.47656 13.5469 9.33594 13.7812 9.28906L14.7656 9.00781C15.0469 8.96094 15.2578 8.82031 15.3984 8.58594L15.9609 7.74219C16.1953 7.41406 16.5 7.25 16.875 7.25H18.6328C18.9141 7.25 19.1484 7.15625 19.3359 6.96875C19.5703 6.73438 19.6875 6.45313 19.6875 6.125V4.64844C22.4531 5.07031 24.8672 6.24219 26.9297 8.16406C29.0391 10.0859 30.4219 12.4062 31.0781 15.125H29.8125C29.4844 15.125 29.2031 15.2422 28.9688 15.4766C28.7812 15.6641 28.6875 15.8984 28.6875 16.1797Z" transform="translate(0 -1)" fill="black"/>
</svg>
