<svg width="85" height="85" viewBox="0 0 85 85" fill="none" xmlns="http://www.w3.org/2000/svg">
<circle cx="42.5" cy="42.5" r="41.5" fill="black" stroke="#FCFCFC" stroke-width="2"/>
<path d="M35 22.9688V17.0312C35 16.5104 34.8177 16.0677 34.4531 15.7031C34.0885 15.3385 33.6458 15.1562 33.125 15.1562H22.3438V4.375C22.3438 3.85417 22.1615 3.41146 21.7969 3.04688C21.4323 2.68229 20.9896 2.5 20.4688 2.5H14.5312C14.0104 2.5 13.5677 2.68229 13.2031 3.04688C12.8385 3.41146 12.6562 3.85417 12.6562 4.375V15.1562H1.875C1.35417 15.1562 0.911458 15.3385 0.546875 15.7031C0.182292 16.0677 0 16.5104 0 17.0312V22.9688C0 23.4896 0.182292 23.9323 0.546875 24.2969C0.911458 24.6615 1.35417 24.8438 1.875 24.8438H12.6562V35.625C12.6562 36.1458 12.8385 36.5885 13.2031 36.9531C13.5677 37.3177 14.0104 37.5 14.5312 37.5H20.4688C20.9896 37.5 21.4323 37.3177 21.7969 36.9531C22.1615 36.5885 22.3438 36.1458 22.3438 35.625V24.8438H33.125C33.6458 24.8438 34.0885 24.6615 34.4531 24.2969C34.8177 23.9323 35 23.4896 35 22.9688Z" transform="translate(25 23)" fill="white"/>
</svg>
