<svg width="145" height="145" viewBox="0 0 145 145" fill="none" xmlns="http://www.w3.org/2000/svg">
<path d="M72 69.1875C70.125 69.1875 68.5312 69.8438 67.2188 71.1562C65.9062 72.4688 65.25 74.0625 65.25 75.9375C65.625 96 63 115.875 57.375 135.562C57 137.25 57.2812 138.938 58.2188 140.625C59.3438 142.875 61.3125 144 64.125 144C65.4375 144 66.6562 143.531 67.7812 142.594C69.0938 141.656 70.0312 140.438 70.5938 138.938C76.4062 118.312 79.125 97.3125 78.75 75.9375C78.75 74.0625 78.0938 72.4688 76.7812 71.1562C75.4688 69.8438 73.875 69.1875 72 69.1875ZM71.7188 46.125C66.0938 46.125 61.0312 47.4375 56.5312 50.0625C52.2188 52.6875 48.8438 56.1562 46.4062 60.4688C43.9688 64.7812 42.75 69.4688 42.75 74.5312C42.9375 88.2188 41.7188 101.625 39.0938 114.75C38.7188 116.625 39 118.312 39.9375 119.812C41.0625 121.312 42.4688 122.25 44.1562 122.625C46.0312 123 47.7188 122.719 49.2188 121.781C50.9062 120.656 51.9375 119.25 52.3125 117.562C55.125 103.312 56.4375 88.9688 56.25 74.5312C56.25 70.5938 57.6562 67.125 60.4688 64.125C63.2812 61.125 66.9375 59.7188 71.4375 59.9062C75.9375 59.9062 79.7812 61.4062 82.9688 64.4062C86.1562 67.4062 87.75 71.0625 87.75 75.375C87.9375 88.875 87 102.281 84.9375 115.594C84.5625 117.469 84.9375 119.156 86.0625 120.656C87.1875 122.156 88.5938 123.094 90.2812 123.469C92.7188 123.844 94.6875 123.188 96.1875 121.5C97.3125 120.375 97.9688 119.156 98.1562 117.844C100.406 103.781 101.438 89.5312 101.25 75.0938C101.25 67.2188 98.3438 60.4688 92.5312 54.8438C86.7188 49.2188 79.7812 46.3125 71.7188 46.125ZM40.7812 40.5C39.2812 39.375 37.5938 38.9062 35.7188 39.0938C33.8438 39.2813 32.3438 40.125 31.2188 41.625C27.6562 46.125 24.9375 51.0938 23.0625 56.5312C21.1875 61.7812 20.25 67.3125 20.25 73.125C20.4375 83.8125 19.5938 94.3125 17.7188 104.625C17.3438 106.5 17.7188 108.188 18.8438 109.688C19.9688 111.188 21.375 112.125 23.0625 112.5C25.5 112.875 27.4688 112.219 28.9688 110.531C30.0938 109.406 30.75 108.281 30.9375 107.156C33 95.9062 33.9375 84.4688 33.75 72.8438C33.5625 64.2188 36.1875 56.625 41.625 50.0625C42.75 48.5625 43.2188 46.9688 43.0312 45.2812C42.8438 43.4062 42.0938 41.8125 40.7812 40.5ZM71.4375 23.0625C67.3125 23.0625 63 23.5313 58.5 24.4688C56.8125 24.8437 55.4062 25.875 54.2812 27.5625C53.3438 29.0625 53.0625 30.75 53.4375 32.625C54 34.5 55.0312 35.9063 56.5312 36.8438C58.2188 37.7812 59.9062 38.0625 61.5938 37.6875C64.5938 36.9375 67.7812 36.5625 71.1562 36.5625C78.0938 36.75 84.5625 38.5312 90.5625 41.9062C96.5625 45.2812 101.344 49.875 104.906 55.6875C108.469 61.5 110.25 67.7812 110.25 74.5312C110.438 85.2188 109.969 95.8125 108.844 106.312C108.469 108.188 108.844 109.875 109.969 111.375C111.281 112.875 112.875 113.719 114.75 113.906C116.812 114.094 118.5 113.531 119.812 112.219C121.125 110.906 121.875 109.5 122.062 108C123.375 96.75 123.938 85.5 123.75 74.25C123.562 65.0625 121.125 56.625 116.438 48.9375C111.75 41.0625 105.375 34.875 97.3125 30.375C89.4375 25.6875 80.8125 23.25 71.4375 23.0625ZM142.312 57.375C141.938 55.5 140.906 54.0938 139.219 53.1562C137.719 52.0312 136.031 51.6563 134.156 52.0312C132.469 52.4062 131.062 53.4375 129.938 55.125C129 56.625 128.719 58.3125 129.094 60.1875C130.031 64.5 130.5 70.3125 130.5 77.625C130.5 79.3125 131.156 80.9062 132.469 82.4062C133.781 83.7188 135.375 84.375 137.25 84.375C139.125 84.375 140.719 83.7188 142.031 82.4062C143.344 81.0938 144 79.5 144 77.625V77.3438C144 73.2188 143.906 70.125 143.719 68.0625C143.531 64.3125 143.062 60.75 142.312 57.375ZM131.062 31.7812C124.125 22.0312 115.312 14.3438 104.625 8.71875C94.125 3.09375 82.9688 0.1875 71.1562 0C61.2188 -0.1875 51.8438 1.5 43.0312 5.0625C34.2188 8.625 26.5312 13.7812 19.9688 20.5312C13.4062 27.0937 8.34375 34.5938 4.78125 43.0312C1.40625 51.2812 -0.1875 60.0938 0 69.4688V75.375C0 77.25 0.5625 78.9375 1.6875 80.4375C3 81.75 4.59375 82.4062 6.46875 82.4062H6.75C8.625 82.4062 10.2188 81.75 11.5312 80.4375C12.8438 79.125 13.5 77.625 13.5 75.9375V69.1875C13.5 61.875 14.8125 54.8438 17.4375 48.0938C20.25 41.3438 24.2812 35.3438 29.5312 30.0938C34.7812 24.6563 40.9688 20.5312 48.0938 17.7188C55.4062 14.7187 63 13.3125 70.875 13.5C80.625 13.6875 89.8125 16.125 98.4375 20.8125C107.25 25.3125 114.469 31.5 120.094 39.375C121.031 41.0625 122.438 42.0938 124.312 42.4688C126.188 42.6563 127.875 42.2812 129.375 41.3438C130.875 40.2188 131.812 38.7188 132.188 36.8438C132.562 34.9687 132.188 33.2812 131.062 31.7812Z" transform="translate(1 1)" fill="#E5E5E5"/>
<path d="M71.7336 46.1391C66.1086 46.1391 61.0461 47.4516 56.5461 50.0766C52.2336 52.7016 48.8586 56.1703 46.4211 60.4828C43.9836 64.7953 42.7648 69.4828 42.7648 74.5453C42.9523 88.2328 41.7336 101.639 39.1086 114.764C38.7336 116.639 39.0148 118.327 39.9523 119.827C41.0773 121.327 42.4836 122.264 44.1711 122.639C46.0461 123.014 47.7336 122.733 49.2336 121.795C50.9211 120.67 51.9523 119.264 52.3273 117.577C55.1398 103.327 56.4523 88.9828 56.2648 74.5453C56.2648 70.6078 57.6711 67.1391 60.4836 64.1391C63.2961 61.1391 66.9523 59.7328 71.4523 59.9203C75.9523 59.9203 79.7961 61.4203 82.9836 64.4203C86.1711 67.4203 87.7648 71.0766 87.7648 75.3891C87.9523 88.8891 87.0148 102.295 84.9523 115.608C84.5773 117.483 84.9523 119.17 86.0773 120.67C87.2023 122.17 88.6086 123.108 90.2961 123.483C92.7336 123.858 94.7023 123.202 96.2023 121.514C97.3273 120.389 97.9836 119.17 98.1711 117.858C100.421 103.795 101.452 89.5453 101.265 75.1078C101.265 67.2328 98.3586 60.4828 92.5461 54.8578C86.7336 49.2328 79.7961 46.3266 71.7336 46.1391ZM40.7961 40.5141C39.2961 39.3891 37.6086 38.9203 35.7336 39.1078C33.8586 39.2953 32.3586 40.1391 31.2336 41.6391C27.6711 46.1391 24.9523 51.1078 23.0773 56.5453C21.2023 61.7953 20.2648 67.3266 20.2648 73.1391C20.4523 83.8266 19.6086 94.3266 17.7336 104.639C17.3586 106.514 17.7336 108.202 18.8586 109.702C19.9836 111.202 21.3898 112.139 23.0773 112.514C25.5148 112.889 27.4836 112.233 28.9836 110.545C30.1086 109.42 30.7648 108.295 30.9523 107.17C33.0148 95.9203 33.9523 84.4828 33.7648 72.8578C33.5773 64.2328 36.2023 56.6391 41.6398 50.0766C42.7648 48.5766 43.2336 46.9828 43.0461 45.2953C42.8586 43.4203 42.1086 41.8266 40.7961 40.5141ZM131.077 31.7953C124.14 22.0453 115.327 14.3578 104.64 8.73281C94.1398 3.10781 82.9836 0.201562 71.1711 0.0140625C61.2336 -0.173438 51.8586 1.51406 43.0461 5.07656C34.2336 8.63906 26.5461 13.7953 19.9836 20.5453C13.4211 27.1078 8.35855 34.6078 4.79605 43.0453C1.42105 51.2953 -0.172697 60.1078 0.0148026 69.4828V75.3891C0.0148026 77.2641 0.577302 78.9516 1.7023 80.4516C3.0148 81.7641 4.60855 82.4203 6.48355 82.4203H6.7648C8.6398 82.4203 10.2336 81.7641 11.5461 80.4516C12.8586 79.1391 13.5148 77.6391 13.5148 75.9516V69.2016C13.5148 61.8891 14.8273 54.8578 17.4523 48.1078C20.2648 41.3578 24.2961 35.3578 29.5461 30.1078C34.7961 24.6703 40.9836 20.5453 48.1086 17.7328C55.4211 14.7328 63.0148 13.3266 70.8898 13.5141C80.6398 13.7016 89.8273 16.1391 98.4523 20.8266C107.265 25.3266 114.484 31.5141 120.109 39.3891C121.046 41.0766 122.452 42.1078 124.327 42.4828C126.202 42.6703 127.89 42.2953 129.39 41.3578C130.89 40.2328 131.827 38.7328 132.202 36.8578C132.577 34.9828 132.202 33.2953 131.077 31.7953Z" fill="#6FCF97"/>
</svg>
