<svg width="32" height="29" viewBox="0 0 32 29" fill="none" xmlns="http://www.w3.org/2000/svg">
<path d="M1.125 9.78125H30.375C30.7031 9.78125 30.9609 9.6875 31.1484 9.5C31.3828 9.26563 31.5 8.98438 31.5 8.65625V5.84375C31.5 5.51562 31.3828 5.25781 31.1484 5.07031C30.9609 4.83594 30.7031 4.71875 30.375 4.71875H1.125C0.796875 4.71875 0.515625 4.83594 0.28125 5.07031C0.09375 5.25781 0 5.51562 0 5.84375V8.65625C0 8.98438 0.09375 9.26563 0.28125 9.5C0.515625 9.6875 0.796875 9.78125 1.125 9.78125ZM1.125 21.0312H30.375C30.7031 21.0312 30.9609 20.9375 31.1484 20.75C31.3828 20.5156 31.5 20.2344 31.5 19.9062V17.0938C31.5 16.7656 31.3828 16.5078 31.1484 16.3203C30.9609 16.0859 30.7031 15.9688 30.375 15.9688H1.125C0.796875 15.9688 0.515625 16.0859 0.28125 16.3203C0.09375 16.5078 0 16.7656 0 17.0938V19.9062C0 20.2344 0.09375 20.5156 0.28125 20.75C0.515625 20.9375 0.796875 21.0312 1.125 21.0312ZM1.125 32.2812H30.375C30.7031 32.2812 30.9609 32.1875 31.1484 32C31.3828 31.7656 31.5 31.4844 31.5 31.1562V28.3438C31.5 28.0156 31.3828 27.7578 31.1484 27.5703C30.9609 27.3359 30.7031 27.2188 30.375 27.2188H1.125C0.796875 27.2188 0.515625 27.3359 0.28125 27.5703C0.09375 27.7578 0 28.0156 0 28.3438V31.1562C0 31.4844 0.09375 31.7656 0.28125 32C0.515625 32.1875 0.796875 32.2812 1.125 32.2812Z" transform="translate(0 -4)" fill="black"/>
</svg>
