<svg width="101" height="45" viewBox="0 0 101 45" fill="none" xmlns="http://www.w3.org/2000/svg">
<rect width="101" height="45" fill="black"/>
<path d="M29.84 30.1C29.5867 30.1 29.3733 30.0133 29.2 29.84C29.0267 29.6667 28.94 29.4533 28.94 29.2V17.26C28.94 16.9 29.0667 16.5933 29.32 16.34C29.5733 16.0733 29.88 15.94 30.24 15.94H30.5C30.9267 15.94 31.2933 16.14 31.6 16.54L39.3 27.66V16.86C39.3 16.6067 39.3867 16.3933 39.56 16.22C39.7333 16.0333 39.9467 15.94 40.2 15.94C40.4533 15.94 40.6667 16.0333 40.84 16.22C41.0267 16.3933 41.12 16.6067 41.12 16.86V28.8C41.12 29.16 40.9867 29.4667 40.72 29.72C40.4667 29.9733 40.16 30.1 39.8 30.1H39.56C39.3467 30.1 39.1467 30.0533 38.96 29.96C38.7733 29.8533 38.62 29.72 38.5 29.56L30.76 18.38V29.2C30.76 29.4533 30.6667 29.6667 30.48 29.84C30.3067 30.0133 30.0933 30.1 29.84 30.1ZM48.9213 30.2C47.2946 30.2 46.0213 29.74 45.1012 28.82C44.1946 27.8867 43.7413 26.58 43.7413 24.9C43.7413 23.9533 43.9146 23.08 44.2613 22.28C44.6079 21.48 45.1413 20.8333 45.8612 20.34C46.5813 19.8467 47.4679 19.6 48.5213 19.6C49.5079 19.6 50.3612 19.8333 51.0812 20.3C51.8013 20.7533 52.3479 21.3667 52.7213 22.14C53.0946 22.9 53.2812 23.7333 53.2812 24.64C53.2812 24.8933 53.1946 25.1067 53.0213 25.28C52.8613 25.4533 52.6413 25.54 52.3613 25.54H45.5813C45.6879 26.4733 46.0346 27.2 46.6213 27.72C47.2079 28.24 48.0279 28.5 49.0812 28.5C49.6412 28.5 50.1279 28.4467 50.5413 28.34C50.9679 28.2333 51.3812 28.08 51.7812 27.88C51.8879 27.8267 52.0079 27.8 52.1412 27.8C52.3546 27.8 52.5412 27.8733 52.7012 28.02C52.8613 28.1667 52.9413 28.3533 52.9413 28.58C52.9413 28.8733 52.7679 29.12 52.4212 29.32C51.9012 29.6133 51.3879 29.8333 50.8813 29.98C50.3746 30.1267 49.7213 30.2 48.9213 30.2ZM51.4813 24.06C51.4413 23.4067 51.2679 22.86 50.9613 22.42C50.6679 21.98 50.3012 21.66 49.8613 21.46C49.4213 21.2467 48.9746 21.14 48.5213 21.14C48.0679 21.14 47.6212 21.2467 47.1812 21.46C46.7413 21.66 46.3746 21.98 46.0813 22.42C45.7879 22.86 45.6213 23.4067 45.5813 24.06H51.4813ZM55.8722 30.1C55.6055 30.1 55.3922 30.02 55.2322 29.86C55.0855 29.6867 55.0122 29.46 55.0122 29.18C55.0122 28.98 55.0789 28.7933 55.2122 28.62L58.3122 24.96L55.2122 21.18C55.0655 20.9933 54.9922 20.8 54.9922 20.6C54.9922 20.3333 55.0789 20.12 55.2522 19.96C55.4255 19.7867 55.6389 19.7 55.8922 19.7C56.2122 19.7 56.4522 19.8133 56.6122 20.04L59.4122 23.5L62.1922 20.04C62.3522 19.8133 62.5855 19.7 62.8922 19.7C63.1589 19.7 63.3789 19.7867 63.5522 19.96C63.7255 20.12 63.8122 20.32 63.8122 20.56C63.8122 20.76 63.7455 20.9467 63.6122 21.12L60.4522 24.84L63.5722 28.6C63.7189 28.76 63.7922 28.9533 63.7922 29.18C63.7922 29.4333 63.7122 29.6533 63.5522 29.84C63.3922 30.0133 63.1655 30.1 62.8722 30.1C62.5789 30.1 62.3455 29.98 62.1722 29.74L59.3322 26.34L56.6522 29.7C56.4522 29.9667 56.1922 30.1 55.8722 30.1ZM69.9125 30.2C67.9658 30.2 66.9925 29.32 66.9925 27.56V21.36H65.5725C65.4658 21.36 65.3725 21.3267 65.2925 21.26C65.2258 21.18 65.1925 21.0867 65.1925 20.98C65.1925 20.8467 65.2525 20.7333 65.3725 20.64L68.0925 17.98C68.2125 17.86 68.3258 17.8 68.4325 17.8C68.5392 17.8 68.6258 17.84 68.6925 17.92C68.7725 18 68.8125 18.0933 68.8125 18.2V19.8H71.0725C71.2992 19.8 71.4858 19.8733 71.6325 20.02C71.7792 20.1667 71.8525 20.3533 71.8525 20.58C71.8525 20.7933 71.7792 20.98 71.6325 21.14C71.4858 21.2867 71.2992 21.36 71.0725 21.36H68.8125V27.4C68.8125 27.92 68.9325 28.2533 69.1725 28.4C69.4258 28.5333 69.7392 28.6 70.1125 28.6C70.3792 28.6 70.6458 28.56 70.9125 28.48C70.9658 28.4667 71.0192 28.4533 71.0725 28.44C71.1392 28.4267 71.2192 28.42 71.3125 28.42C71.4992 28.42 71.6658 28.4933 71.8125 28.64C71.9592 28.7733 72.0325 28.94 72.0325 29.14C72.0325 29.4467 71.8792 29.68 71.5725 29.84C71.0525 30.08 70.4992 30.2 69.9125 30.2Z" fill="white"/>
</svg>
