<svg width="86" height="94" viewBox="0 0 86 94" fill="none" xmlns="http://www.w3.org/2000/svg">
<path d="M2.51117e-06 2.68936e-07V2.7115H7.86898V17.5099H10.5817V2.68936e-07H2.51117e-06Z" transform="translate(18.9866 12.5145) scale(-1 1)" fill="black"/>
<path d="M2.71268 0H0V2.99166H2.71268V0Z" transform="translate(11.1182 33.764) scale(-1 1)" fill="black"/>
<path d="M86 10.5519V0H8.05228V10.5519H11.7807V16.7583C9.45849 19.4319 8.04806 22.9173 8.04806 26.7278C8.04806 30.5382 9.45849 34.0234 11.7807 36.6973V42.2919C4.75019 46.3023 -1.12106e-07 53.8675 -1.12106e-07 62.5214V78.6892H34.3522L27.6007 94H38.8411L47.1852 75.077L55.5295 94H66.7698L57.5411 73.0714H86V62.5197H82.2716V10.5519H86ZM23.2851 14.2087C30.1546 14.2087 35.7478 19.7659 35.8068 26.6187C27.8195 26.3589 22.9567 23.7603 20.9009 22.3625C21.7524 21.3057 22.1271 20.5559 22.1684 20.4703L19.7277 19.2871C19.7051 19.3335 17.5593 23.6032 10.776 26.1173C11.0958 19.4967 16.584 14.2087 23.2851 14.2087ZM54.8086 39.2465H31.9487C35.9168 36.4942 38.5222 31.9102 38.5222 26.7274C38.5222 18.3293 31.6868 11.497 23.2851 11.497C20.0121 11.497 16.9794 12.5372 14.4934 14.2998V10.5519H79.5589V62.5188H36.8506V54.9516H54.8086C59.1402 54.9516 62.6647 51.429 62.6647 47.099C62.6647 42.7693 59.1404 39.2465 54.8086 39.2465ZM10.9584 28.9281C14.6561 27.6808 17.2518 25.9379 19.0048 24.3561C21.1865 25.9361 26.5369 28.999 35.5368 29.3243C34.3372 34.9851 29.3005 39.2467 23.2851 39.2467C17.1306 39.2465 12.0024 34.7848 10.9584 28.9281ZM29.6899 41.958L23.2851 49.2971L17.5822 42.7623C19.3938 42.2392 21.3071 41.9578 23.2851 41.9578H29.6899V41.958ZM16.3724 40.2935C15.7335 40.4923 15.1074 40.7196 14.4934 40.9708V39.1554C15.0896 39.578 15.7172 39.9586 16.3724 40.2935ZM34.1379 50.7602V75.9775H12.4322V63.2172H9.71949V75.9775H2.71269V62.5212C2.71269 54.1829 7.70385 46.9879 14.8567 43.764L21.9287 51.8676V61.6702H24.6414V51.8676L33.2895 41.9578H54.8084C57.6445 41.9578 59.9519 44.2641 59.9519 47.0988C59.9519 49.9336 57.6445 52.2399 54.8084 52.2399H36.8506V50.76H34.1379V50.7602ZM37.0721 91.2885H31.761L39.7941 73.0714H45.1051L37.0721 91.2885ZM62.6096 91.2885H57.2985L49.2653 73.0714H54.5764L62.6096 91.2885ZM83.2873 65.2312V70.3599H56.3454H49.2653H45.1051H38.0252H36.8508V65.2312H83.2873ZM11.7807 7.84037H10.765V2.7115H83.2873V7.84019H82.2716H11.7807V7.84037Z" transform="translate(86) scale(-1 1)" fill="black"/>
<path d="M2.71269 -2.06184e-06H0V3.4769H2.71269V-2.06184e-06Z" transform="translate(64.0708 64.616) scale(-1 1)" fill="black"/>
<path d="M20.5298 7.84397e-08C17.8401 7.84397e-08 15.6516 2.18734 15.6516 4.87607C15.6516 5.27189 15.7003 5.65671 15.7897 6.02536L8.26847 10.3277C7.39014 9.47748 6.1946 8.95277 4.87821 8.95277C2.18848 8.95277 2.51117e-06 11.1401 2.51117e-06 13.8288C2.51117e-06 16.5174 2.18848 18.7047 4.87821 18.7047C7.56793 18.7047 9.75641 16.5174 9.75641 13.8288C9.75641 13.433 9.70774 13.0482 9.61829 12.6795L17.1396 8.3772C18.0179 9.22742 19.2134 9.75213 20.5298 9.75213C23.2197 9.75213 25.408 7.5648 25.408 4.87607C25.408 2.18734 23.2196 7.84397e-08 20.5298 7.84397e-08ZM4.87857 15.9932C3.6845 15.9932 2.71306 15.0224 2.71306 13.8288C2.71306 12.6353 3.68432 11.6643 4.87857 11.6643C6.07282 11.6643 7.04409 12.6353 7.04409 13.8288C7.04373 15.0224 6.07245 15.9932 4.87857 15.9932ZM20.53 7.04064C19.3359 7.04064 18.3645 6.06979 18.3645 4.87607C18.3645 3.68271 19.3358 2.7115 20.53 2.7115C21.7241 2.7115 22.6955 3.68252 22.6955 4.87607C22.6955 6.06961 21.7243 7.04064 20.53 7.04064Z" transform="translate(42.2903 18.3643) scale(-1 1)" fill="black"/>
<path d="M4.87821 -7.39574e-07C2.18848 -7.39574e-07 2.01791e-06 2.18734 2.01791e-06 4.87607C2.01791e-06 7.56461 2.18848 9.75213 4.87821 9.75213C7.56793 9.75213 9.75641 7.5648 9.75641 4.87607C9.75641 2.18734 7.56793 -7.39574e-07 4.87821 -7.39574e-07ZM4.87821 7.04064C3.68414 7.04064 2.71268 6.06961 2.71268 4.87607C2.71268 3.68252 3.68396 2.7115 4.87821 2.7115C6.07209 2.7115 7.04373 3.68252 7.04373 4.87607C7.04373 6.06961 6.07227 7.04064 4.87821 7.04064Z" transform="translate(20.3428 42.3503) scale(-1 1)" fill="black"/>
</svg>
