<svg width="94" height="94" viewBox="0 0 94 94" fill="none" xmlns="http://www.w3.org/2000/svg">
<path d="M94 43.0633L93.9996 12.6914C93.9998 5.69323 88.3064 0 81.3081 0H50.9364C50.4171 0 49.9191 0.206359 49.552 0.573546L43.6151 6.51041C42.6 6.42595 41.5757 6.35766 40.5435 6.30772C27.4815 5.67506 16.3353 7.95345 12.1479 12.1118C10.4704 13.778 10.1732 15.4531 10.2189 16.5645C10.3848 20.5746 15.1829 24.1815 23.4959 26.6293L3.7042 46.421C1.31545 48.8098 0 51.997 0 55.3953C0 58.7938 1.31564 61.9808 3.7042 64.3691L29.4183 90.0832H27.4167C26.3353 90.0832 25.4583 90.9599 25.4583 92.0416C25.4583 93.123 26.3352 94 27.4167 94H66.5831C67.6645 94 68.5415 93.1232 68.5415 92.0416C68.5415 90.9601 67.6647 90.0832 66.5831 90.0832H47.7911L93.4263 44.4483C93.7938 44.0808 94 43.5827 94 43.0633ZM14.1324 16.4026C14.1252 16.2265 14.103 15.6903 14.9081 14.8907C17.6084 12.209 26.5731 9.62011 39.9235 10.2019L26.6867 23.4386C17.6056 21.154 14.1981 17.9905 14.1324 16.4026ZM44.8093 87.5258C43.1605 89.1748 40.9566 90.083 38.6046 90.083C36.2522 90.083 34.0487 89.175 32.4 87.5258L6.47354 61.5994C4.8245 59.9508 3.91625 57.7473 3.91625 55.3951C3.91625 53.0427 4.8245 50.8392 6.47354 49.1904L45.0818 10.5827C50.7484 11.1753 55.9802 12.3153 60.1461 13.891C62.909 14.9362 64.7723 16.0156 65.9413 16.9868C64.53 18.4043 63.6559 20.3574 63.6559 22.5113C63.6559 23.1188 63.7277 23.7098 63.8593 24.2778C63.8681 24.3259 63.8799 24.3737 63.8925 24.4212C63.8975 24.4416 63.9021 24.4622 63.9074 24.4825C63.9078 24.4842 63.9083 24.4859 63.909 24.4873C64.7868 27.853 67.8523 30.3443 71.4891 30.3443C75.8082 30.3443 79.3222 26.8305 79.3222 22.5111C79.3222 18.1917 75.8084 14.6776 71.4891 14.6776C70.7944 14.6776 70.121 14.7695 69.4793 14.9401C67.8205 13.1875 65.1498 11.5961 61.5317 10.2276C57.8438 8.83268 53.4036 7.75902 48.5925 7.07202L51.7476 3.91678H81.3079C86.1464 3.91678 90.0828 7.85321 90.0828 12.6916L90.0832 42.2522L44.8093 87.5258ZM71.475 19.1784C71.4669 18.9837 71.4469 18.7904 71.4179 18.5978C71.4417 18.5975 71.4651 18.5942 71.4891 18.5942C73.6486 18.5942 75.4054 20.3513 75.4054 22.5109C75.4054 24.6704 73.6486 26.4274 71.4891 26.4274C70.1423 26.4274 68.9524 25.7438 68.2472 24.7056C70.9782 22.7654 71.5368 20.6798 71.475 19.1784Z" fill="black"/>
<path d="M28.1625 0.0901468C27.1305 0.413455 26.5558 1.51226 26.8791 2.54424C27.2351 3.68105 27.4158 4.86174 27.4158 6.05381C27.4158 12.5326 22.1452 17.8032 15.6665 17.8032C9.18743 17.8032 3.91681 12.5326 3.91681 6.05381C3.91681 4.97226 3.04014 4.09542 1.9584 4.09542C0.876844 4.09542 -1.34469e-06 4.97208 -1.34469e-06 6.05381C-1.34469e-06 14.6921 7.02781 21.7198 15.6663 21.7198C24.3044 21.7198 31.3322 14.6921 31.3322 6.05381C31.3322 4.46426 31.0915 2.8894 30.6164 1.37347C30.2933 0.341303 29.1943 -0.233345 28.1625 0.0901468Z" transform="translate(55.8226 16.4571)" fill="black"/>
<path d="M2.8372 4.75399C3.32501 4.75399 3.81374 4.5726 4.19378 4.2078C4.97351 3.45855 4.99847 2.21893 4.24923 1.43884C3.92793 1.10415 3.58994 0.781946 3.24441 0.481403C2.42852 -0.22892 1.19164 -0.143181 0.481314 0.672524C-0.22883 1.48823 -0.143276 2.7251 0.672618 3.43542C0.930568 3.65996 1.18356 3.90138 1.42481 4.15217C1.80925 4.55259 2.32258 4.75399 2.8372 4.75399Z" transform="translate(78.5392 10.2203)" fill="black"/>
<path d="M29.1933 27.0657C29.5545 26.5591 29.8776 26.0385 30.1523 25.5108C31.9063 22.1421 31.583 18.0092 29.3287 14.9823C27.288 12.2422 24.1304 10.9781 20.8822 11.6012C18.5566 12.0472 16.3395 13.3052 14.1953 14.5218C13.7029 14.8013 13.2377 15.0653 12.7699 15.3208C9.90289 16.8852 7.16568 16.9958 5.44741 15.6162C4.02951 14.4776 3.55768 12.5047 4.18465 10.3388C4.36586 9.71371 4.68715 9.10382 5.1107 8.52182L8.34986 11.7613C8.73229 12.1436 9.2335 12.3349 9.73471 12.3349C10.2359 12.3349 10.7368 12.1438 11.1192 11.7613C11.8839 10.9968 11.8841 9.75686 11.1192 8.99182L7.99552 5.86761C9.40534 4.93533 11.01 4.22537 12.4945 3.86075C13.5448 3.60262 14.1869 2.54182 13.9286 1.4913C13.6702 0.440959 12.6096 -0.201435 11.5591 0.0572483C9.46997 0.570759 7.16366 1.59521 5.16927 3.04083L3.67279 1.54436C2.9083 0.779873 1.66849 0.779689 0.903266 1.54436C0.138412 2.30884 0.138413 3.54883 0.903084 4.31386L2.31052 5.72147C1.45772 6.78283 0.794763 7.96333 0.42225 9.2494C-0.643516 12.9303 0.342204 16.5399 2.99514 18.6701C5.9881 21.0732 10.3435 21.1064 14.6457 18.7588C14.796 18.6767 14.9466 18.5919 15.0973 18.5084L23.7569 27.1679C21.874 28.6481 19.7368 29.3722 18.4081 28.9514C17.3768 28.6246 16.2764 29.1959 15.9498 30.2272C15.6231 31.2582 16.1943 32.3589 17.2254 32.6853C17.8856 32.8942 18.5702 32.9917 19.2668 32.9917C21.7468 32.9915 24.3721 31.7572 26.5299 29.9408L28.5979 32.0089C28.9804 32.3913 29.4816 32.5825 29.9824 32.5825C30.4838 32.5825 30.9849 32.3912 31.3671 32.0089C32.1318 31.2443 32.1318 30.0045 31.3673 29.2394L29.1933 27.0657ZM26.6785 23.7015C26.5824 23.886 26.4787 24.0661 26.3715 24.2437L18.6725 16.5445C19.6936 16.0359 20.6931 15.6256 21.6199 15.4479C23.3844 15.1097 25.0487 15.7925 26.1877 17.3216C27.5509 19.1521 27.7433 21.6565 26.6785 23.7015Z" transform="translate(27.9433 33.1445)" fill="black"/>
<path d="M3.3433 0.573936C2.57881 -0.190914 1.33882 -0.191465 0.573779 0.573202C-0.191075 1.33768 -0.19126 2.57767 0.573227 3.34289L1.37443 4.14446C1.75686 4.52707 2.25844 4.71837 2.75965 4.71837C3.26068 4.71837 3.76171 4.52744 4.14396 4.14519C4.90881 3.38071 4.90936 2.14072 4.14469 1.3755L3.3433 0.573936Z" transform="translate(21.7214 66.2058)" fill="black"/>
<path d="M15.8061 4.72788L11.6518 8.88241L3.34319 0.57352C2.57851 -0.191146 1.33852 -0.191142 0.573665 0.573341C-0.19119 1.33801 -0.191191 2.578 0.57348 3.34303L8.88241 11.6519C9.64598 12.4153 10.6488 12.7972 11.6519 12.7972C12.6547 12.7972 13.6579 12.4155 14.4216 11.6519L18.576 7.49756C19.3407 6.7329 19.3407 5.49291 18.576 4.72788C17.811 3.96303 16.571 3.96303 15.8061 4.72788Z" transform="translate(26.9532 71.4382)" fill="black"/>
</svg>
