<svg width="379" height="36" viewBox="0 0 379 36" fill="none" xmlns="http://www.w3.org/2000/svg">
<g filter="url(#filter0_d)">
<rect x="8" y="8" width="363" height="20" rx="10" fill="white"/>
</g>
<path d="M162.42 22.05C162.293 22.05 162.187 22.0067 162.1 21.92C162.013 21.8333 161.97 21.7267 161.97 21.6V15.48C161.97 15.3533 162.013 15.2467 162.1 15.16C162.187 15.0667 162.293 15.02 162.42 15.02H164.7C165.333 15.02 165.85 15.1267 166.25 15.34C166.65 15.5533 166.937 15.8267 167.11 16.16C167.283 16.4933 167.37 16.8533 167.37 17.24C167.37 17.6267 167.283 17.9867 167.11 18.32C166.937 18.6533 166.65 18.9267 166.25 19.14C165.85 19.3533 165.333 19.46 164.7 19.46H162.88V21.6C162.88 21.7267 162.833 21.8333 162.74 21.92C162.653 22.0067 162.547 22.05 162.42 22.05ZM164.61 18.6C165.29 18.6 165.767 18.47 166.04 18.21C166.32 17.95 166.46 17.6267 166.46 17.24C166.46 16.8533 166.32 16.53 166.04 16.27C165.767 16.01 165.29 15.88 164.61 15.88H162.88V18.6H164.61ZM168.881 22.05C168.754 22.05 168.647 22.0067 168.561 21.92C168.474 21.8333 168.431 21.7267 168.431 21.6V17.31C168.431 17.1833 168.474 17.0767 168.561 16.99C168.647 16.8967 168.754 16.85 168.881 16.85C169.007 16.85 169.114 16.8967 169.201 16.99C169.294 17.0767 169.341 17.1833 169.341 17.31V17.74C169.807 17.1133 170.331 16.8 170.911 16.8H170.961C171.087 16.8 171.191 16.8433 171.271 16.93C171.357 17.0167 171.401 17.1233 171.401 17.25C171.401 17.3767 171.357 17.48 171.271 17.56C171.184 17.64 171.074 17.68 170.941 17.68H170.891C170.571 17.68 170.277 17.76 170.011 17.92C169.744 18.0733 169.521 18.2867 169.341 18.56V21.6C169.341 21.7267 169.294 21.8333 169.201 21.92C169.114 22.0067 169.007 22.05 168.881 22.05ZM174.362 22.1C173.849 22.1 173.399 21.99 173.012 21.77C172.626 21.55 172.326 21.24 172.112 20.84C171.906 20.4333 171.802 19.97 171.802 19.45C171.802 18.93 171.906 18.47 172.112 18.07C172.326 17.6633 172.626 17.35 173.012 17.13C173.399 16.91 173.849 16.8 174.362 16.8C174.869 16.8 175.316 16.91 175.702 17.13C176.089 17.35 176.389 17.6633 176.602 18.07C176.816 18.47 176.922 18.93 176.922 19.45C176.922 19.97 176.816 20.4333 176.602 20.84C176.389 21.24 176.089 21.55 175.702 21.77C175.316 21.99 174.869 22.1 174.362 22.1ZM174.362 21.27C174.636 21.27 174.896 21.2067 175.142 21.08C175.396 20.9533 175.602 20.7533 175.762 20.48C175.929 20.2067 176.012 19.86 176.012 19.44C176.012 19.0267 175.929 18.6833 175.762 18.41C175.602 18.1367 175.396 17.94 175.142 17.82C174.896 17.6933 174.636 17.63 174.362 17.63C174.082 17.63 173.816 17.6933 173.562 17.82C173.316 17.94 173.112 18.1367 172.952 18.41C172.792 18.6833 172.712 19.0267 172.712 19.44C172.712 19.86 172.792 20.2067 172.952 20.48C173.112 20.7533 173.316 20.9533 173.562 21.08C173.816 21.2067 174.082 21.27 174.362 21.27ZM180.576 24.4C180.19 24.4 179.8 24.35 179.406 24.25C179.013 24.15 178.69 24.0267 178.436 23.88C178.316 23.8067 178.256 23.69 178.256 23.53C178.256 23.4233 178.293 23.3267 178.366 23.24C178.446 23.16 178.543 23.12 178.656 23.12C178.71 23.12 178.77 23.1333 178.836 23.16C179.343 23.4133 179.893 23.54 180.486 23.54C181.506 23.54 182.016 22.9967 182.016 21.91V21.24C181.543 21.7467 180.973 22 180.306 22C179.913 22 179.53 21.9033 179.156 21.71C178.79 21.51 178.486 21.2167 178.246 20.83C178.006 20.4367 177.886 19.96 177.886 19.4C177.886 18.84 178.006 18.3667 178.246 17.98C178.486 17.5867 178.79 17.2933 179.156 17.1C179.53 16.9 179.913 16.8 180.306 16.8C180.973 16.8 181.543 17.0533 182.016 17.56V17.31C182.016 17.1833 182.06 17.0767 182.146 16.99C182.233 16.8967 182.34 16.85 182.466 16.85C182.593 16.85 182.7 16.8967 182.786 16.99C182.88 17.0767 182.926 17.1833 182.926 17.31V21.78C182.926 22.62 182.723 23.2667 182.316 23.72C181.91 24.1733 181.33 24.4 180.576 24.4ZM180.496 21.17C180.81 21.17 181.086 21.1033 181.326 20.97C181.566 20.8367 181.796 20.6567 182.016 20.43V18.37C181.796 18.1433 181.566 17.9633 181.326 17.83C181.086 17.6967 180.81 17.63 180.496 17.63C179.996 17.63 179.586 17.7833 179.266 18.09C178.953 18.39 178.796 18.8267 178.796 19.4C178.796 19.9733 178.953 20.4133 179.266 20.72C179.586 21.02 179.996 21.17 180.496 21.17ZM184.955 22.05C184.828 22.05 184.722 22.0067 184.635 21.92C184.548 21.8333 184.505 21.7267 184.505 21.6V17.31C184.505 17.1833 184.548 17.0767 184.635 16.99C184.722 16.8967 184.828 16.85 184.955 16.85C185.082 16.85 185.188 16.8967 185.275 16.99C185.368 17.0767 185.415 17.1833 185.415 17.31V17.74C185.882 17.1133 186.405 16.8 186.985 16.8H187.035C187.162 16.8 187.265 16.8433 187.345 16.93C187.432 17.0167 187.475 17.1233 187.475 17.25C187.475 17.3767 187.432 17.48 187.345 17.56C187.258 17.64 187.148 17.68 187.015 17.68H186.965C186.645 17.68 186.352 17.76 186.085 17.92C185.818 18.0733 185.595 18.2867 185.415 18.56V21.6C185.415 21.7267 185.368 21.8333 185.275 21.92C185.188 22.0067 185.082 22.05 184.955 22.05ZM190.466 22.1C189.653 22.1 189.016 21.87 188.556 21.41C188.103 20.9433 187.876 20.29 187.876 19.45C187.876 18.9767 187.963 18.54 188.136 18.14C188.31 17.74 188.576 17.4167 188.936 17.17C189.296 16.9233 189.74 16.8 190.266 16.8C190.76 16.8 191.186 16.9167 191.546 17.15C191.906 17.3767 192.18 17.6833 192.366 18.07C192.553 18.45 192.646 18.8667 192.646 19.32C192.646 19.4467 192.603 19.5533 192.516 19.64C192.436 19.7267 192.326 19.77 192.186 19.77H188.796C188.85 20.2367 189.023 20.6 189.316 20.86C189.61 21.12 190.02 21.25 190.546 21.25C190.826 21.25 191.07 21.2233 191.276 21.17C191.49 21.1167 191.696 21.04 191.896 20.94C191.95 20.9133 192.01 20.9 192.076 20.9C192.183 20.9 192.276 20.9367 192.356 21.01C192.436 21.0833 192.476 21.1767 192.476 21.29C192.476 21.4367 192.39 21.56 192.216 21.66C191.956 21.8067 191.7 21.9167 191.446 21.99C191.193 22.0633 190.866 22.1 190.466 22.1ZM191.746 19.03C191.726 18.7033 191.64 18.43 191.486 18.21C191.34 17.99 191.156 17.83 190.936 17.73C190.716 17.6233 190.493 17.57 190.266 17.57C190.04 17.57 189.816 17.6233 189.596 17.73C189.376 17.83 189.193 17.99 189.046 18.21C188.9 18.43 188.816 18.7033 188.796 19.03H191.746ZM195.501 22.1C194.834 22.1 194.227 21.95 193.681 21.65C193.567 21.57 193.511 21.46 193.511 21.32C193.511 21.2133 193.547 21.12 193.621 21.04C193.694 20.96 193.787 20.92 193.901 20.92C193.961 20.92 194.021 20.9333 194.081 20.96C194.294 21.0533 194.507 21.1267 194.721 21.18C194.934 21.2333 195.174 21.26 195.441 21.26C196.181 21.26 196.551 21.0233 196.551 20.55C196.551 20.3967 196.464 20.28 196.291 20.2C196.124 20.12 195.847 20.03 195.461 19.93C195.067 19.8367 194.741 19.74 194.481 19.64C194.227 19.54 194.007 19.39 193.821 19.19C193.641 18.9833 193.551 18.7133 193.551 18.38C193.551 17.9133 193.717 17.5333 194.051 17.24C194.391 16.9467 194.874 16.8 195.501 16.8C196.014 16.8 196.497 16.8833 196.951 17.05C197.044 17.0767 197.114 17.1267 197.161 17.2C197.214 17.2733 197.241 17.35 197.241 17.43C197.241 17.5367 197.201 17.63 197.121 17.71C197.047 17.79 196.954 17.83 196.841 17.83C196.807 17.83 196.764 17.8233 196.711 17.81C196.324 17.69 195.944 17.63 195.571 17.63C195.211 17.63 194.927 17.6967 194.721 17.83C194.521 17.9567 194.421 18.1233 194.421 18.33C194.421 18.53 194.514 18.6767 194.701 18.77C194.887 18.8633 195.177 18.9533 195.571 19.04C195.964 19.14 196.284 19.24 196.531 19.34C196.777 19.4333 196.987 19.5833 197.161 19.79C197.341 19.9967 197.431 20.2733 197.431 20.62C197.431 21.0467 197.261 21.4 196.921 21.68C196.587 21.96 196.114 22.1 195.501 22.1ZM200.305 22.1C199.639 22.1 199.032 21.95 198.485 21.65C198.372 21.57 198.315 21.46 198.315 21.32C198.315 21.2133 198.352 21.12 198.425 21.04C198.499 20.96 198.592 20.92 198.705 20.92C198.765 20.92 198.825 20.9333 198.885 20.96C199.099 21.0533 199.312 21.1267 199.525 21.18C199.739 21.2333 199.979 21.26 200.245 21.26C200.985 21.26 201.355 21.0233 201.355 20.55C201.355 20.3967 201.269 20.28 201.095 20.2C200.929 20.12 200.652 20.03 200.265 19.93C199.872 19.8367 199.545 19.74 199.285 19.64C199.032 19.54 198.812 19.39 198.625 19.19C198.445 18.9833 198.355 18.7133 198.355 18.38C198.355 17.9133 198.522 17.5333 198.855 17.24C199.195 16.9467 199.679 16.8 200.305 16.8C200.819 16.8 201.302 16.8833 201.755 17.05C201.849 17.0767 201.919 17.1267 201.965 17.2C202.019 17.2733 202.045 17.35 202.045 17.43C202.045 17.5367 202.005 17.63 201.925 17.71C201.852 17.79 201.759 17.83 201.645 17.83C201.612 17.83 201.569 17.8233 201.515 17.81C201.129 17.69 200.749 17.63 200.375 17.63C200.015 17.63 199.732 17.6967 199.525 17.83C199.325 17.9567 199.225 18.1233 199.225 18.33C199.225 18.53 199.319 18.6767 199.505 18.77C199.692 18.8633 199.982 18.9533 200.375 19.04C200.769 19.14 201.089 19.24 201.335 19.34C201.582 19.4333 201.792 19.5833 201.965 19.79C202.145 19.9967 202.235 20.2733 202.235 20.62C202.235 21.0467 202.065 21.4 201.725 21.68C201.392 21.96 200.919 22.1 200.305 22.1Z" fill="#C6C6C6"/>
<path d="M8 18C8 12.4772 12.4772 8 18 8H80V28H18C12.4772 28 8 23.5228 8 18Z" fill="#EB5757"/>
<path d="M88.94 22.1C88.2 22.1 87.5033 21.9667 86.85 21.7C86.77 21.6667 86.7067 21.62 86.66 21.56C86.6133 21.4933 86.59 21.4133 86.59 21.32C86.59 21.2067 86.6267 21.11 86.7 21.03C86.78 20.9433 86.8767 20.9 86.99 20.9C87.05 20.9 87.1133 20.9133 87.18 20.94C87.66 21.1333 88.19 21.23 88.77 21.23C89.29 21.23 89.7267 21.1467 90.08 20.98C90.44 20.8067 90.62 20.52 90.62 20.12C90.62 19.28 89.8833 18.86 88.41 18.86H88.25C88.1367 18.86 88.0367 18.82 87.95 18.74C87.87 18.6533 87.83 18.5533 87.83 18.44C87.83 18.3267 87.87 18.23 87.95 18.15C88.0367 18.0633 88.1367 18.02 88.25 18.02H88.31C88.9767 18.02 89.4867 17.92 89.84 17.72C90.1933 17.5133 90.37 17.21 90.37 16.81C90.37 16.49 90.2367 16.2367 89.97 16.05C89.7033 15.8633 89.31 15.77 88.79 15.77C88.23 15.77 87.7133 15.88 87.24 16.1C87.1733 16.1267 87.1133 16.14 87.06 16.14C86.96 16.14 86.8733 16.1067 86.8 16.04C86.7267 15.9667 86.69 15.8767 86.69 15.77C86.69 15.6167 86.7567 15.5033 86.89 15.43C87.53 15.09 88.19 14.92 88.87 14.92C89.6367 14.92 90.23 15.0767 90.65 15.39C91.07 15.7033 91.28 16.1467 91.28 16.72C91.28 17.18 91.1633 17.5433 90.93 17.81C90.7033 18.07 90.4167 18.2633 90.07 18.39C90.45 18.4767 90.7867 18.66 91.08 18.94C91.38 19.2133 91.53 19.6233 91.53 20.17C91.53 20.7833 91.2867 21.26 90.8 21.6C90.32 21.9333 89.7 22.1 88.94 22.1ZM95.4193 22.1C94.7926 22.1 94.2793 22.0033 93.8793 21.81C93.486 21.6167 93.1993 21.3733 93.0193 21.08C92.8393 20.7867 92.7493 20.4767 92.7493 20.15C92.7493 19.2233 93.246 18.5933 94.2393 18.26C93.8993 18.1467 93.6193 17.9633 93.3993 17.71C93.186 17.45 93.0793 17.1267 93.0793 16.74C93.0793 16.4533 93.156 16.17 93.3093 15.89C93.4693 15.61 93.7226 15.38 94.0693 15.2C94.4226 15.0133 94.8726 14.92 95.4193 14.92C95.966 14.92 96.4126 15.0133 96.7593 15.2C97.1126 15.38 97.366 15.61 97.5193 15.89C97.6793 16.17 97.7593 16.4533 97.7593 16.74C97.7593 17.1267 97.6493 17.45 97.4293 17.71C97.216 17.9633 96.9393 18.1467 96.5993 18.26C97.5926 18.5933 98.0893 19.2233 98.0893 20.15C98.0893 20.4767 97.9993 20.7867 97.8193 21.08C97.6393 21.3733 97.3493 21.6167 96.9493 21.81C96.556 22.0033 96.046 22.1 95.4193 22.1ZM95.4193 17.88C95.9126 17.88 96.2726 17.77 96.4993 17.55C96.7326 17.33 96.8493 17.08 96.8493 16.8C96.8493 16.4867 96.726 16.23 96.4793 16.03C96.2393 15.8233 95.886 15.72 95.4193 15.72C94.9526 15.72 94.596 15.8233 94.3493 16.03C94.1093 16.23 93.9893 16.4867 93.9893 16.8C93.9893 17.08 94.1026 17.33 94.3293 17.55C94.5626 17.77 94.926 17.88 95.4193 17.88ZM95.4193 21.3C95.8326 21.3 96.1693 21.2333 96.4293 21.1C96.696 20.96 96.886 20.7933 96.9993 20.6C97.1193 20.4067 97.1793 20.2233 97.1793 20.05C97.1793 19.6233 97.0093 19.2933 96.6693 19.06C96.3293 18.82 95.9126 18.7 95.4193 18.7C94.926 18.7 94.5093 18.82 94.1693 19.06C93.8293 19.2933 93.6593 19.6233 93.6593 20.05C93.6593 20.2233 93.716 20.4067 93.8293 20.6C93.9493 20.7933 94.1393 20.96 94.3993 21.1C94.666 21.2333 95.006 21.3 95.4193 21.3ZM100.599 18.43C100.085 18.43 99.6886 18.2633 99.4086 17.93C99.1286 17.59 98.9886 17.16 98.9886 16.64C98.9886 16.12 99.1286 15.6933 99.4086 15.36C99.6886 15.02 100.085 14.85 100.599 14.85C101.112 14.85 101.509 15.02 101.789 15.36C102.069 15.6933 102.209 16.12 102.209 16.64C102.209 17.16 102.069 17.59 101.789 17.93C101.509 18.2633 101.112 18.43 100.599 18.43ZM100.599 22.1C100.512 22.1 100.435 22.0667 100.369 22C100.302 21.94 100.269 21.8633 100.269 21.77C100.269 21.71 100.285 21.6533 100.319 21.6L104.389 15.09C104.455 14.9833 104.549 14.93 104.669 14.93C104.769 14.93 104.849 14.9567 104.909 15.01C104.975 15.0633 105.009 15.1367 105.009 15.23C105.009 15.3033 104.985 15.3767 104.939 15.45L100.899 21.92C100.865 21.9733 100.822 22.0167 100.769 22.05C100.715 22.0833 100.659 22.1 100.599 22.1ZM100.599 17.78C100.885 17.78 101.109 17.6733 101.269 17.46C101.429 17.2467 101.509 16.9733 101.509 16.64C101.509 16.3067 101.429 16.0333 101.269 15.82C101.109 15.6067 100.885 15.5 100.599 15.5C100.312 15.5 100.089 15.6067 99.9286 15.82C99.7686 16.0333 99.6886 16.3067 99.6886 16.64C99.6886 16.9733 99.7686 17.2467 99.9286 17.46C100.089 17.6733 100.312 17.78 100.599 17.78ZM104.659 22.18C104.145 22.18 103.749 22.0133 103.469 21.68C103.189 21.34 103.049 20.91 103.049 20.39C103.049 19.87 103.189 19.4433 103.469 19.11C103.749 18.77 104.145 18.6 104.659 18.6C105.172 18.6 105.569 18.77 105.849 19.11C106.129 19.4433 106.269 19.87 106.269 20.39C106.269 20.91 106.129 21.34 105.849 21.68C105.569 22.0133 105.172 22.18 104.659 22.18ZM104.659 21.53C104.945 21.53 105.169 21.4233 105.329 21.21C105.489 20.9967 105.569 20.7233 105.569 20.39C105.569 20.0567 105.489 19.7833 105.329 19.57C105.169 19.3567 104.945 19.25 104.659 19.25C104.372 19.25 104.149 19.3567 103.989 19.57C103.829 19.7833 103.749 20.0567 103.749 20.39C103.749 20.7233 103.829 20.9967 103.989 21.21C104.149 21.4233 104.372 21.53 104.659 21.53Z" fill="#EB5757"/>
<defs>
<filter id="filter0_d" x="0" y="0" width="379" height="36" filterUnits="userSpaceOnUse" color-interpolation-filters="sRGB">
<feFlood flood-opacity="0" result="BackgroundImageFix"/>
<feColorMatrix in="SourceAlpha" type="matrix" values="0 0 0 0 0 0 0 0 0 0 0 0 0 0 0 0 0 0 127 0"/>
<feOffset/>
<feGaussianBlur stdDeviation="4"/>
<feColorMatrix type="matrix" values="0 0 0 0 0 0 0 0 0 0 0 0 0 0 0 0 0 0 0.25 0"/>
<feBlend mode="normal" in2="BackgroundImageFix" result="effect1_dropShadow"/>
<feBlend mode="normal" in="SourceGraphic" in2="effect1_dropShadow" result="shape"/>
</filter>
</defs>
</svg>
