<svg width="379" height="36" viewBox="0 0 379 36" fill="none" xmlns="http://www.w3.org/2000/svg">
<g filter="url(#filter0_d)">
<rect x="8" y="8" width="363" height="20" rx="10" fill="white"/>
</g>
<path d="M8 18C8 12.4772 12.4772 8 18 8H258V28H18C12.4772 28 8 23.5228 8 18Z" fill="#F2994A"/>
<path d="M267.33 22.1C265.503 22.1 264.59 20.9067 264.59 18.52C264.59 17.94 264.683 17.3767 264.87 16.83C265.063 16.2833 265.377 15.83 265.81 15.47C266.243 15.1033 266.803 14.92 267.49 14.92C267.863 14.92 268.19 14.96 268.47 15.04C268.75 15.12 269.013 15.2233 269.26 15.35C269.32 15.3833 269.37 15.4333 269.41 15.5C269.45 15.5667 269.47 15.6367 269.47 15.71C269.47 15.8167 269.43 15.9133 269.35 16C269.277 16.08 269.18 16.12 269.06 16.12C269 16.12 268.943 16.11 268.89 16.09C268.477 15.8967 268.033 15.8 267.56 15.8C266.807 15.8 266.277 16.0633 265.97 16.59C265.663 17.1167 265.493 17.7067 265.46 18.36C265.66 18.1067 265.927 17.8967 266.26 17.73C266.593 17.5633 267.01 17.48 267.51 17.48C267.963 17.48 268.36 17.5767 268.7 17.77C269.047 17.9633 269.317 18.2367 269.51 18.59C269.703 18.9433 269.8 19.3567 269.8 19.83C269.8 20.25 269.7 20.6333 269.5 20.98C269.3 21.3267 269.013 21.6 268.64 21.8C268.267 22 267.83 22.1 267.33 22.1ZM267.34 21.25C267.647 21.25 267.917 21.1867 268.15 21.06C268.39 20.9267 268.573 20.75 268.7 20.53C268.827 20.31 268.89 20.07 268.89 19.81C268.89 19.3567 268.763 18.9933 268.51 18.72C268.257 18.4467 267.887 18.31 267.4 18.31C266.533 18.31 265.903 18.6767 265.51 19.41C265.69 20.6367 266.3 21.25 267.34 21.25ZM271.459 22C271.306 22 271.179 21.9533 271.079 21.86C270.979 21.76 270.929 21.6333 270.929 21.48C270.929 21.1333 271.029 20.8133 271.229 20.52C271.436 20.2267 271.683 19.97 271.969 19.75C272.263 19.5233 272.646 19.2567 273.119 18.95C273.526 18.69 273.849 18.47 274.089 18.29C274.329 18.11 274.529 17.9133 274.689 17.7C274.849 17.4867 274.929 17.26 274.929 17.02C274.929 16.64 274.803 16.34 274.549 16.12C274.303 15.8933 273.903 15.78 273.349 15.78C272.749 15.78 272.179 15.9 271.639 16.14C271.573 16.1733 271.509 16.19 271.449 16.19C271.343 16.19 271.253 16.1533 271.179 16.08C271.106 16.0067 271.069 15.9133 271.069 15.8C271.069 15.6333 271.143 15.51 271.289 15.43C271.969 15.09 272.709 14.92 273.509 14.92C273.936 14.92 274.323 15.0067 274.669 15.18C275.023 15.3467 275.299 15.5833 275.499 15.89C275.706 16.1967 275.809 16.55 275.809 16.95C275.809 17.3433 275.693 17.71 275.459 18.05C275.233 18.3833 274.959 18.6767 274.639 18.93C274.319 19.1833 273.903 19.4767 273.389 19.81C272.923 20.1233 272.569 20.3767 272.329 20.57C272.096 20.7567 271.933 20.95 271.839 21.15H275.319C275.439 21.15 275.539 21.1933 275.619 21.28C275.706 21.36 275.749 21.46 275.749 21.58C275.749 21.7 275.706 21.8 275.619 21.88C275.539 21.96 275.439 22 275.319 22H271.459ZM278.599 18.43C278.085 18.43 277.689 18.2633 277.409 17.93C277.129 17.59 276.989 17.16 276.989 16.64C276.989 16.12 277.129 15.6933 277.409 15.36C277.689 15.02 278.085 14.85 278.599 14.85C279.112 14.85 279.509 15.02 279.789 15.36C280.069 15.6933 280.209 16.12 280.209 16.64C280.209 17.16 280.069 17.59 279.789 17.93C279.509 18.2633 279.112 18.43 278.599 18.43ZM278.599 22.1C278.512 22.1 278.435 22.0667 278.369 22C278.302 21.94 278.269 21.8633 278.269 21.77C278.269 21.71 278.285 21.6533 278.319 21.6L282.389 15.09C282.455 14.9833 282.549 14.93 282.669 14.93C282.769 14.93 282.849 14.9567 282.909 15.01C282.975 15.0633 283.009 15.1367 283.009 15.23C283.009 15.3033 282.985 15.3767 282.939 15.45L278.899 21.92C278.865 21.9733 278.822 22.0167 278.769 22.05C278.715 22.0833 278.659 22.1 278.599 22.1ZM278.599 17.78C278.885 17.78 279.109 17.6733 279.269 17.46C279.429 17.2467 279.509 16.9733 279.509 16.64C279.509 16.3067 279.429 16.0333 279.269 15.82C279.109 15.6067 278.885 15.5 278.599 15.5C278.312 15.5 278.089 15.6067 277.929 15.82C277.769 16.0333 277.689 16.3067 277.689 16.64C277.689 16.9733 277.769 17.2467 277.929 17.46C278.089 17.6733 278.312 17.78 278.599 17.78ZM282.659 22.18C282.145 22.18 281.749 22.0133 281.469 21.68C281.189 21.34 281.049 20.91 281.049 20.39C281.049 19.87 281.189 19.4433 281.469 19.11C281.749 18.77 282.145 18.6 282.659 18.6C283.172 18.6 283.569 18.77 283.849 19.11C284.129 19.4433 284.269 19.87 284.269 20.39C284.269 20.91 284.129 21.34 283.849 21.68C283.569 22.0133 283.172 22.18 282.659 22.18ZM282.659 21.53C282.945 21.53 283.169 21.4233 283.329 21.21C283.489 20.9967 283.569 20.7233 283.569 20.39C283.569 20.0567 283.489 19.7833 283.329 19.57C283.169 19.3567 282.945 19.25 282.659 19.25C282.372 19.25 282.149 19.3567 281.989 19.57C281.829 19.7833 281.749 20.0567 281.749 20.39C281.749 20.7233 281.829 20.9967 281.989 21.21C282.149 21.4233 282.372 21.53 282.659 21.53Z" fill="#F2994A"/>
<path d="M162.42 22.05C162.293 22.05 162.187 22.0067 162.1 21.92C162.013 21.8333 161.97 21.7267 161.97 21.6V15.48C161.97 15.3533 162.013 15.2467 162.1 15.16C162.187 15.0667 162.293 15.02 162.42 15.02H164.7C165.333 15.02 165.85 15.1267 166.25 15.34C166.65 15.5533 166.937 15.8267 167.11 16.16C167.283 16.4933 167.37 16.8533 167.37 17.24C167.37 17.6267 167.283 17.9867 167.11 18.32C166.937 18.6533 166.65 18.9267 166.25 19.14C165.85 19.3533 165.333 19.46 164.7 19.46H162.88V21.6C162.88 21.7267 162.833 21.8333 162.74 21.92C162.653 22.0067 162.547 22.05 162.42 22.05ZM164.61 18.6C165.29 18.6 165.767 18.47 166.04 18.21C166.32 17.95 166.46 17.6267 166.46 17.24C166.46 16.8533 166.32 16.53 166.04 16.27C165.767 16.01 165.29 15.88 164.61 15.88H162.88V18.6H164.61ZM168.881 22.05C168.754 22.05 168.647 22.0067 168.561 21.92C168.474 21.8333 168.431 21.7267 168.431 21.6V17.31C168.431 17.1833 168.474 17.0767 168.561 16.99C168.647 16.8967 168.754 16.85 168.881 16.85C169.007 16.85 169.114 16.8967 169.201 16.99C169.294 17.0767 169.341 17.1833 169.341 17.31V17.74C169.807 17.1133 170.331 16.8 170.911 16.8H170.961C171.087 16.8 171.191 16.8433 171.271 16.93C171.357 17.0167 171.401 17.1233 171.401 17.25C171.401 17.3767 171.357 17.48 171.271 17.56C171.184 17.64 171.074 17.68 170.941 17.68H170.891C170.571 17.68 170.277 17.76 170.011 17.92C169.744 18.0733 169.521 18.2867 169.341 18.56V21.6C169.341 21.7267 169.294 21.8333 169.201 21.92C169.114 22.0067 169.007 22.05 168.881 22.05ZM174.362 22.1C173.849 22.1 173.399 21.99 173.012 21.77C172.626 21.55 172.326 21.24 172.112 20.84C171.906 20.4333 171.802 19.97 171.802 19.45C171.802 18.93 171.906 18.47 172.112 18.07C172.326 17.6633 172.626 17.35 173.012 17.13C173.399 16.91 173.849 16.8 174.362 16.8C174.869 16.8 175.316 16.91 175.702 17.13C176.089 17.35 176.389 17.6633 176.602 18.07C176.816 18.47 176.922 18.93 176.922 19.45C176.922 19.97 176.816 20.4333 176.602 20.84C176.389 21.24 176.089 21.55 175.702 21.77C175.316 21.99 174.869 22.1 174.362 22.1ZM174.362 21.27C174.636 21.27 174.896 21.2067 175.142 21.08C175.396 20.9533 175.602 20.7533 175.762 20.48C175.929 20.2067 176.012 19.86 176.012 19.44C176.012 19.0267 175.929 18.6833 175.762 18.41C175.602 18.1367 175.396 17.94 175.142 17.82C174.896 17.6933 174.636 17.63 174.362 17.63C174.082 17.63 173.816 17.6933 173.562 17.82C173.316 17.94 173.112 18.1367 172.952 18.41C172.792 18.6833 172.712 19.0267 172.712 19.44C172.712 19.86 172.792 20.2067 172.952 20.48C173.112 20.7533 173.316 20.9533 173.562 21.08C173.816 21.2067 174.082 21.27 174.362 21.27ZM180.576 24.4C180.19 24.4 179.8 24.35 179.406 24.25C179.013 24.15 178.69 24.0267 178.436 23.88C178.316 23.8067 178.256 23.69 178.256 23.53C178.256 23.4233 178.293 23.3267 178.366 23.24C178.446 23.16 178.543 23.12 178.656 23.12C178.71 23.12 178.77 23.1333 178.836 23.16C179.343 23.4133 179.893 23.54 180.486 23.54C181.506 23.54 182.016 22.9967 182.016 21.91V21.24C181.543 21.7467 180.973 22 180.306 22C179.913 22 179.53 21.9033 179.156 21.71C178.79 21.51 178.486 21.2167 178.246 20.83C178.006 20.4367 177.886 19.96 177.886 19.4C177.886 18.84 178.006 18.3667 178.246 17.98C178.486 17.5867 178.79 17.2933 179.156 17.1C179.53 16.9 179.913 16.8 180.306 16.8C180.973 16.8 181.543 17.0533 182.016 17.56V17.31C182.016 17.1833 182.06 17.0767 182.146 16.99C182.233 16.8967 182.34 16.85 182.466 16.85C182.593 16.85 182.7 16.8967 182.786 16.99C182.88 17.0767 182.926 17.1833 182.926 17.31V21.78C182.926 22.62 182.723 23.2667 182.316 23.72C181.91 24.1733 181.33 24.4 180.576 24.4ZM180.496 21.17C180.81 21.17 181.086 21.1033 181.326 20.97C181.566 20.8367 181.796 20.6567 182.016 20.43V18.37C181.796 18.1433 181.566 17.9633 181.326 17.83C181.086 17.6967 180.81 17.63 180.496 17.63C179.996 17.63 179.586 17.7833 179.266 18.09C178.953 18.39 178.796 18.8267 178.796 19.4C178.796 19.9733 178.953 20.4133 179.266 20.72C179.586 21.02 179.996 21.17 180.496 21.17ZM184.955 22.05C184.828 22.05 184.722 22.0067 184.635 21.92C184.548 21.8333 184.505 21.7267 184.505 21.6V17.31C184.505 17.1833 184.548 17.0767 184.635 16.99C184.722 16.8967 184.828 16.85 184.955 16.85C185.082 16.85 185.188 16.8967 185.275 16.99C185.368 17.0767 185.415 17.1833 185.415 17.31V17.74C185.882 17.1133 186.405 16.8 186.985 16.8H187.035C187.162 16.8 187.265 16.8433 187.345 16.93C187.432 17.0167 187.475 17.1233 187.475 17.25C187.475 17.3767 187.432 17.48 187.345 17.56C187.258 17.64 187.148 17.68 187.015 17.68H186.965C186.645 17.68 186.352 17.76 186.085 17.92C185.818 18.0733 185.595 18.2867 185.415 18.56V21.6C185.415 21.7267 185.368 21.8333 185.275 21.92C185.188 22.0067 185.082 22.05 184.955 22.05ZM190.466 22.1C189.653 22.1 189.016 21.87 188.556 21.41C188.103 20.9433 187.876 20.29 187.876 19.45C187.876 18.9767 187.963 18.54 188.136 18.14C188.31 17.74 188.576 17.4167 188.936 17.17C189.296 16.9233 189.74 16.8 190.266 16.8C190.76 16.8 191.186 16.9167 191.546 17.15C191.906 17.3767 192.18 17.6833 192.366 18.07C192.553 18.45 192.646 18.8667 192.646 19.32C192.646 19.4467 192.603 19.5533 192.516 19.64C192.436 19.7267 192.326 19.77 192.186 19.77H188.796C188.85 20.2367 189.023 20.6 189.316 20.86C189.61 21.12 190.02 21.25 190.546 21.25C190.826 21.25 191.07 21.2233 191.276 21.17C191.49 21.1167 191.696 21.04 191.896 20.94C191.95 20.9133 192.01 20.9 192.076 20.9C192.183 20.9 192.276 20.9367 192.356 21.01C192.436 21.0833 192.476 21.1767 192.476 21.29C192.476 21.4367 192.39 21.56 192.216 21.66C191.956 21.8067 191.7 21.9167 191.446 21.99C191.193 22.0633 190.866 22.1 190.466 22.1ZM191.746 19.03C191.726 18.7033 191.64 18.43 191.486 18.21C191.34 17.99 191.156 17.83 190.936 17.73C190.716 17.6233 190.493 17.57 190.266 17.57C190.04 17.57 189.816 17.6233 189.596 17.73C189.376 17.83 189.193 17.99 189.046 18.21C188.9 18.43 188.816 18.7033 188.796 19.03H191.746ZM195.501 22.1C194.834 22.1 194.227 21.95 193.681 21.65C193.567 21.57 193.511 21.46 193.511 21.32C193.511 21.2133 193.547 21.12 193.621 21.04C193.694 20.96 193.787 20.92 193.901 20.92C193.961 20.92 194.021 20.9333 194.081 20.96C194.294 21.0533 194.507 21.1267 194.721 21.18C194.934 21.2333 195.174 21.26 195.441 21.26C196.181 21.26 196.551 21.0233 196.551 20.55C196.551 20.3967 196.464 20.28 196.291 20.2C196.124 20.12 195.847 20.03 195.461 19.93C195.067 19.8367 194.741 19.74 194.481 19.64C194.227 19.54 194.007 19.39 193.821 19.19C193.641 18.9833 193.551 18.7133 193.551 18.38C193.551 17.9133 193.717 17.5333 194.051 17.24C194.391 16.9467 194.874 16.8 195.501 16.8C196.014 16.8 196.497 16.8833 196.951 17.05C197.044 17.0767 197.114 17.1267 197.161 17.2C197.214 17.2733 197.241 17.35 197.241 17.43C197.241 17.5367 197.201 17.63 197.121 17.71C197.047 17.79 196.954 17.83 196.841 17.83C196.807 17.83 196.764 17.8233 196.711 17.81C196.324 17.69 195.944 17.63 195.571 17.63C195.211 17.63 194.927 17.6967 194.721 17.83C194.521 17.9567 194.421 18.1233 194.421 18.33C194.421 18.53 194.514 18.6767 194.701 18.77C194.887 18.8633 195.177 18.9533 195.571 19.04C195.964 19.14 196.284 19.24 196.531 19.34C196.777 19.4333 196.987 19.5833 197.161 19.79C197.341 19.9967 197.431 20.2733 197.431 20.62C197.431 21.0467 197.261 21.4 196.921 21.68C196.587 21.96 196.114 22.1 195.501 22.1ZM200.305 22.1C199.639 22.1 199.032 21.95 198.485 21.65C198.372 21.57 198.315 21.46 198.315 21.32C198.315 21.2133 198.352 21.12 198.425 21.04C198.499 20.96 198.592 20.92 198.705 20.92C198.765 20.92 198.825 20.9333 198.885 20.96C199.099 21.0533 199.312 21.1267 199.525 21.18C199.739 21.2333 199.979 21.26 200.245 21.26C200.985 21.26 201.355 21.0233 201.355 20.55C201.355 20.3967 201.269 20.28 201.095 20.2C200.929 20.12 200.652 20.03 200.265 19.93C199.872 19.8367 199.545 19.74 199.285 19.64C199.032 19.54 198.812 19.39 198.625 19.19C198.445 18.9833 198.355 18.7133 198.355 18.38C198.355 17.9133 198.522 17.5333 198.855 17.24C199.195 16.9467 199.679 16.8 200.305 16.8C200.819 16.8 201.302 16.8833 201.755 17.05C201.849 17.0767 201.919 17.1267 201.965 17.2C202.019 17.2733 202.045 17.35 202.045 17.43C202.045 17.5367 202.005 17.63 201.925 17.71C201.852 17.79 201.759 17.83 201.645 17.83C201.612 17.83 201.569 17.8233 201.515 17.81C201.129 17.69 200.749 17.63 200.375 17.63C200.015 17.63 199.732 17.6967 199.525 17.83C199.325 17.9567 199.225 18.1233 199.225 18.33C199.225 18.53 199.319 18.6767 199.505 18.77C199.692 18.8633 199.982 18.9533 200.375 19.04C200.769 19.14 201.089 19.24 201.335 19.34C201.582 19.4333 201.792 19.5833 201.965 19.79C202.145 19.9967 202.235 20.2733 202.235 20.62C202.235 21.0467 202.065 21.4 201.725 21.68C201.392 21.96 200.919 22.1 200.305 22.1Z" fill="white"/>
<defs>
<filter id="filter0_d" x="0" y="0" width="379" height="36" filterUnits="userSpaceOnUse" color-interpolation-filters="sRGB">
<feFlood flood-opacity="0" result="BackgroundImageFix"/>
<feColorMatrix in="SourceAlpha" type="matrix" values="0 0 0 0 0 0 0 0 0 0 0 0 0 0 0 0 0 0 127 0"/>
<feOffset/>
<feGaussianBlur stdDeviation="4"/>
<feColorMatrix type="matrix" values="0 0 0 0 0 0 0 0 0 0 0 0 0 0 0 0 0 0 0.25 0"/>
<feBlend mode="normal" in2="BackgroundImageFix" result="effect1_dropShadow"/>
<feBlend mode="normal" in="SourceGraphic" in2="effect1_dropShadow" result="shape"/>
</filter>
</defs>
</svg>
