<svg width="177" height="41" viewBox="0 0 177 41" fill="none" xmlns="http://www.w3.org/2000/svg">
<rect width="177" height="41" fill="#010101"/>
<path d="M65.9531 13.5781L62.6719 10.2969C62.3073 9.93229 61.8646 9.75 61.3438 9.75H50.875C50.3542 9.75 49.9115 9.93229 49.5469 10.2969C49.1823 10.6615 49 11.1042 49 11.625V25.375C49 25.8958 49.1823 26.3385 49.5469 26.7031C49.9115 27.0677 50.3542 27.25 50.875 27.25H64.625C65.1458 27.25 65.5885 27.0677 65.9531 26.7031C66.3177 26.3385 66.5 25.8958 66.5 25.375V14.9062C66.5 14.3854 66.3177 13.9427 65.9531 13.5781ZM57.75 24.75C57.0469 24.75 56.4479 24.5156 55.9531 24.0469C55.4844 23.5521 55.25 22.9531 55.25 22.25C55.25 21.5469 55.4844 20.9609 55.9531 20.4922C56.4479 19.9974 57.0469 19.75 57.75 19.75C58.4531 19.75 59.0391 19.9974 59.5078 20.4922C60.0026 20.9609 60.25 21.5469 60.25 22.25C60.25 22.9531 60.0026 23.5521 59.5078 24.0469C59.0391 24.5156 58.4531 24.75 57.75 24.75ZM61.5 12.8359V16.7812C61.5 16.9115 61.4479 17.0286 61.3438 17.1328C61.2656 17.2109 61.1615 17.25 61.0312 17.25H51.9688C51.8385 17.25 51.7214 17.2109 51.6172 17.1328C51.5391 17.0286 51.5 16.9115 51.5 16.7812V12.7188C51.5 12.5885 51.5391 12.4844 51.6172 12.4062C51.7214 12.3021 51.8385 12.25 51.9688 12.25H60.9141C61.0182 12.25 61.1224 12.3021 61.2266 12.4062L61.3438 12.5234C61.4479 12.6276 61.5 12.7318 61.5 12.8359Z" fill="#F2F2F2"/>
<path d="M75.98 15.8C75.98 14.3 77.52 13.52 79.54 13.52C80.76 13.52 81.84 13.74 82.76 14.06C82.86 14.1 82.98 14.14 83.08 14.14C83.58 14.14 83.88 13.7 83.88 13.3C83.88 12.82 83.6 12.6 83.32 12.5C82.24 12.1 80.9 11.84 79.34 11.84C75.96 11.84 74.16 13.72 74.16 15.94C74.16 20.86 82.66 19.22 82.66 22.18C82.66 23.92 81.14 24.48 79.16 24.48C77.44 24.48 76.12 24.06 75.22 23.66C75.08 23.6 74.96 23.58 74.84 23.58C74.34 23.58 74.02 23.98 74.02 24.42C74.02 24.78 74.28 25.12 74.58 25.24C75.74 25.74 77.34 26.2 79.34 26.2C82.44 26.2 84.46 24.56 84.46 22.3C84.46 17.02 75.98 19.26 75.98 15.8ZM90.7442 15.6C89.3242 15.6 88.2242 15.92 87.2842 16.32C86.9442 16.46 86.7642 16.74 86.7642 17.08C86.7642 17.52 87.1042 17.84 87.5042 17.84C87.5842 17.84 87.6842 17.82 87.7642 17.8C88.5042 17.56 89.3042 17.32 90.4242 17.32C92.2242 17.32 93.1042 18.02 93.1042 19.8V19.96H90.6842C87.5642 19.96 86.0842 21.32 86.0842 23.2C86.0842 25.08 87.6042 26.2 89.3442 26.2C91.2242 26.2 92.3842 25.42 93.1042 24.68V25.2C93.1042 25.7 93.5042 26.1 94.0042 26.1C94.5042 26.1 94.9242 25.7 94.9242 25.2V19.54C94.9242 17.58 93.6642 15.6 90.7442 15.6ZM90.0242 24.6C88.4042 24.6 87.9042 23.86 87.9042 23C87.9042 21.86 89.0442 21.42 90.9242 21.42H93.1042V23.1C92.4242 23.88 91.2642 24.6 90.0242 24.6ZM105.403 15.7C105.043 15.7 104.703 15.92 104.583 16.22L101.523 23.98L98.4627 16.22C98.3427 15.92 98.0027 15.7 97.6427 15.7C97.1427 15.7 96.7427 16.12 96.7427 16.62C96.7427 16.78 96.7827 16.9 96.8427 17.04L100.323 25.36C100.503 25.76 100.923 26.1 101.423 26.1H101.623C102.123 26.1 102.543 25.76 102.723 25.36L106.203 17.04C106.263 16.9 106.303 16.78 106.303 16.62C106.303 16.12 105.903 15.7 105.403 15.7ZM116.071 23.8C115.931 23.8 115.831 23.82 115.711 23.88C114.971 24.26 114.211 24.5 113.011 24.5C110.851 24.5 109.711 23.34 109.511 21.54H116.291C116.851 21.54 117.211 21.14 117.211 20.64C117.211 17.98 115.531 15.6 112.451 15.6C109.131 15.6 107.671 18.2 107.671 20.9C107.671 24.26 109.591 26.2 112.851 26.2C114.591 26.2 115.471 25.82 116.351 25.32C116.631 25.16 116.871 24.9 116.871 24.58C116.871 24.12 116.491 23.8 116.071 23.8ZM112.451 17.14C113.731 17.14 115.291 17.98 115.411 20.06H109.511C109.631 17.98 111.171 17.14 112.451 17.14Z" fill="#F2F2F2"/>
</svg>
