<svg width="272" height="77" viewBox="0 0 272 77" fill="none" xmlns="http://www.w3.org/2000/svg">
<rect width="272" height="77" rx="15" fill="#030303"/>
<path d="M100.412 49.36C97.3642 49.36 94.5082 48.784 91.8442 47.632C91.5562 47.512 91.3162 47.32 91.1242 47.056C90.9322 46.768 90.8362 46.468 90.8362 46.156C90.8362 45.748 90.9682 45.4 91.2322 45.112C91.5202 44.8 91.8802 44.644 92.3122 44.644C92.5522 44.644 92.7802 44.692 92.9962 44.788C95.2042 45.772 97.5682 46.264 100.088 46.264C104.288 46.264 106.388 44.884 106.388 42.124C106.388 41.404 106.112 40.804 105.56 40.324C105.032 39.844 104.372 39.472 103.58 39.208C102.788 38.92 101.66 38.584 100.196 38.2C98.2522 37.696 96.6802 37.216 95.4802 36.76C94.2802 36.28 93.2482 35.572 92.3842 34.636C91.5202 33.7 91.0882 32.452 91.0882 30.892C91.0882 29.524 91.4482 28.288 92.1682 27.184C92.8882 26.056 93.9442 25.168 95.3362 24.52C96.7522 23.848 98.4442 23.512 100.412 23.512C103.052 23.512 105.44 23.908 107.576 24.7C108.248 24.94 108.584 25.42 108.584 26.14C108.584 26.524 108.452 26.872 108.188 27.184C107.924 27.496 107.576 27.652 107.144 27.652C107 27.652 106.808 27.604 106.568 27.508C104.696 26.86 102.764 26.536 100.772 26.536C98.8762 26.536 97.3282 26.896 96.1282 27.616C94.9522 28.336 94.3642 29.344 94.3642 30.64C94.3642 31.504 94.6402 32.212 95.1922 32.764C95.7682 33.292 96.4762 33.712 97.3162 34.024C98.1802 34.312 99.3442 34.624 100.808 34.96C102.704 35.416 104.228 35.872 105.38 36.328C106.556 36.784 107.552 37.492 108.368 38.452C109.208 39.412 109.628 40.708 109.628 42.34C109.628 43.684 109.244 44.896 108.476 45.976C107.708 47.032 106.628 47.86 105.236 48.46C103.844 49.06 102.236 49.36 100.412 49.36ZM119.555 49.36C116.051 49.36 114.299 47.776 114.299 44.608V33.448H111.743C111.551 33.448 111.383 33.388 111.239 33.268C111.119 33.124 111.059 32.956 111.059 32.764C111.059 32.524 111.167 32.32 111.383 32.152L116.279 27.364C116.495 27.148 116.699 27.04 116.891 27.04C117.083 27.04 117.239 27.112 117.359 27.256C117.503 27.4 117.575 27.568 117.575 27.76V30.64H121.643C122.051 30.64 122.387 30.772 122.651 31.036C122.915 31.3 123.047 31.636 123.047 32.044C123.047 32.428 122.915 32.764 122.651 33.052C122.387 33.316 122.051 33.448 121.643 33.448H117.575V44.32C117.575 45.256 117.791 45.856 118.223 46.12C118.679 46.36 119.243 46.48 119.915 46.48C120.395 46.48 120.875 46.408 121.355 46.264C121.451 46.24 121.547 46.216 121.643 46.192C121.763 46.168 121.907 46.156 122.075 46.156C122.411 46.156 122.711 46.288 122.975 46.552C123.239 46.792 123.371 47.092 123.371 47.452C123.371 48.004 123.095 48.424 122.543 48.712C121.607 49.144 120.611 49.36 119.555 49.36ZM131.645 49.36C130.589 49.36 129.605 49.144 128.693 48.712C127.805 48.28 127.097 47.656 126.569 46.84C126.041 46 125.777 45.04 125.777 43.96C125.777 42.184 126.473 40.768 127.865 39.712C129.281 38.656 131.345 38.128 134.057 38.128H138.413V37.84C138.413 36.256 138.017 35.116 137.225 34.42C136.457 33.724 135.245 33.376 133.589 33.376C132.677 33.376 131.861 33.448 131.141 33.592C130.445 33.736 129.665 33.952 128.801 34.24C128.609 34.288 128.453 34.312 128.333 34.312C127.973 34.312 127.661 34.18 127.397 33.916C127.133 33.652 127.001 33.328 127.001 32.944C127.001 32.296 127.313 31.84 127.937 31.576C129.977 30.712 132.053 30.28 134.165 30.28C135.821 30.28 137.213 30.616 138.341 31.288C139.493 31.96 140.333 32.836 140.861 33.916C141.413 34.972 141.689 36.124 141.689 37.372V47.56C141.689 48.016 141.521 48.4 141.185 48.712C140.873 49.024 140.489 49.18 140.033 49.18C139.577 49.18 139.193 49.024 138.881 48.712C138.569 48.4 138.413 48.016 138.413 47.56V46.624C136.637 48.448 134.381 49.36 131.645 49.36ZM132.869 46.48C133.925 46.48 134.945 46.228 135.929 45.724C136.913 45.196 137.741 44.548 138.413 43.78V40.756H134.489C130.865 40.756 129.053 41.704 129.053 43.6C129.053 44.464 129.341 45.16 129.917 45.688C130.517 46.216 131.501 46.48 132.869 46.48ZM148.8 49.18C148.344 49.18 147.96 49.024 147.648 48.712C147.336 48.4 147.18 48.016 147.18 47.56V32.116C147.18 31.66 147.336 31.276 147.648 30.964C147.96 30.628 148.344 30.46 148.8 30.46C149.256 30.46 149.64 30.628 149.952 30.964C150.288 31.276 150.456 31.66 150.456 32.116V33.664C152.136 31.408 154.02 30.28 156.108 30.28H156.288C156.744 30.28 157.116 30.436 157.404 30.748C157.716 31.06 157.872 31.444 157.872 31.9C157.872 32.356 157.716 32.728 157.404 33.016C157.092 33.304 156.696 33.448 156.216 33.448H156.036C154.884 33.448 153.828 33.736 152.868 34.312C151.908 34.864 151.104 35.632 150.456 36.616V47.56C150.456 48.016 150.288 48.4 149.952 48.712C149.64 49.024 149.256 49.18 148.8 49.18ZM167.297 49.36C163.793 49.36 162.041 47.776 162.041 44.608V33.448H159.485C159.293 33.448 159.125 33.388 158.981 33.268C158.861 33.124 158.801 32.956 158.801 32.764C158.801 32.524 158.909 32.32 159.125 32.152L164.021 27.364C164.237 27.148 164.441 27.04 164.633 27.04C164.825 27.04 164.981 27.112 165.101 27.256C165.245 27.4 165.317 27.568 165.317 27.76V30.64H169.385C169.793 30.64 170.129 30.772 170.393 31.036C170.657 31.3 170.789 31.636 170.789 32.044C170.789 32.428 170.657 32.764 170.393 33.052C170.129 33.316 169.793 33.448 169.385 33.448H165.317V44.32C165.317 45.256 165.533 45.856 165.965 46.12C166.421 46.36 166.985 46.48 167.657 46.48C168.137 46.48 168.617 46.408 169.097 46.264C169.193 46.24 169.289 46.216 169.385 46.192C169.505 46.168 169.649 46.156 169.817 46.156C170.153 46.156 170.453 46.288 170.717 46.552C170.981 46.792 171.113 47.092 171.113 47.452C171.113 48.004 170.837 48.424 170.285 48.712C169.349 49.144 168.353 49.36 167.297 49.36Z" fill="white"/>
</svg>
