<svg width="36" height="37" viewBox="0 0 36 37" fill="none" xmlns="http://www.w3.org/2000/svg">
<path d="M35.5078 31.6484L28.4766 24.6172C28.1484 24.2891 27.75 24.125 27.2812 24.125H26.1562C28.2188 21.5 29.25 18.5 29.25 15.125C29.25 12.4531 28.5938 10.0156 27.2812 7.8125C25.9688 5.5625 24.1875 3.78125 21.9375 2.46875C19.7344 1.15625 17.2969 0.5 14.625 0.5C11.9531 0.5 9.49219 1.15625 7.24219 2.46875C5.03906 3.78125 3.28125 5.5625 1.96875 7.8125C0.65625 10.0156 0 12.4531 0 15.125C0 17.7969 0.65625 20.2578 1.96875 22.5078C3.28125 24.7109 5.03906 26.4688 7.24219 27.7812C9.49219 29.0938 11.9531 29.75 14.625 29.75C18 29.75 21 28.7188 23.625 26.6562V27.7812C23.625 28.25 23.7891 28.6484 24.1172 28.9766L31.1484 36.0078C31.4766 36.3359 31.875 36.5 32.3438 36.5C32.8125 36.5 33.2109 36.3359 33.5391 36.0078L35.5078 34.0391C35.8359 33.7109 36 33.3125 36 32.8438C36 32.375 35.8359 31.9766 35.5078 31.6484ZM14.625 24.125C12.9844 24.125 11.4609 23.7266 10.0547 22.9297C8.69531 22.1328 7.61719 21.0547 6.82031 19.6953C6.02344 18.2891 5.625 16.7656 5.625 15.125C5.625 13.4844 6.02344 11.9844 6.82031 10.625C7.61719 9.21875 8.69531 8.11719 10.0547 7.32031C11.4609 6.52344 12.9844 6.125 14.625 6.125C16.2656 6.125 17.7656 6.52344 19.125 7.32031C20.5312 8.11719 21.6328 9.21875 22.4297 10.625C23.2266 11.9844 23.625 13.4844 23.625 15.125C23.625 16.7656 23.2266 18.2891 22.4297 19.6953C21.6328 21.0547 20.5312 22.1328 19.125 22.9297C17.7656 23.7266 16.2656 24.125 14.625 24.125Z" fill="black"/>
</svg>
