<svg width="227" height="227" viewBox="0 0 227 227" fill="none" xmlns="http://www.w3.org/2000/svg">
<g filter="url(#filter0_d)">
<rect x="7" y="7" width="213" height="213" rx="15" fill="#C4C4C4"/>
</g>
<path d="M146 97V133C146 134.667 145.417 136.083 144.25 137.25C143.083 138.417 141.667 139 140 139H88C86.3333 139 84.9167 138.417 83.75 137.25C82.5833 136.083 82 134.667 82 133V97C82 95.3333 82.5833 93.9167 83.75 92.75C84.9167 91.5833 86.3333 91 88 91H99L100.5 86.875C101 85.7083 101.75 84.7917 102.75 84.125C103.75 83.375 104.875 83 106.125 83H121.875C123.125 83 124.25 83.375 125.25 84.125C126.25 84.7917 127 85.7083 127.5 86.875L129 91H140C141.667 91 143.083 91.5833 144.25 92.75C145.417 93.9167 146 95.3333 146 97ZM129 115C129 112.25 128.333 109.75 127 107.5C125.667 105.167 123.833 103.333 121.5 102C119.25 100.667 116.75 100 114 100C111.25 100 108.708 100.667 106.375 102C104.125 103.333 102.333 105.167 101 107.5C99.6667 109.75 99 112.25 99 115C99 117.75 99.6667 120.292 101 122.625C102.333 124.875 104.125 126.667 106.375 128C108.708 129.333 111.25 130 114 130C116.75 130 119.25 129.333 121.5 128C123.833 126.667 125.667 124.875 127 122.625C128.333 120.292 129 117.75 129 115ZM125 115C125 118 123.917 120.583 121.75 122.75C119.583 124.917 117 126 114 126C111 126 108.417 124.917 106.25 122.75C104.083 120.583 103 118 103 115C103 112 104.083 109.417 106.25 107.25C108.417 105.083 111 104 114 104C117 104 119.583 105.083 121.75 107.25C123.917 109.417 125 112 125 115Z" fill="black"/>
<path d="M60.455 167.11C59.7217 167.11 59.0617 166.952 58.475 166.637C57.8957 166.314 57.4373 165.856 57.1 165.262C56.77 164.661 56.605 163.96 56.605 163.161C56.605 162.362 56.77 161.665 57.1 161.071C57.4373 160.47 57.8957 160.011 58.475 159.696C59.0617 159.373 59.7217 159.212 60.455 159.212C60.9537 159.212 61.3973 159.271 61.786 159.388C62.182 159.505 62.5743 159.674 62.963 159.894C63.1243 159.982 63.205 160.121 63.205 160.312C63.205 160.422 63.1647 160.521 63.084 160.609C63.0033 160.69 62.897 160.73 62.765 160.73C62.6917 160.73 62.6257 160.715 62.567 160.686C62.2443 160.517 61.929 160.389 61.621 160.301C61.313 160.213 60.9573 160.169 60.554 160.169C59.9233 160.169 59.3843 160.301 58.937 160.565C58.497 160.822 58.1633 161.177 57.936 161.632C57.716 162.079 57.606 162.589 57.606 163.161C57.606 163.733 57.716 164.246 57.936 164.701C58.1633 165.148 58.497 165.504 58.937 165.768C59.3843 166.025 59.9233 166.153 60.554 166.153C60.9573 166.153 61.313 166.109 61.621 166.021C61.929 165.933 62.2443 165.805 62.567 165.636C62.6257 165.607 62.6917 165.592 62.765 165.592C62.897 165.592 63.0033 165.632 63.084 165.713C63.1647 165.794 63.205 165.893 63.205 166.01C63.205 166.201 63.1243 166.34 62.963 166.428C62.5743 166.648 62.182 166.817 61.786 166.934C61.3973 167.051 60.9537 167.11 60.455 167.11ZM65.0124 167.055C64.8731 167.055 64.7558 167.007 64.6604 166.912C64.5651 166.817 64.5174 166.699 64.5174 166.56V159.421C64.5174 159.282 64.5651 159.164 64.6604 159.069C64.7558 158.966 64.8731 158.915 65.0124 158.915C65.1591 158.915 65.2801 158.963 65.3754 159.058C65.4708 159.153 65.5184 159.274 65.5184 159.421V166.56C65.5184 166.699 65.4671 166.817 65.3644 166.912C65.2691 167.007 65.1518 167.055 65.0124 167.055ZM67.7297 160.246C67.5757 160.246 67.4437 160.191 67.3337 160.081C67.2237 159.971 67.1687 159.839 67.1687 159.685V159.641C67.1687 159.487 67.2237 159.355 67.3337 159.245C67.4437 159.135 67.5757 159.08 67.7297 159.08H67.7957C67.9497 159.08 68.0817 159.135 68.1917 159.245C68.3017 159.355 68.3567 159.487 68.3567 159.641V159.685C68.3567 159.839 68.3017 159.971 68.1917 160.081C68.0817 160.191 67.9497 160.246 67.7957 160.246H67.7297ZM67.7517 167.055C67.6124 167.055 67.495 167.007 67.3997 166.912C67.3044 166.817 67.2567 166.699 67.2567 166.56V161.841C67.2567 161.702 67.3044 161.584 67.3997 161.489C67.495 161.386 67.6124 161.335 67.7517 161.335C67.8984 161.335 68.0194 161.383 68.1147 161.478C68.21 161.573 68.2577 161.694 68.2577 161.841V166.56C68.2577 166.699 68.2064 166.817 68.1037 166.912C68.0084 167.007 67.891 167.055 67.7517 167.055ZM72.592 167.11C72.064 167.11 71.5763 166.993 71.129 166.758C70.6816 166.523 70.3223 166.186 70.051 165.746C69.787 165.306 69.655 164.789 69.655 164.195C69.655 163.601 69.787 163.084 70.051 162.644C70.3223 162.204 70.6816 161.867 71.129 161.632C71.5763 161.397 72.064 161.28 72.592 161.28C72.9806 161.28 73.3143 161.331 73.593 161.434C73.879 161.529 74.143 161.654 74.385 161.808C74.5316 161.903 74.605 162.032 74.605 162.193C74.605 162.303 74.561 162.406 74.473 162.501C74.3923 162.589 74.297 162.633 74.187 162.633C74.1063 162.633 74.0256 162.611 73.945 162.567C73.703 162.442 73.494 162.354 73.318 162.303C73.1493 162.244 72.9366 162.215 72.68 162.215C72.0493 162.215 71.5543 162.398 71.195 162.765C70.8356 163.124 70.656 163.601 70.656 164.195C70.656 164.789 70.8356 165.269 71.195 165.636C71.5543 165.995 72.0493 166.175 72.68 166.175C72.9366 166.175 73.1493 166.149 73.318 166.098C73.494 166.039 73.703 165.948 73.945 165.823C74.0256 165.779 74.1063 165.757 74.187 165.757C74.297 165.757 74.3923 165.805 74.473 165.9C74.561 165.988 74.605 166.087 74.605 166.197C74.605 166.358 74.5316 166.487 74.385 166.582C74.143 166.736 73.879 166.864 73.593 166.967C73.3143 167.062 72.9806 167.11 72.592 167.11ZM76.3562 167.055C76.2169 167.055 76.0995 167.007 76.0042 166.912C75.9089 166.817 75.8612 166.699 75.8612 166.56V159.421C75.8612 159.282 75.9089 159.164 76.0042 159.069C76.0995 158.966 76.2169 158.915 76.3562 158.915C76.4955 158.915 76.6129 158.966 76.7082 159.069C76.8109 159.164 76.8622 159.282 76.8622 159.421V163.92L79.4802 161.5C79.5902 161.405 79.7002 161.357 79.8102 161.357C79.9789 161.357 80.0999 161.405 80.1732 161.5C80.2539 161.595 80.2942 161.709 80.2942 161.841C80.2942 161.966 80.2319 162.09 80.1072 162.215L78.5232 163.634L80.5142 166.274C80.5875 166.369 80.6242 166.468 80.6242 166.571C80.6242 166.718 80.5765 166.835 80.4812 166.923C80.3859 167.011 80.2649 167.055 80.1182 167.055C80.0449 167.055 79.9715 167.037 79.8982 167C79.8249 166.963 79.7625 166.912 79.7112 166.846L77.8192 164.272L76.8622 165.141V166.56C76.8622 166.699 76.8109 166.817 76.7082 166.912C76.6129 167.007 76.4955 167.055 76.3562 167.055ZM86.6487 167.11C85.5781 167.11 85.0427 166.626 85.0427 165.658V162.248H84.2617C84.2031 162.248 84.1517 162.23 84.1078 162.193C84.0711 162.149 84.0527 162.098 84.0527 162.039C84.0527 161.966 84.0857 161.903 84.1518 161.852L85.6478 160.389C85.7137 160.323 85.7761 160.29 85.8347 160.29C85.8934 160.29 85.9411 160.312 85.9778 160.356C86.0218 160.4 86.0438 160.451 86.0438 160.51V161.39H87.2867C87.4114 161.39 87.5141 161.43 87.5947 161.511C87.6754 161.592 87.7157 161.694 87.7157 161.819C87.7157 161.936 87.6754 162.039 87.5947 162.127C87.5141 162.208 87.4114 162.248 87.2867 162.248H86.0438V165.57C86.0438 165.856 86.1098 166.039 86.2417 166.12C86.3811 166.193 86.5534 166.23 86.7587 166.23C86.9054 166.23 87.0521 166.208 87.1988 166.164C87.2281 166.157 87.2574 166.149 87.2867 166.142C87.3234 166.135 87.3674 166.131 87.4187 166.131C87.5214 166.131 87.6131 166.171 87.6937 166.252C87.7744 166.325 87.8148 166.417 87.8148 166.527C87.8148 166.696 87.7304 166.824 87.5617 166.912C87.2757 167.044 86.9714 167.11 86.6487 167.11ZM91.3127 167.11C90.7481 167.11 90.2531 166.989 89.8277 166.747C89.4024 166.505 89.0724 166.164 88.8378 165.724C88.6104 165.277 88.4968 164.767 88.4968 164.195C88.4968 163.623 88.6104 163.117 88.8378 162.677C89.0724 162.23 89.4024 161.885 89.8277 161.643C90.2531 161.401 90.7481 161.28 91.3127 161.28C91.8701 161.28 92.3614 161.401 92.7867 161.643C93.2121 161.885 93.5421 162.23 93.7767 162.677C94.0114 163.117 94.1288 163.623 94.1288 164.195C94.1288 164.767 94.0114 165.277 93.7767 165.724C93.5421 166.164 93.2121 166.505 92.7867 166.747C92.3614 166.989 91.8701 167.11 91.3127 167.11ZM91.3127 166.197C91.6134 166.197 91.8994 166.127 92.1707 165.988C92.4494 165.849 92.6767 165.629 92.8528 165.328C93.0361 165.027 93.1278 164.646 93.1278 164.184C93.1278 163.729 93.0361 163.352 92.8528 163.051C92.6767 162.75 92.4494 162.534 92.1707 162.402C91.8994 162.263 91.6134 162.193 91.3127 162.193C91.0047 162.193 90.7114 162.263 90.4328 162.402C90.1614 162.534 89.9378 162.75 89.7618 163.051C89.5857 163.352 89.4977 163.729 89.4977 164.184C89.4977 164.646 89.5857 165.027 89.7618 165.328C89.9378 165.629 90.1614 165.849 90.4328 165.988C90.7114 166.127 91.0047 166.197 91.3127 166.197ZM100.863 167.11C100.298 167.11 99.8029 166.989 99.3776 166.747C98.9522 166.505 98.6222 166.164 98.3876 165.724C98.1602 165.277 98.0466 164.767 98.0466 164.195C98.0466 163.623 98.1602 163.117 98.3876 162.677C98.6222 162.23 98.9522 161.885 99.3776 161.643C99.8029 161.401 100.298 161.28 100.863 161.28C101.42 161.28 101.911 161.401 102.337 161.643C102.762 161.885 103.092 162.23 103.327 162.677C103.561 163.117 103.679 163.623 103.679 164.195C103.679 164.767 103.561 165.277 103.327 165.724C103.092 166.164 102.762 166.505 102.337 166.747C101.911 166.989 101.42 167.11 100.863 167.11ZM100.863 166.197C101.163 166.197 101.449 166.127 101.721 165.988C101.999 165.849 102.227 165.629 102.403 165.328C102.586 165.027 102.678 164.646 102.678 164.184C102.678 163.729 102.586 163.352 102.403 163.051C102.227 162.75 101.999 162.534 101.721 162.402C101.449 162.263 101.163 162.193 100.863 162.193C100.555 162.193 100.261 162.263 99.9826 162.402C99.7112 162.534 99.4876 162.75 99.3116 163.051C99.1356 163.352 99.0476 163.729 99.0476 164.184C99.0476 164.646 99.1356 165.027 99.3116 165.328C99.4876 165.629 99.7112 165.849 99.9826 165.988C100.261 166.127 100.555 166.197 100.863 166.197ZM105.575 169.585C105.436 169.585 105.318 169.534 105.223 169.431C105.128 169.336 105.08 169.218 105.08 169.079V161.83C105.08 161.691 105.128 161.573 105.223 161.478C105.318 161.383 105.436 161.335 105.575 161.335C105.714 161.335 105.832 161.383 105.927 161.478C106.03 161.573 106.081 161.691 106.081 161.83V162.116C106.616 161.559 107.243 161.28 107.962 161.28C108.417 161.28 108.846 161.397 109.249 161.632C109.66 161.859 109.99 162.197 110.239 162.644C110.496 163.084 110.624 163.601 110.624 164.195C110.624 164.789 110.496 165.31 110.239 165.757C109.99 166.197 109.66 166.534 109.249 166.769C108.846 166.996 108.417 167.11 107.962 167.11C107.243 167.11 106.616 166.831 106.081 166.274V169.079C106.081 169.226 106.033 169.347 105.938 169.442C105.843 169.537 105.722 169.585 105.575 169.585ZM107.819 166.175C108.362 166.175 108.798 166.003 109.128 165.658C109.458 165.313 109.623 164.826 109.623 164.195C109.623 163.564 109.458 163.077 109.128 162.732C108.798 162.387 108.362 162.215 107.819 162.215C107.482 162.215 107.163 162.292 106.862 162.446C106.569 162.593 106.308 162.791 106.081 163.04V165.35C106.308 165.599 106.569 165.801 106.862 165.955C107.163 166.102 107.482 166.175 107.819 166.175ZM114.527 167.11C113.633 167.11 112.932 166.857 112.426 166.351C111.928 165.838 111.678 165.119 111.678 164.195C111.678 163.674 111.774 163.194 111.964 162.754C112.155 162.314 112.448 161.958 112.844 161.687C113.24 161.416 113.728 161.28 114.307 161.28C114.85 161.28 115.319 161.408 115.715 161.665C116.111 161.914 116.412 162.252 116.617 162.677C116.823 163.095 116.925 163.553 116.925 164.052C116.925 164.191 116.878 164.309 116.782 164.404C116.694 164.499 116.573 164.547 116.419 164.547H112.69C112.749 165.06 112.94 165.46 113.262 165.746C113.585 166.032 114.036 166.175 114.615 166.175C114.923 166.175 115.191 166.146 115.418 166.087C115.653 166.028 115.88 165.944 116.1 165.834C116.159 165.805 116.225 165.79 116.298 165.79C116.416 165.79 116.518 165.83 116.606 165.911C116.694 165.992 116.738 166.094 116.738 166.219C116.738 166.38 116.643 166.516 116.452 166.626C116.166 166.787 115.884 166.908 115.605 166.989C115.327 167.07 114.967 167.11 114.527 167.11ZM115.935 163.733C115.913 163.374 115.818 163.073 115.649 162.831C115.488 162.589 115.286 162.413 115.044 162.303C114.802 162.186 114.557 162.127 114.307 162.127C114.058 162.127 113.812 162.186 113.57 162.303C113.328 162.413 113.127 162.589 112.965 162.831C112.804 163.073 112.712 163.374 112.69 163.733H115.935ZM118.745 167.055C118.606 167.055 118.488 167.007 118.393 166.912C118.298 166.817 118.25 166.699 118.25 166.56V161.841C118.25 161.702 118.298 161.584 118.393 161.489C118.488 161.386 118.606 161.335 118.745 161.335C118.884 161.335 119.002 161.386 119.097 161.489C119.2 161.584 119.251 161.702 119.251 161.841V162.292C119.53 161.984 119.83 161.738 120.153 161.555C120.476 161.372 120.857 161.28 121.297 161.28C121.7 161.28 122.049 161.375 122.342 161.566C122.643 161.757 122.87 162.017 123.024 162.347C123.185 162.677 123.266 163.04 123.266 163.436V166.56C123.266 166.699 123.215 166.817 123.112 166.912C123.017 167.007 122.899 167.055 122.76 167.055C122.621 167.055 122.503 167.007 122.408 166.912C122.313 166.817 122.265 166.699 122.265 166.56V163.546C122.265 162.651 121.862 162.204 121.055 162.204C120.688 162.204 120.358 162.299 120.065 162.49C119.779 162.681 119.508 162.937 119.251 163.26V166.56C119.251 166.699 119.2 166.817 119.097 166.912C119.002 167.007 118.884 167.055 118.745 167.055ZM130.406 167.11C129.878 167.11 129.391 166.993 128.943 166.758C128.496 166.523 128.137 166.186 127.865 165.746C127.601 165.306 127.469 164.789 127.469 164.195C127.469 163.601 127.601 163.084 127.865 162.644C128.137 162.204 128.496 161.867 128.943 161.632C129.391 161.397 129.878 161.28 130.406 161.28C130.795 161.28 131.129 161.331 131.407 161.434C131.693 161.529 131.957 161.654 132.199 161.808C132.346 161.903 132.419 162.032 132.419 162.193C132.419 162.303 132.375 162.406 132.287 162.501C132.207 162.589 132.111 162.633 132.001 162.633C131.921 162.633 131.84 162.611 131.759 162.567C131.517 162.442 131.308 162.354 131.132 162.303C130.964 162.244 130.751 162.215 130.494 162.215C129.864 162.215 129.369 162.398 129.009 162.765C128.65 163.124 128.47 163.601 128.47 164.195C128.47 164.789 128.65 165.269 129.009 165.636C129.369 165.995 129.864 166.175 130.494 166.175C130.751 166.175 130.964 166.149 131.132 166.098C131.308 166.039 131.517 165.948 131.759 165.823C131.84 165.779 131.921 165.757 132.001 165.757C132.111 165.757 132.207 165.805 132.287 165.9C132.375 165.988 132.419 166.087 132.419 166.197C132.419 166.358 132.346 166.487 132.199 166.582C131.957 166.736 131.693 166.864 131.407 166.967C131.129 167.062 130.795 167.11 130.406 167.11ZM135.106 167.11C134.783 167.11 134.482 167.044 134.204 166.912C133.932 166.78 133.716 166.589 133.555 166.34C133.393 166.083 133.313 165.79 133.313 165.46C133.313 164.917 133.525 164.485 133.951 164.162C134.383 163.839 135.014 163.678 135.843 163.678H137.174V163.59C137.174 163.106 137.053 162.758 136.811 162.545C136.576 162.332 136.206 162.226 135.7 162.226C135.421 162.226 135.172 162.248 134.952 162.292C134.739 162.336 134.501 162.402 134.237 162.49C134.178 162.505 134.13 162.512 134.094 162.512C133.984 162.512 133.888 162.472 133.808 162.391C133.727 162.31 133.687 162.211 133.687 162.094C133.687 161.896 133.782 161.757 133.973 161.676C134.596 161.412 135.23 161.28 135.876 161.28C136.382 161.28 136.807 161.383 137.152 161.588C137.504 161.793 137.76 162.061 137.922 162.391C138.09 162.714 138.175 163.066 138.175 163.447V166.56C138.175 166.699 138.123 166.817 138.021 166.912C137.925 167.007 137.808 167.055 137.669 167.055C137.529 167.055 137.412 167.007 137.317 166.912C137.221 166.817 137.174 166.699 137.174 166.56V166.274C136.631 166.831 135.942 167.11 135.106 167.11ZM135.48 166.23C135.802 166.23 136.114 166.153 136.415 165.999C136.715 165.838 136.968 165.64 137.174 165.405V164.481H135.975C134.867 164.481 134.314 164.771 134.314 165.35C134.314 165.614 134.402 165.827 134.578 165.988C134.761 166.149 135.062 166.23 135.48 166.23ZM140.347 167.055C140.208 167.055 140.091 167.007 139.995 166.912C139.9 166.817 139.852 166.699 139.852 166.56V161.841C139.852 161.702 139.9 161.584 139.995 161.489C140.091 161.386 140.208 161.335 140.347 161.335C140.487 161.335 140.604 161.386 140.699 161.489C140.802 161.584 140.853 161.702 140.853 161.841V162.292C141.059 161.999 141.304 161.757 141.59 161.566C141.884 161.375 142.261 161.28 142.723 161.28C143.134 161.28 143.486 161.39 143.779 161.61C144.073 161.83 144.282 162.098 144.406 162.413C144.861 161.658 145.536 161.28 146.43 161.28C146.841 161.28 147.182 161.383 147.453 161.588C147.732 161.793 147.937 162.057 148.069 162.38C148.201 162.703 148.267 163.04 148.267 163.392V166.56C148.267 166.699 148.216 166.817 148.113 166.912C148.018 167.007 147.901 167.055 147.761 167.055C147.622 167.055 147.505 167.007 147.409 166.912C147.314 166.817 147.266 166.699 147.266 166.56V163.59C147.266 163.113 147.182 162.765 147.013 162.545C146.845 162.318 146.555 162.204 146.144 162.204C145.77 162.204 145.459 162.303 145.209 162.501C144.967 162.692 144.751 162.945 144.56 163.26V166.56C144.56 166.699 144.509 166.817 144.406 166.912C144.311 167.007 144.194 167.055 144.054 167.055C143.915 167.055 143.798 167.007 143.702 166.912C143.607 166.817 143.559 166.699 143.559 166.56V163.59C143.559 163.113 143.475 162.765 143.306 162.545C143.138 162.318 142.848 162.204 142.437 162.204C142.063 162.204 141.752 162.303 141.502 162.501C141.26 162.692 141.044 162.945 140.853 163.26V166.56C140.853 166.699 140.802 166.817 140.699 166.912C140.604 167.007 140.487 167.055 140.347 167.055ZM152.458 167.11C151.563 167.11 150.863 166.857 150.357 166.351C149.858 165.838 149.609 165.119 149.609 164.195C149.609 163.674 149.704 163.194 149.895 162.754C150.086 162.314 150.379 161.958 150.775 161.687C151.171 161.416 151.659 161.28 152.238 161.28C152.781 161.28 153.25 161.408 153.646 161.665C154.042 161.914 154.343 162.252 154.548 162.677C154.753 163.095 154.856 163.553 154.856 164.052C154.856 164.191 154.808 164.309 154.713 164.404C154.625 164.499 154.504 164.547 154.35 164.547H150.621C150.68 165.06 150.87 165.46 151.193 165.746C151.516 166.032 151.967 166.175 152.546 166.175C152.854 166.175 153.122 166.146 153.349 166.087C153.584 166.028 153.811 165.944 154.031 165.834C154.09 165.805 154.156 165.79 154.229 165.79C154.346 165.79 154.449 165.83 154.537 165.911C154.625 165.992 154.669 166.094 154.669 166.219C154.669 166.38 154.574 166.516 154.383 166.626C154.097 166.787 153.815 166.908 153.536 166.989C153.257 167.07 152.898 167.11 152.458 167.11ZM153.866 163.733C153.844 163.374 153.749 163.073 153.58 162.831C153.419 162.589 153.217 162.413 152.975 162.303C152.733 162.186 152.487 162.127 152.238 162.127C151.989 162.127 151.743 162.186 151.501 162.303C151.259 162.413 151.057 162.589 150.896 162.831C150.735 163.073 150.643 163.374 150.621 163.733H153.866ZM156.676 167.055C156.536 167.055 156.419 167.007 156.324 166.912C156.228 166.817 156.181 166.699 156.181 166.56V161.841C156.181 161.702 156.228 161.584 156.324 161.489C156.419 161.386 156.536 161.335 156.676 161.335C156.815 161.335 156.932 161.386 157.028 161.489C157.13 161.584 157.182 161.702 157.182 161.841V162.314C157.695 161.625 158.271 161.28 158.909 161.28H158.964C159.103 161.28 159.217 161.328 159.305 161.423C159.4 161.518 159.448 161.636 159.448 161.775C159.448 161.914 159.4 162.028 159.305 162.116C159.209 162.204 159.088 162.248 158.942 162.248H158.887C158.535 162.248 158.212 162.336 157.919 162.512C157.625 162.681 157.38 162.915 157.182 163.216V166.56C157.182 166.699 157.13 166.817 157.028 166.912C156.932 167.007 156.815 167.055 156.676 167.055ZM161.821 167.11C161.499 167.11 161.198 167.044 160.919 166.912C160.648 166.78 160.432 166.589 160.27 166.34C160.109 166.083 160.028 165.79 160.028 165.46C160.028 164.917 160.241 164.485 160.666 164.162C161.099 163.839 161.73 163.678 162.558 163.678H163.889V163.59C163.889 163.106 163.768 162.758 163.526 162.545C163.292 162.332 162.921 162.226 162.415 162.226C162.137 162.226 161.887 162.248 161.667 162.292C161.455 162.336 161.216 162.402 160.952 162.49C160.894 162.505 160.846 162.512 160.809 162.512C160.699 162.512 160.604 162.472 160.523 162.391C160.443 162.31 160.402 162.211 160.402 162.094C160.402 161.896 160.498 161.757 160.688 161.676C161.312 161.412 161.946 161.28 162.591 161.28C163.097 161.28 163.523 161.383 163.867 161.588C164.219 161.793 164.476 162.061 164.637 162.391C164.806 162.714 164.89 163.066 164.89 163.447V166.56C164.89 166.699 164.839 166.817 164.736 166.912C164.641 167.007 164.524 167.055 164.384 167.055C164.245 167.055 164.128 167.007 164.032 166.912C163.937 166.817 163.889 166.699 163.889 166.56V166.274C163.347 166.831 162.657 167.11 161.821 167.11ZM162.195 166.23C162.518 166.23 162.83 166.153 163.13 165.999C163.431 165.838 163.684 165.64 163.889 165.405V164.481H162.69C161.583 164.481 161.029 164.771 161.029 165.35C161.029 165.614 161.117 165.827 161.293 165.988C161.477 166.149 161.777 166.23 162.195 166.23Z" fill="black"/>
<defs>
<filter id="filter0_d" x="0" y="0" width="227" height="227" filterUnits="userSpaceOnUse" color-interpolation-filters="sRGB">
<feFlood flood-opacity="0" result="BackgroundImageFix"/>
<feColorMatrix in="SourceAlpha" type="matrix" values="0 0 0 0 0 0 0 0 0 0 0 0 0 0 0 0 0 0 127 0"/>
<feOffset/>
<feGaussianBlur stdDeviation="3.5"/>
<feColorMatrix type="matrix" values="0 0 0 0 0 0 0 0 0 0 0 0 0 0 0 0 0 0 0.25 0"/>
<feBlend mode="normal" in2="BackgroundImageFix" result="effect1_dropShadow"/>
<feBlend mode="normal" in="SourceGraphic" in2="effect1_dropShadow" result="shape"/>
</filter>
</defs>
</svg>
