<svg width="49" height="49" viewBox="0 0 49 49" fill="none" xmlns="http://www.w3.org/2000/svg">
<path d="M24 23.0625C23.375 23.0625 22.8438 23.2812 22.4062 23.7188C21.9688 24.1562 21.75 24.6875 21.75 25.3125C21.875 32 21 38.625 19.125 45.1875C19 45.75 19.0938 46.3125 19.4062 46.875C19.7812 47.625 20.4375 48 21.375 48C21.8125 48 22.2188 47.8438 22.5938 47.5312C23.0312 47.2188 23.3438 46.8125 23.5312 46.3125C25.4688 39.4375 26.375 32.4375 26.25 25.3125C26.25 24.6875 26.0312 24.1562 25.5938 23.7188C25.1562 23.2812 24.625 23.0625 24 23.0625ZM23.9062 15.375C22.0312 15.375 20.3438 15.8125 18.8438 16.6875C17.4062 17.5625 16.2812 18.7188 15.4688 20.1562C14.6562 21.5938 14.25 23.1562 14.25 24.8438C14.3125 29.4062 13.9062 33.875 13.0312 38.25C12.9062 38.875 13 39.4375 13.3125 39.9375C13.6875 40.4375 14.1562 40.75 14.7188 40.875C15.3438 41 15.9062 40.9062 16.4062 40.5938C16.9688 40.2188 17.3125 39.75 17.4375 39.1875C18.375 34.4375 18.8125 29.6562 18.75 24.8438C18.75 23.5312 19.2188 22.375 20.1562 21.375C21.0938 20.375 22.3125 19.9062 23.8125 19.9688C25.3125 19.9688 26.5938 20.4688 27.6562 21.4688C28.7188 22.4688 29.25 23.6875 29.25 25.125C29.3125 29.625 29 34.0938 28.3125 38.5312C28.1875 39.1562 28.3125 39.7188 28.6875 40.2188C29.0625 40.7188 29.5312 41.0312 30.0938 41.1562C30.9062 41.2812 31.5625 41.0625 32.0625 40.5C32.4375 40.125 32.6562 39.7188 32.7188 39.2812C33.4688 34.5938 33.8125 29.8438 33.75 25.0312C33.75 22.4062 32.7812 20.1562 30.8438 18.2812C28.9062 16.4062 26.5938 15.4375 23.9062 15.375ZM13.5938 13.5C13.0938 13.125 12.5312 12.9687 11.9062 13.0312C11.2812 13.0938 10.7812 13.375 10.4062 13.875C9.21875 15.375 8.3125 17.0312 7.6875 18.8438C7.0625 20.5938 6.75 22.4375 6.75 24.375C6.8125 27.9375 6.53125 31.4375 5.90625 34.875C5.78125 35.5 5.90625 36.0625 6.28125 36.5625C6.65625 37.0625 7.125 37.375 7.6875 37.5C8.5 37.625 9.15625 37.4062 9.65625 36.8438C10.0312 36.4688 10.25 36.0938 10.3125 35.7188C11 31.9688 11.3125 28.1562 11.25 24.2812C11.1875 21.4062 12.0625 18.875 13.875 16.6875C14.25 16.1875 14.4062 15.6562 14.3438 15.0938C14.2812 14.4687 14.0312 13.9375 13.5938 13.5ZM23.8125 7.6875C22.4375 7.6875 21 7.84375 19.5 8.15625C18.9375 8.28125 18.4688 8.625 18.0938 9.1875C17.7812 9.6875 17.6875 10.25 17.8125 10.875C18 11.5 18.3438 11.9688 18.8438 12.2812C19.4062 12.5937 19.9688 12.6875 20.5312 12.5625C21.5312 12.3125 22.5938 12.1875 23.7188 12.1875C26.0312 12.25 28.1875 12.8438 30.1875 13.9688C32.1875 15.0938 33.7812 16.625 34.9688 18.5625C36.1562 20.5 36.75 22.5938 36.75 24.8438C36.8125 28.4062 36.6562 31.9375 36.2812 35.4375C36.1562 36.0625 36.2812 36.625 36.6562 37.125C37.0938 37.625 37.625 37.9062 38.25 37.9688C38.9375 38.0312 39.5 37.8438 39.9375 37.4062C40.375 36.9688 40.625 36.5 40.6875 36C41.125 32.25 41.3125 28.5 41.25 24.75C41.1875 21.6875 40.375 18.875 38.8125 16.3125C37.25 13.6875 35.125 11.625 32.4375 10.125C29.8125 8.5625 26.9375 7.75 23.8125 7.6875ZM47.4375 19.125C47.3125 18.5 46.9688 18.0312 46.4062 17.7188C45.9062 17.3438 45.3438 17.2188 44.7188 17.3438C44.1562 17.4688 43.6875 17.8125 43.3125 18.375C43 18.875 42.9062 19.4375 43.0312 20.0625C43.3438 21.5 43.5 23.4375 43.5 25.875C43.5 26.4375 43.7188 26.9688 44.1562 27.4688C44.5938 27.9062 45.125 28.125 45.75 28.125C46.375 28.125 46.9062 27.9062 47.3438 27.4688C47.7812 27.0312 48 26.5 48 25.875V25.7812C48 24.4062 47.9688 23.375 47.9062 22.6875C47.8438 21.4375 47.6875 20.25 47.4375 19.125ZM43.6875 10.5938C41.375 7.34375 38.4375 4.78125 34.875 2.90625C31.375 1.03125 27.6562 0.0625 23.7188 0C20.4062 -0.0625 17.2812 0.5 14.3438 1.6875C11.4062 2.875 8.84375 4.59375 6.65625 6.84375C4.46875 9.03125 2.78125 11.5312 1.59375 14.3438C0.46875 17.0938 -0.0625 20.0312 0 23.1562V25.125C0 25.75 0.1875 26.3125 0.5625 26.8125C1 27.25 1.53125 27.4688 2.15625 27.4688H2.25C2.875 27.4688 3.40625 27.25 3.84375 26.8125C4.28125 26.375 4.5 25.875 4.5 25.3125V23.0625C4.5 20.625 4.9375 18.2812 5.8125 16.0312C6.75 13.7812 8.09375 11.7813 9.84375 10.0312C11.5938 8.21875 13.6562 6.84375 16.0312 5.90625C18.4688 4.90625 21 4.4375 23.625 4.5C26.875 4.5625 29.9375 5.375 32.8125 6.9375C35.75 8.4375 38.1562 10.5 40.0312 13.125C40.3438 13.6875 40.8125 14.0313 41.4375 14.1562C42.0625 14.2188 42.625 14.0937 43.125 13.7812C43.625 13.4062 43.9375 12.9063 44.0625 12.2812C44.1875 11.6562 44.0625 11.0937 43.6875 10.5938Z" transform="translate(1 1)" fill="black"/>
</svg>
